<?xml version="1.0" encoding="utf-8"?>
<!-- Generator: Adobe Illustrator 16.0.0, SVG Export Plug-In . SVG Version: 6.00 Build 0)  -->
<!DOCTYPE svg PUBLIC "-//W3C//DTD SVG 1.1//EN" "http://www.w3.org/Graphics/SVG/1.1/DTD/svg11.dtd">
<svg version="1.1" id="Layer_1" xmlns="http://www.w3.org/2000/svg" xmlns:xlink="http://www.w3.org/1999/xlink" x="0px" y="0px"
	 width="307px" height="100px" viewBox="0 0 307 100" enable-background="new 0 0 307 100" xml:space="preserve">
<g>
	<defs>
		<rect id="SVGID_1_" width="307" height="100"/>
	</defs>
	<clipPath id="SVGID_2_">
		<use xlink:href="#SVGID_1_"  overflow="visible"/>
	</clipPath>
	<g clip-path="url(#SVGID_2_)">
		<rect x="-715.981" y="-0.615" fill="none" width="237.251" height="101.23"/>
	</g>
	<rect x="-240.397" clip-path="url(#SVGID_2_)" fill="none" width="240" height="100"/>
	<g clip-path="url(#SVGID_2_)">
		<g>
			<g id="PanelBG">
				<rect x="-717" y="-0.063" fill="#5D616B" width="1024" height="100"/>
			</g>
			<g id="PanelBorderTop">
				<rect x="-717" y="-0.063" fill="#2A2F39" width="1024" height="10"/>
			</g>
			<g>
				<path fill="#FFFFFF" d="M-617.489,39.757c0-0.36,0.288-0.685,0.684-0.685h8.243c4.283,0,7.595,2.88,7.595,6.659
					c0,2.772-2.268,4.932-3.959,5.724c1.908,0.612,4.68,2.556,4.68,5.867c0,4.031-3.456,6.947-7.847,6.947h-8.711
					c-0.396,0-0.684-0.324-0.684-0.684V39.757z M-608.994,49.655c1.836,0,3.096-1.439,3.096-3.239s-1.26-3.06-3.096-3.06h-3.852
					v6.299H-608.994z M-608.49,60.022c1.8,0,3.24-1.404,3.24-3.276c0-1.8-1.8-3.131-3.672-3.131h-3.923v6.407H-608.49z"/>
				<path fill="#FFFFFF" d="M-597.005,50.556c0-0.396,0.324-0.685,0.684-0.685h1.368c0.324,0,0.54,0.181,0.648,0.468l0.504,1.404
					c0.504-0.72,1.836-2.231,4.067-2.231c1.692,0,3.204,0.54,2.772,1.439l-1.332,2.34c-0.18,0.324-0.54,0.468-0.828,0.324
					c-0.108-0.036-0.648-0.217-1.044-0.217c-1.44,0-2.304,0.973-2.556,1.477v8.711c0,0.504-0.324,0.684-0.828,0.684h-2.771
					c-0.36,0-0.684-0.324-0.684-0.684V50.556z"/>
				<path fill="#FFFFFF" d="M-578.574,49.512c4.067,0,7.379,3.455,7.379,7.522c0,4.14-3.312,7.596-7.379,7.596
					s-7.379-3.456-7.379-7.596C-585.953,52.967-582.641,49.512-578.574,49.512z M-578.574,60.742c1.908,0,3.456-1.656,3.456-3.708
					c0-2.016-1.548-3.636-3.456-3.636c-1.944,0-3.456,1.62-3.456,3.636C-582.029,59.086-580.518,60.742-578.574,60.742z"/>
				<path fill="#FFFFFF" d="M-569.501,50.699c-0.216-0.468,0.108-0.828,0.612-0.828h2.592c0.216,0,0.576,0.181,0.648,0.433
					l2.16,6.442h0.036l3.671-6.911c0.072-0.144,0.252-0.323,0.576-0.323h0.288c0.324,0,0.468,0.144,0.576,0.323l3.635,6.911h0.036
					l2.16-6.442c0.144-0.396,0.432-0.433,0.828-0.433h2.339c0.504,0,0.828,0.36,0.648,0.828l-4.499,13.534
					c-0.072,0.216-0.288,0.396-0.648,0.396h-0.144c-0.288,0-0.468-0.145-0.576-0.324l-4.535-8.387h-0.036l-4.5,8.387
					c-0.108,0.18-0.288,0.324-0.576,0.324h-0.18c-0.324,0-0.54-0.181-0.612-0.396L-569.501,50.699z"/>
				<path fill="#FFFFFF" d="M-546.605,62.542l0.972-1.944c0.144-0.359,0.504-0.432,0.828-0.252c0,0,1.62,0.864,3.276,0.864
					c0.72,0,1.224-0.288,1.224-0.9c0-0.647-0.504-1.043-2.412-1.8c-2.771-1.079-4.067-2.556-4.067-4.751s1.62-4.247,5.291-4.247
					c2.124,0,3.672,0.611,4.428,1.115c0.324,0.216,0.504,0.612,0.324,0.973l-0.9,1.835c-0.18,0.324-0.576,0.36-0.864,0.252
					c0,0-1.62-0.756-2.988-0.756c-0.864,0-1.224,0.36-1.224,0.828c0,0.648,0.648,0.864,1.979,1.404
					c2.772,1.079,4.86,2.268,4.86,5.075c0,2.375-2.088,4.392-5.724,4.392c-2.375,0-4.031-0.756-4.787-1.332
					C-546.605,63.117-546.75,62.83-546.605,62.542z"/>
				<path fill="#FFFFFF" d="M-526.446,49.512c3.708,0,6.731,2.808,6.731,6.695c0,0.252-0.036,0.72-0.072,0.972
					c-0.036,0.359-0.36,0.611-0.684,0.611h-9.215c0.108,1.477,1.368,3.132,3.456,3.132c1.116,0,2.16-0.432,2.808-0.899
					c0.36-0.217,0.684-0.288,0.936,0l1.476,1.691c0.252,0.252,0.324,0.647-0.036,0.936c-1.188,1.116-3.023,1.98-5.363,1.98
					c-4.319,0-7.379-3.42-7.379-7.56C-533.789,53.003-530.729,49.512-526.446,49.512z M-523.926,55.271
					c-0.108-1.332-1.26-2.447-2.628-2.447c-1.44,0-2.627,1.079-2.808,2.447H-523.926z"/>
			</g>
			<g>
				<path fill="#FFFFFF" d="M-404.058,38.756c0-0.36,0.288-0.685,0.684-0.685h10.295c4.319,0,7.847,3.456,7.847,7.739
					c0,3.312-2.196,6.012-5.327,7.271l4.931,9.143c0.252,0.468,0,1.044-0.612,1.044h-3.779c-0.324,0-0.504-0.18-0.576-0.324
					l-4.787-9.538h-3.996v9.179c0,0.359-0.324,0.684-0.684,0.684h-3.312c-0.396,0-0.684-0.324-0.684-0.684V38.756z M-393.475,49.555
					c1.908,0,3.563-1.656,3.563-3.672c0-1.908-1.656-3.491-3.563-3.491h-5.867v7.163H-393.475z"/>
				<path fill="#FFFFFF" d="M-376.05,48.511c3.708,0,6.731,2.808,6.731,6.695c0,0.252-0.036,0.72-0.072,0.972
					c-0.036,0.359-0.36,0.611-0.684,0.611h-9.215c0.108,1.477,1.368,3.132,3.456,3.132c1.116,0,2.16-0.432,2.808-0.899
					c0.36-0.217,0.684-0.288,0.936,0l1.476,1.691c0.252,0.252,0.324,0.647-0.036,0.936c-1.188,1.116-3.023,1.98-5.363,1.98
					c-4.319,0-7.379-3.42-7.379-7.56C-383.393,52.002-380.333,48.511-376.05,48.511z M-373.53,54.27
					c-0.108-1.332-1.26-2.447-2.628-2.447c-1.44,0-2.627,1.079-2.808,2.447H-373.53z"/>
				<path fill="#FFFFFF" d="M-360.427,48.511c2.34,0,4.104,1.26,4.644,1.979l0.468-1.188c0.108-0.288,0.36-0.433,0.612-0.433h1.404
					c0.36,0,0.684,0.288,0.684,0.685v23.828c0,0.36-0.324,0.685-0.684,0.685h-2.88c-0.648,0-0.864-0.252-0.864-0.685V62.837
					c-0.504,0.288-1.8,0.792-3.204,0.792c-3.888,0-7.127-3.312-7.127-7.56C-367.374,51.93-364.386,48.511-360.427,48.511z
					 M-359.671,59.741c1.8,0,2.808-0.828,2.808-0.828v-4.319c-0.216-0.756-1.116-2.196-2.951-2.196c-1.98,0-3.348,1.729-3.348,3.744
					S-361.687,59.741-359.671,59.741z"/>
				<path fill="#FFFFFF" d="M-348.546,49.555c0-0.396,0.324-0.685,0.684-0.685h2.952c0.36,0,0.684,0.288,0.684,0.685v7.091
					c0,1.907,0.972,3.096,2.628,3.096c1.512,0,2.664-1.404,2.879-2.7v-7.486c0-0.54,0.216-0.685,0.792-0.685h2.736
					c0.36,0,0.684,0.288,0.684,0.685v13.03c0,0.359-0.324,0.684-0.684,0.684h-1.332c-0.36,0-0.576-0.252-0.684-0.54l-0.432-1.188
					c-0.648,0.575-1.98,2.088-4.823,2.088c-4.464,0-6.083-3.42-6.083-7.092V49.555z"/>
				<path fill="#FFFFFF" d="M-323.923,48.511c3.708,0,6.731,2.808,6.731,6.695c0,0.252-0.036,0.72-0.072,0.972
					c-0.036,0.359-0.36,0.611-0.684,0.611h-9.215c0.108,1.477,1.368,3.132,3.455,3.132c1.116,0,2.16-0.432,2.808-0.899
					c0.36-0.217,0.684-0.288,0.936,0l1.476,1.691c0.252,0.252,0.324,0.647-0.036,0.936c-1.188,1.116-3.023,1.98-5.363,1.98
					c-4.319,0-7.379-3.42-7.379-7.56C-331.266,52.002-328.206,48.511-323.923,48.511z M-321.403,54.27
					c-0.108-1.332-1.26-2.447-2.627-2.447c-1.44,0-2.627,1.079-2.808,2.447H-321.403z"/>
				<path fill="#FFFFFF" d="M-314.958,61.541l0.972-1.944c0.144-0.359,0.504-0.432,0.828-0.252c0,0,1.62,0.864,3.276,0.864
					c0.72,0,1.224-0.288,1.224-0.9c0-0.647-0.504-1.043-2.412-1.8c-2.771-1.079-4.067-2.556-4.067-4.751s1.62-4.247,5.291-4.247
					c2.124,0,3.672,0.611,4.428,1.115c0.324,0.216,0.504,0.612,0.324,0.973l-0.9,1.835c-0.18,0.324-0.576,0.36-0.864,0.252
					c0,0-1.62-0.756-2.988-0.756c-0.864,0-1.224,0.36-1.224,0.828c0,0.648,0.648,0.864,1.979,1.404
					c2.772,1.079,4.86,2.268,4.86,5.075c0,2.375-2.088,4.392-5.724,4.392c-2.375,0-4.031-0.756-4.787-1.332
					C-314.958,62.116-315.103,61.829-314.958,61.541z"/>
				<path fill="#FFFFFF" d="M-300.307,52.649h-1.224c-0.36,0-0.648-0.323-0.648-0.684v-2.411c0-0.396,0.288-0.685,0.648-0.685h1.224
					v-3.995c0-0.36,0.324-0.684,0.684-0.684l2.952-0.036c0.36,0,0.648,0.323,0.648,0.684v4.031h3.167
					c0.396,0,0.684,0.288,0.684,0.685v2.411c0,0.36-0.288,0.684-0.684,0.684h-3.167v5.76c0,1.008,0.54,1.151,1.116,1.151
					c0.612,0,1.368-0.252,1.764-0.396s0.684,0.036,0.792,0.396l0.72,2.269c0.144,0.359-0.036,0.72-0.396,0.863
					c-0.18,0.108-2.52,0.937-4.284,0.937c-2.771,0-3.996-1.729-3.996-4.644V52.649z"/>
			</g>
			<g>
				<path fill="#FFFFFF" d="M-124.899,38.713c3.636,0,6.264,1.151,8.711,3.348c0.324,0.288,0.324,0.72,0.036,1.008l-2.195,2.268
					c-0.252,0.288-0.612,0.288-0.9,0c-1.512-1.332-3.527-2.124-5.543-2.124c-4.607,0-8.027,3.852-8.027,8.388
					c0,4.499,3.456,8.314,8.063,8.314c2.159,0,3.995-0.828,5.507-2.052c0.288-0.252,0.685-0.216,0.9,0l2.231,2.304
					c0.288,0.252,0.216,0.72-0.036,0.972c-2.447,2.376-5.543,3.492-8.747,3.492c-7.199,0-12.994-5.724-12.994-12.923
					S-132.099,38.713-124.899,38.713z"/>
				<path fill="#FFFFFF" d="M-113.162,50.556c0-0.396,0.324-0.685,0.685-0.685h1.367c0.324,0,0.54,0.181,0.648,0.468l0.504,1.404
					c0.504-0.72,1.836-2.231,4.067-2.231c1.691,0,3.203,0.54,2.771,1.439l-1.332,2.34c-0.18,0.324-0.54,0.468-0.827,0.324
					c-0.108-0.036-0.648-0.217-1.044-0.217c-1.44,0-2.304,0.973-2.556,1.477v8.711c0,0.504-0.324,0.684-0.828,0.684h-2.771
					c-0.36,0-0.685-0.324-0.685-0.684V50.556z"/>
				<path fill="#FFFFFF" d="M-94.73,49.512c3.707,0,6.731,2.808,6.731,6.695c0,0.252-0.036,0.72-0.072,0.972
					c-0.036,0.359-0.36,0.611-0.684,0.611h-9.215c0.107,1.477,1.367,3.132,3.455,3.132c1.116,0,2.16-0.432,2.808-0.899
					c0.36-0.217,0.684-0.288,0.936,0l1.477,1.691c0.252,0.252,0.323,0.647-0.036,0.936c-1.188,1.116-3.023,1.98-5.363,1.98
					c-4.319,0-7.379-3.42-7.379-7.56C-102.073,53.003-99.014,49.512-94.73,49.512z M-92.211,55.271
					c-0.108-1.332-1.26-2.447-2.628-2.447c-1.439,0-2.627,1.079-2.808,2.447H-92.211z"/>
				<path fill="#FFFFFF" d="M-80.259,55.163c1.439,0,2.628,0.396,2.628,0.396c0.035-1.836-0.54-2.483-1.872-2.483
					s-3.204,0.288-4.031,0.54c-0.504,0.144-0.756-0.181-0.828-0.648l-0.324-1.872c-0.107-0.539,0.18-0.791,0.504-0.899
					c0.288-0.108,2.592-0.684,4.896-0.684c4.5,0,5.543,2.34,5.543,6.263v7.812c0,0.359-0.323,0.684-0.684,0.684h-1.296
					c-0.252,0-0.432-0.108-0.611-0.504l-0.433-0.972c-0.828,0.756-2.159,1.836-4.392,1.836c-2.879,0-4.859-1.872-4.859-4.932
					C-86.019,57.143-83.931,55.163-80.259,55.163z M-80.187,61.57c1.151,0,2.268-0.973,2.483-1.404v-1.979
					c0,0-0.972-0.433-2.016-0.433c-1.404,0-2.34,0.792-2.34,1.944C-82.059,60.778-81.303,61.57-80.187,61.57z"/>
				<path fill="#FFFFFF" d="M-68.847,53.65h-1.224c-0.36,0-0.648-0.323-0.648-0.684v-2.411c0-0.396,0.288-0.685,0.648-0.685h1.224
					v-3.995c0-0.36,0.324-0.684,0.684-0.684l2.952-0.036c0.359,0,0.647,0.323,0.647,0.684v4.031h3.168
					c0.396,0,0.684,0.288,0.684,0.685v2.411c0,0.36-0.288,0.684-0.684,0.684h-3.168v5.76c0,1.008,0.54,1.151,1.116,1.151
					c0.611,0,1.367-0.252,1.764-0.396c0.396-0.144,0.684,0.036,0.792,0.396l0.72,2.269c0.144,0.359-0.036,0.72-0.396,0.863
					c-0.181,0.108-2.521,0.937-4.284,0.937c-2.771,0-3.995-1.729-3.995-4.644V53.65z"/>
				<path fill="#FFFFFF" d="M-50.92,49.512c3.707,0,6.731,2.808,6.731,6.695c0,0.252-0.036,0.72-0.072,0.972
					c-0.036,0.359-0.36,0.611-0.684,0.611h-9.215c0.107,1.477,1.367,3.132,3.455,3.132c1.116,0,2.16-0.432,2.808-0.899
					c0.36-0.217,0.684-0.288,0.936,0l1.477,1.691c0.252,0.252,0.323,0.647-0.036,0.936c-1.188,1.116-3.023,1.98-5.363,1.98
					c-4.319,0-7.379-3.42-7.379-7.56C-58.263,53.003-55.203,49.512-50.92,49.512z M-48.4,55.271
					c-0.108-1.332-1.26-2.447-2.628-2.447c-1.439,0-2.627,1.079-2.808,2.447H-48.4z"/>
			</g>
			<g id="FindIcon">
				<g id="XMLID_3_">
					<g>
						<g id="XMLID_4_">
							<g>
								<g>
									<path fill="#59C1A7" d="M-672.151,68.3l-1.314-1.318c-0.938-0.936-1.332-2.068-0.863-2.524l8.828-8.826
										c-1.436-2.329-2.267-5.077-2.267-8.026c0-8.433,6.846-15.281,15.28-15.281c8.449,0,15.281,6.849,15.281,15.281
										c0,8.448-6.832,15.297-15.281,15.297c-3.1,0-5.971-0.922-8.373-2.493l-8.767,8.766
										C-670.081,69.628-671.214,69.235-672.151,68.3z M-652.487,57.822c5.639,0,10.219-4.579,10.219-10.218
										s-4.58-10.203-10.219-10.203c-5.638,0-10.203,4.564-10.203,10.203C-662.69,53.244-658.125,57.822-652.487,57.822z"/>
								</g>
							</g>
						</g>
					</g>
				</g>
				<g>
					<circle fill="#FFFFFF" cx="-652.332" cy="47.271" r="10.552"/>
				</g>
			</g>
			<g id="RequestIcon">
				<g>
					<path fill="#FDC010" d="M-429.907,37.683c-2.088-4.202-6.356-5.628-9.029-5.628c-2.674,0-6.952,1.426-9.04,5.628
						c-2.089,4.203-0.407,8.1,1.63,10.697c2.038,2.597,2.344,3.744,2.471,4.38c0.127,0.637-0.281,1.63,0.497,2.317
						c0.778,0.688,4.442,0.79,4.442,0.79s3.65-0.102,4.43-0.79c0.777-0.688,0.363-1.682,0.49-2.317
						c0.128-0.636,0.43-1.783,2.468-4.38C-429.511,45.782-427.819,41.886-429.907,37.683z"/>
				</g>
				<g>
					<path fill="#59C1A7" d="M-434.229,59.032c-0.1-0.419-0.523-0.696-0.883-0.611v-0.004c-1.438,0.38-3.773,0.375-3.773,0.375
						s-2.127,0.005-3.749-0.375l-0.015,0.004c-0.48-0.085-0.846,0.192-0.945,0.611c-0.104,0.438,0.15,0.875,0.588,0.979
						c0.037,0.007,0.072,0.015,0.109,0.019c1.807,0.395,3.866,0.388,3.956,0.387c0.089,0.001,2.149,0.008,3.954-0.387
						c0.037-0.004,0.103-0.011,0.14-0.019C-434.409,59.907-434.125,59.47-434.229,59.032z"/>
				</g>
				<g>
					<path fill="#59C1A7" d="M-434.267,62.81c-0.1-0.42-0.457-0.695-0.938-0.612l-0.002-0.003c-1.622,0.381-3.718,0.375-3.718,0.375
						s-2.099,0.006-3.72-0.375l-0.002,0.003c-0.479-0.083-0.837,0.192-0.938,0.612c-0.104,0.438,0.152,0.874,0.591,0.979
						c0.038,0.009,0.075,0.017,0.112,0.02c1.806,0.396,3.866,0.387,3.956,0.387c0.089,0,2.149,0.009,3.955-0.387
						c0.036-0.003,0.074-0.01,0.111-0.02C-434.42,63.684-434.163,63.247-434.267,62.81z"/>
				</g>
				<g>
					<path fill="#59C1A7" d="M-434.956,66.293c-0.129-0.354-0.516-0.607-0.875-0.534v-0.002c-1.079,0.332-3.17,0.318-3.17,0.318
						s-1.777,0.014-3.195-0.318l0.014,0.002c-0.42-0.073-0.686,0.181-0.814,0.534c-0.312,0.863,1.548,2.018,4.02,2.018
						C-436.489,68.312-434.645,67.156-434.956,66.293z"/>
				</g>
			</g>
			<g id="CreateIcon">
				<g>
					<path fill="#F9BAA8" d="M-163.064,41.168l-2.215,1.402l-4.351-6.767l2.212-1.405c0.771-0.487,1.704-0.402,2.087,0.195
						l2.964,4.61C-161.981,39.8-162.297,40.679-163.064,41.168z"/>
				</g>
				<g>
					<path fill="#F8DD8E" d="M-192.479,54.598c-0.14,0.304-0.176,0.468-0.118,0.551c0.338,0.491,8.385-1.003,9.821-1.574
						c-2.593,0.174-5.562-4.469-4.275-6.61C-188.159,47.948-191.779,53.097-192.479,54.598z"/>
				</g>
				<g>
					<path fill="#EF5A4D" d="M-192.649,54.964c-0.096,0.237-0.122,0.363-0.091,0.433c0.19,0.396,5.143-0.572,6.037-0.986
						c-1.586,0.071-3.238-3.666-2.383-5.319C-189.794,49.836-192.173,53.802-192.649,54.964z"/>
				</g>
				<g>
					<path fill="#FDC010" d="M-178.867,53.969l-0.027,3.581h-4.474c-1.094,0-1.983,0.883-1.983,1.971v4.311h-12.742
						c-1.689,0-3.065-1.719-3.065-3.83V40.308c0-2.109,1.376-3.829,3.065-3.829h16.115c2.173,0.006,1.84,2.318,2.401,3.214
						l3.529-2.268c-0.805-3.242-3.074-5.07-5.931-5.07h-16.114c-3.51-0.001-6.365,3.569-6.365,7.953v19.693
						c0,4.388,2.855,7.955,6.365,7.955h14.956l7.523-9.022l-0.131-6.931L-178.867,53.969z"/>
				</g>
				<g>
					<path fill="#EF5A4D" d="M-184.917,45.507c-1.624,2.1,1.641,7.219,4.352,6.769l13.322-8.457l-4.352-6.768L-184.917,45.507z"/>
				</g>
			</g>
			<g id="PanelSpacer">
				<g>
					<rect x="-481.498" y="9.937" fill="#2A2F39" width="3" height="90"/>
				</g>
				<g>
					<rect x="-241.498" y="10" fill="#2A2F39" width="3" height="90"/>
				</g>
				<g>
					<rect x="-1.665" y="9.937" fill="#2A2F39" width="3" height="90"/>
				</g>
			</g>
			<g>
				<rect x="-717" fill="none" width="237.166" height="100"/>
			</g>
		</g>
		<g enable-background="new    ">
			<path fill="#FCC016" d="M78.354,71.744c-0.41,0.43-0.933,0.918-1.567,1.465s-1.348,1.099-2.139,1.655s-1.646,1.099-2.563,1.626
				c-0.919,0.527-1.856,0.996-2.812,1.406c-0.957,0.41-1.919,0.737-2.886,0.981s-1.895,0.366-2.781,0.366
				c-0.617,0-1.239-0.107-1.865-0.322s-1.194-0.61-1.706-1.187c-0.511-0.576-0.93-1.372-1.257-2.388
				c-0.328-1.016-0.491-2.334-0.491-3.955c0-0.684,0.048-1.421,0.145-2.212c0.096-0.791,0.222-1.646,0.376-2.563
				c-1.094,2.207-2.329,4.321-3.705,6.343s-2.841,3.604-4.393,4.746c-1.553,1.143-3.158,2.007-4.817,2.593
				c-1.66,0.586-3.319,0.879-4.979,0.879c-1.816,0-3.541-0.317-5.171-0.952c-1.631-0.635-3.072-1.582-4.321-2.842
				c-1.25-1.26-2.241-2.827-2.974-4.702s-1.099-4.395-1.099-7.559c0-1.895,0.219-3.877,0.658-5.947
				c0.438-2.07,1.078-4.16,1.916-6.27c0.839-2.109,1.854-4.199,3.044-6.27c1.189-2.07,2.546-4.038,4.067-5.903
				s3.185-3.594,4.988-5.186c1.805-1.592,3.731-2.969,5.779-4.131c2.049-1.162,4.204-2.075,6.467-2.739
				c2.264-0.664,4.614-0.996,7.053-0.996c0.655,0,1.18,0.054,1.575,0.161c0.396,0.107,0.694,0.245,0.896,0.41
				c0.202,0.166,0.333,0.337,0.391,0.513s0.087,0.332,0.087,0.469c0,0.098-0.005,0.186-0.015,0.264s-0.015,0.137-0.015,0.176v0.146
				c0.533,0.312,1.076,0.503,1.629,0.571c0.554,0.068,1.097,0.127,1.63,0.176s1.037,0.151,1.512,0.308
				c0.474,0.156,0.888,0.464,1.244,0.923c0.354,0.459,0.637,1.128,0.844,2.007s0.312,2.07,0.312,3.574
				c0,1.176-0.102,2.498-0.304,3.967c-0.202,1.47-0.486,3.005-0.853,4.606c-0.366,1.601-0.779,3.226-1.239,4.871
				c-0.459,1.646-0.924,3.235-1.393,4.768s-0.914,2.984-1.338,4.357c-0.424,1.372-0.817,2.565-1.182,3.578
				c-0.073,0.858-0.134,1.657-0.183,2.398c-0.048,0.74-0.072,1.511-0.072,2.31c0,0.624,0.015,1.136,0.044,1.535
				c0.029,0.4,0.083,0.717,0.161,0.95c0.077,0.234,0.186,0.395,0.322,0.482c0.136,0.088,0.312,0.132,0.527,0.132
				c0.391,0,0.883-0.103,1.479-0.308c0.596-0.205,1.23-0.469,1.904-0.791s1.377-0.684,2.109-1.084s1.436-0.801,2.109-1.201
				s1.304-0.767,1.89-1.099s1.074-0.605,1.465-0.82L78.354,71.744z M64.583,33.863c-0.688-0.195-1.4-0.337-2.137-0.425
				c-0.737-0.088-1.45-0.132-2.138-0.132c-1.58,0-3.141,0.303-4.683,0.908c-1.541,0.605-3.038,1.431-4.492,2.476
				c-1.453,1.045-2.839,2.275-4.155,3.691s-2.546,2.939-3.688,4.57s-2.17,3.325-3.087,5.083s-1.707,3.511-2.371,5.259
				c-0.663,1.748-1.171,3.447-1.521,5.098c-0.352,1.65-0.526,3.169-0.526,4.556c0,3.418,0.552,5.884,1.655,7.397
				c1.103,1.514,2.816,2.271,5.142,2.271c1.445,0,2.816-0.303,4.116-0.908c1.299-0.605,2.505-1.401,3.618-2.388
				s2.134-2.266,3.062-3.838c0.927-1.572,1.738-2.993,2.432-4.263c0.692-1.27,1.264-2.495,1.714-3.677
				c0.449-1.182,0.771-2.202,0.967-3.062L64.583,33.863z"/>
			<path fill="#FCC016" d="M74.691,72.184c0-0.859,0.049-1.86,0.146-3.003s0.229-2.349,0.396-3.618s0.361-2.563,0.586-3.882
				s0.513-2.725,0.864-4.219s0.654-2.739,0.908-3.735s0.508-1.816,0.762-2.461c0.156-0.43,0.312-0.771,0.469-1.025
				s0.337-0.454,0.542-0.601s0.459-0.244,0.762-0.293s0.679-0.073,1.128-0.073c0.508,0,0.903,0.024,1.187,0.073
				s0.493,0.166,0.63,0.352s0.22,0.454,0.249,0.806s0.044,0.83,0.044,1.436c0,0.723-0.049,1.748-0.146,3.076
				s-0.127,2.49-0.088,3.486h0.322c0.391-0.781,0.879-1.807,1.465-3.076s1.201-2.324,1.846-3.164s1.377-1.548,2.197-2.124
				s1.768-0.864,2.842-0.864c0.371,0,0.732,0.063,1.084,0.19s0.659,0.308,0.923,0.542s0.474,0.522,0.63,0.864
				s0.234,0.728,0.234,1.157c0,0.332-0.049,0.796-0.146,1.392s-0.254,1.372-0.469,2.329s-0.371,1.743-0.469,2.358
				s-0.146,1.128-0.146,1.538c0,0.703,0.068,1.289,0.205,1.758s0.317,0.845,0.542,1.128s0.479,0.483,0.762,0.601
				s0.581,0.176,0.894,0.176c0.879,0,1.787-0.195,2.725-0.586s1.797-0.83,2.578-1.318c0.918-0.566,1.816-1.211,2.695-1.934
				l-0.439,6.855c-0.508,0.332-1.084,0.703-1.729,1.113s-1.333,0.796-2.065,1.157s-1.494,0.664-2.285,0.908
				s-1.597,0.366-2.417,0.366c-1.465,0-2.646-0.298-3.545-0.894s-1.611-1.377-2.139-2.344s-0.918-2.051-1.172-3.252
				s-0.459-2.417-0.615-3.647h-0.469l-5.244,14.619c-0.273,0.762-0.532,1.392-0.776,1.89s-0.493,0.903-0.747,1.216
				s-0.527,0.532-0.82,0.659s-0.615,0.19-0.967,0.19c-0.801,0-1.445-0.171-1.934-0.513s-0.864-0.801-1.128-1.377
				s-0.439-1.23-0.527-1.963S74.691,72.965,74.691,72.184z"/>
			<path fill="#FCC016" d="M124.291,71.744c-1.878,1.094-3.55,2.051-5.017,2.871s-2.772,1.504-3.917,2.051s-2.161,0.957-3.051,1.23
				s-1.697,0.41-2.42,0.41c-1.477,0-2.778-0.449-3.905-1.348s-2.068-2.192-2.826-3.882s-1.326-3.735-1.704-6.138
				c-0.379-2.402-0.568-5.107-0.568-8.115c0-1.172,0.048-2.422,0.146-3.75c0.097-1.328,0.231-2.646,0.406-3.955
				c-0.59-0.087-1.048-0.168-1.372-0.244s-0.668-0.152-1.032-0.229c-0.363-0.076-0.825-0.157-1.386-0.245
				c-0.561-0.087-1.371-0.195-2.433-0.326c-0.472-0.064-0.836-0.189-1.092-0.374c-0.255-0.186-0.441-0.402-0.561-0.652
				c-0.117-0.25-0.186-0.511-0.206-0.783c-0.02-0.271-0.029-0.505-0.029-0.701c0-0.308,0.191-0.543,0.574-0.705
				s0.874-0.283,1.473-0.364s1.256-0.127,1.973-0.137s1.404-0.005,2.062,0.015s1.247,0.034,1.768,0.044
				c0.52,0.01,0.878-0.005,1.074-0.044c0.526-2.629,1.194-5.176,2.004-7.639c0.809-2.464,1.715-4.655,2.72-6.573
				c1.004-1.918,2.101-3.457,3.29-4.616c1.189-1.159,2.437-1.739,3.743-1.739c0.841,0,1.607,0.234,2.302,0.703
				c0.693,0.468,1.284,1.093,1.773,1.874c0.488,0.78,0.865,1.692,1.129,2.736s0.396,2.132,0.396,3.264
				c0,0.937-0.137,1.925-0.41,2.966c-0.274,1.041-0.646,2.103-1.114,3.182s-1.021,2.173-1.655,3.281
				c-0.636,1.108-1.305,2.207-2.008,3.296c0.177-0.064,0.47-0.077,0.881-0.038c0.41,0.04,0.884,0.067,1.421,0.083
				s1.118,0.031,1.743,0.047s1.23,0.033,1.816,0.053s1.133,0.039,1.641,0.059s0.928,0.039,1.26,0.059
				c0.391,0.021,0.674,0.239,0.85,0.652s0.264,0.935,0.264,1.565c0,0.729-0.196,1.323-0.587,1.782s-0.821,0.688-1.29,0.688h-11.263
				c-0.569,0.781-1.143,1.548-1.722,2.3c-0.578,0.752-1.113,1.431-1.604,2.036c-0.078,1.211-0.146,2.402-0.205,3.574
				c-0.02,0.508-0.039,1.03-0.059,1.567s-0.039,1.069-0.059,1.597s-0.034,1.035-0.044,1.523s-0.015,0.938-0.015,1.348
				c0,1.055,0.098,1.943,0.294,2.666s0.48,1.313,0.854,1.772c0.372,0.459,0.828,0.791,1.367,0.996s1.142,0.308,1.809,0.308
				c0.41,0,0.924-0.098,1.54-0.293c0.615-0.195,1.29-0.464,2.023-0.806s1.505-0.747,2.316-1.216s1.612-0.981,2.404-1.538
				s1.55-1.143,2.273-1.758c0.723-0.615,1.378-1.245,1.965-1.89V71.744z M114.916,34.645c0-0.214-0.015-0.451-0.044-0.715
				c-0.029-0.263-0.094-0.51-0.191-0.743s-0.25-0.429-0.456-0.584s-0.495-0.233-0.867-0.233c-0.51,0-1.025,0.446-1.545,1.338
				s-1.02,2.031-1.5,3.417c-0.48,1.387-0.932,2.914-1.353,4.582c-0.422,1.667-0.809,3.286-1.162,4.856
				c0.294,0.029,0.589,0.055,0.883,0.076c0.294,0.022,0.598,0.048,0.911,0.076c0.589-0.984,1.201-2.05,1.839-3.198
				c0.637-1.148,1.21-2.277,1.72-3.387c0.511-1.109,0.932-2.146,1.266-3.111C114.749,36.053,114.916,35.262,114.916,34.645z"/>
			<path fill="#FCC016" d="M139.848,72.066c-0.703,0.645-1.577,1.333-2.622,2.065s-2.173,1.406-3.384,2.021
				s-2.446,1.128-3.706,1.538s-2.456,0.615-3.589,0.615c-1.016,0-1.87-0.142-2.563-0.425s-1.255-0.679-1.685-1.187
				s-0.737-1.128-0.923-1.86s-0.278-1.538-0.278-2.417c0-1.23,0.137-2.666,0.41-4.307c0.563-3.394,0.925-5.3,1.086-5.719
				c0.266-0.834,0.798-2.682,1.597-5.544c0.741-2.333,1.199-3.852,1.374-4.556c0.096-0.493,0.364-0.938,0.806-1.333
				c0.403-0.354,0.858-0.646,1.367-0.874c0.509-0.227,1.036-0.395,1.583-0.503s1.041-0.163,1.482-0.163
				c0.806,0,1.353,0.151,1.641,0.454c0.287,0.303,0.432,0.708,0.432,1.216c0,0.43-0.101,1.037-0.301,1.821
				c-0.2,0.785-0.43,1.68-0.686,2.683c-0.257,1.004-0.637,2.294-1.14,3.871c-0.504,1.578-0.848,2.923-1.032,4.035
				c-0.185,1.113-0.417,2.219-0.698,3.317s-0.421,2.097-0.421,2.994c0,0.879,0.098,1.577,0.293,2.094
				c0.195,0.518,0.596,0.776,1.201,0.776c0.703,0,1.484-0.244,2.344-0.732s1.729-1.079,2.607-1.772s1.738-1.411,2.578-2.153
				s1.582-1.377,2.227-1.904V72.066z M126.752,41.321c0-0.453,0.098-0.966,0.293-1.537c0.195-0.572,0.513-1.109,0.952-1.612
				c0.439-0.502,1.025-0.926,1.758-1.271c0.732-0.345,1.646-0.518,2.739-0.518c0.684,0,1.328,0.079,1.934,0.236
				c0.605,0.158,1.133,0.4,1.582,0.725c0.449,0.325,0.806,0.754,1.069,1.287c0.264,0.532,0.396,1.163,0.396,1.892
				c0,0.671-0.107,1.321-0.322,1.952s-0.557,1.193-1.025,1.686c-0.469,0.493-1.06,0.893-1.772,1.198s-1.567,0.458-2.563,0.458
				c-1.719,0-2.988-0.409-3.809-1.228C127.162,43.771,126.752,42.682,126.752,41.321z"/>
			<path fill="#FCC016" d="M146.922,78.307c-1.809,0-3.396-0.332-4.763-0.996s-2.512-1.553-3.436-2.666
				c-0.925-1.113-1.622-2.402-2.094-3.867c-0.473-1.465-0.708-2.988-0.708-4.57c0-1.133,0.196-2.49,0.589-4.072
				s0.819-2.964,1.281-4.146c0.461-1.182,1.03-2.31,1.708-3.384s1.462-2.017,2.355-2.827s1.891-1.455,2.99-1.934
				s2.307-0.718,3.622-0.718c1.185,0,2.28,0.171,3.289,0.513c1.008,0.342,1.87,0.815,2.587,1.421s1.277,1.323,1.684,2.153
				c0.404,0.83,0.607,1.724,0.607,2.681c0,0.664-0.096,1.318-0.285,1.963c-0.191,0.645-0.561,1.401-1.11,2.271
				c-0.549,0.869-1.083,1.46-1.601,1.772s-1.104,0.469-1.759,0.469c-0.988,0-1.626-0.244-1.914-0.732
				c-0.474-0.762-0.623-1.436-0.448-2.021c0.059-0.312,0.233-1.035,0.525-2.168c0.039-0.156,0.049-0.508,0.029-1.055
				c0-0.469-0.049-0.859-0.146-1.172c-0.097-0.312-0.311-0.469-0.641-0.469c-0.798,0-1.479,0.19-2.042,0.571
				c-0.564,0.381-1.046,0.879-1.444,1.494s-0.792,1.484-1.182,2.607c-0.389,1.123-0.666,2.065-0.831,2.827s-0.268,1.489-0.306,2.183
				c-0.039,0.693-0.059,1.274-0.059,1.743c0,0.703,0.063,1.436,0.189,2.197s0.379,1.46,0.758,2.095s0.87,1.162,1.474,1.582
				c0.603,0.42,1.38,0.63,2.333,0.63c0.938,0,1.973-0.288,3.105-0.864s2.271-1.304,3.413-2.183s2.231-1.846,3.267-2.9
				s1.924-2.051,2.666-2.988l2.021,3.398c-1.465,2.09-3.047,3.955-4.746,5.596c-0.723,0.703-1.509,1.387-2.358,2.051
				s-1.738,1.255-2.666,1.772s-1.895,0.938-2.9,1.26S147.953,78.307,146.922,78.307z"/>
			<path fill="#FCC016" d="M166.392,78.307c-1.051,0-2.028-0.456-2.933-1.369c-0.905-0.914-1.693-2.139-2.364-3.678
				c-0.672-1.537-1.197-3.32-1.576-5.349c-0.38-2.028-0.569-4.157-0.569-6.388c0-1.916,0.281-4.475,0.845-7.675
				s0.845-4.801,0.845-4.8c0,0,0.427-1.598,1.28-4.794c0.854-3.197,1.709-5.761,2.567-7.691c0.857-1.931,1.789-3.734,2.796-5.411
				c1.006-1.678,2.061-3.14,3.166-4.386c1.104-1.246,2.259-2.226,3.462-2.938s2.427-1.068,3.67-1.068
				c0.904,0,1.65,0.172,2.239,0.518s1.052,0.801,1.389,1.368s0.573,1.208,0.71,1.925s0.205,1.447,0.205,2.19
				c0,1.847-0.219,3.728-0.655,5.643c-0.437,1.914-1.025,3.839-1.767,5.773s-1.6,3.874-2.573,5.818
				c-0.976,1.945-1.991,3.874-3.047,5.789s-2.116,3.801-3.183,5.656c-1.066,1.856-2.05,3.671-2.951,5.443
				c-0.099,0.197-0.201,0.453-0.309,0.768c-0.108,0.315-0.211,0.655-0.309,1.02c-0.098,0.365-0.196,0.754-0.294,1.167
				c-0.098,0.414-0.177,0.817-0.235,1.212v0.413c0,0.513,0.054,1.01,0.161,1.492c0.108,0.482,0.24,0.916,0.397,1.3
				c0.156,0.385,0.323,0.69,0.499,0.916c0.177,0.227,0.343,0.34,0.5,0.34c0.38,0,0.815-0.079,1.305-0.236
				c0.49-0.157,1.01-0.369,1.561-0.635c0.55-0.266,1.114-0.571,1.694-0.916s1.141-0.694,1.681-1.049
				c1.26-0.827,2.579-1.782,3.959-2.866l2.587,6.176c-1.79,1.188-3.56,2.247-5.31,3.175c-0.765,0.391-1.554,0.775-2.368,1.156
				s-1.635,0.72-2.459,1.018c-0.825,0.297-1.629,0.534-2.413,0.71C167.81,78.219,167.076,78.307,166.392,78.307z M166.42,55.083
				c0.882-1.576,1.816-3.349,2.807-5.318c0.989-1.969,1.925-3.998,2.807-6.086s1.646-4.17,2.293-6.249
				c0.646-2.077,1.058-4.013,1.234-5.805c0-0.571-0.015-1.059-0.042-1.463c-0.027-0.403-0.115-0.605-0.264-0.605
				c-0.536,0-1.115,0.371-1.735,1.113c-0.619,0.741-1.24,1.746-1.859,3.012c-0.62,1.267-1.36,3.326-2.222,6.179
				c-0.86,2.853-1.291,4.279-1.291,4.28s-0.263,1.324-0.789,3.971C166.833,50.759,166.521,53.082,166.42,55.083z"/>
			<path fill="#FCC016" d="M185.478,78.307c-1.823,0-3.42-0.338-4.787-1.014c-1.368-0.676-2.508-1.586-3.42-2.729
				c-0.911-1.143-1.596-2.465-2.052-3.966s-0.684-3.077-0.684-4.728c0-1.079,0.204-2.365,0.612-3.859
				c0.407-1.494,0.83-2.819,1.268-3.977c0.437-1.156,0.985-2.26,1.646-3.311c0.661-1.05,1.434-1.976,2.317-2.775
				c0.884-0.801,1.874-1.437,2.972-1.908c1.098-0.473,2.317-0.709,3.657-0.709c1.095,0,2.111,0.176,3.05,0.527
				c0.938,0.351,1.756,0.843,2.449,1.478c0.694,0.634,1.237,1.399,1.628,2.297s0.587,1.901,0.587,3.014
				c0,1.184-0.396,2.512-1.189,3.981c-0.793,1.471-1.718,2.731-2.774,3.781c-1.057,1.051-2.314,1.986-3.772,2.808
				s-3.038,1.461-4.741,1.919c0.294,0.517,0.583,0.946,0.867,1.29s0.573,0.611,0.867,0.802c0.294,0.191,0.604,0.325,0.927,0.401
				s0.671,0.114,1.044,0.114c1.172,0,2.407-0.229,3.706-0.688c1.299-0.458,2.563-1.031,3.794-1.719s2.393-1.438,3.486-2.249
				s2.021-1.58,2.783-2.306l3.779,3.839c-1.719,1.83-3.545,3.449-5.479,4.857c-0.84,0.604-1.743,1.197-2.71,1.78
				s-1.982,1.102-3.047,1.554s-2.168,0.814-3.311,1.086S186.65,78.307,185.478,78.307z M181.566,64.354
				c0.706,0,1.476-0.177,2.309-0.53s1.607-0.807,2.323-1.36c0.715-0.555,1.416-1.299,2.103-2.234c0.686-0.936,1.029-1.71,1.029-2.32
				c0-0.859-0.162-1.566-0.485-2.12s-0.721-0.831-1.191-0.831c-0.843,0-1.563,0.153-2.161,0.459s-1.098,0.701-1.5,1.188
				c-0.401,0.487-0.726,1.04-0.97,1.661c-0.246,0.621-0.53,1.39-0.854,2.307c-0.323,0.916-0.505,1.671-0.544,2.263
				S181.566,63.933,181.566,64.354z"/>
			<path fill="#FCC016" d="M217.133,71.076c-0.078,0.652-0.068,1.209,0.029,1.67c0.098,0.46,0.254,0.835,0.469,1.122
				c0.215,0.288,0.474,0.499,0.776,0.634s0.63,0.201,0.981,0.201c0.508,0,1.138-0.12,1.89-0.359c0.752-0.24,1.357-0.571,1.816-0.993
				s0.854-0.926,1.187-1.512c0.332-0.585,0.527-1.214,0.586-1.886c0.117-1.094,0.078-2.24-0.117-3.439
				c-0.195-1.2-0.547-2.035-1.055-2.505s-1.177-0.83-2.007-1.08c-0.83-0.249-1.802-0.432-2.915-0.547
				c-0.625-0.038-1.064-0.168-1.318-0.389s-0.361-0.494-0.322-0.82c0.02-0.269,0.078-0.562,0.176-0.878s0.234-0.614,0.41-0.893
				s0.4-0.509,0.674-0.69c0.273-0.183,0.586-0.273,0.938-0.273c0.781,0,1.499-0.144,2.153-0.432s1.235-0.936,1.743-1.943
				s0.898-1.775,1.172-2.303c0.273-0.528,0.439-1.042,0.498-1.541c0.059-0.652-0.098-1.209-0.469-1.669
				c-0.371-0.461-1.006-0.691-1.904-0.691c-0.703,0-1.313,0.163-1.831,0.489s-0.796,0.711-0.835,1.151
				c-0.02,0.23,0.044,0.471,0.19,0.72c0.146,0.25,0.405,0.48,0.776,0.691c0.195,0.115,0.283,0.239,0.264,0.374
				c0,0.154-0.151,0.303-0.454,0.446s-0.645,0.269-1.025,0.374s-0.742,0.192-1.084,0.259c-0.342,0.067-0.571,0.102-0.688,0.102
				c-0.234,0-0.459-0.056-0.674-0.168c-0.215-0.11-0.405-0.298-0.571-0.562c-0.166-0.263-0.288-0.617-0.366-1.062
				c-0.078-0.444-0.088-1.001-0.029-1.67c0.117-1.274,0.444-2.347,0.981-3.217c0.537-0.871,1.206-1.559,2.007-2.065
				c0.801-0.506,1.689-0.88,2.666-1.123c0.977-0.242,1.973-0.364,2.988-0.364c1.055,0,2.081,0.136,3.08,0.408
				c0.998,0.271,1.874,0.664,2.628,1.178c0.753,0.514,1.348,1.147,1.783,1.902c0.436,0.756,0.595,1.737,0.478,2.945
				c-0.038,0.563-0.151,1.183-0.34,1.857s-0.485,1.344-0.891,2.009c-0.406,0.665-0.98,1.615-1.724,2.854
				c-0.744,1.237-1.673,2.049-2.786,2.433c1.17,0.308,2.136,0.766,2.898,1.372c0.763,0.607,1.365,1.32,1.808,2.139
				s0.735,1.936,0.878,3.352s0.166,2.625,0.068,3.626c-0.096,1.021-0.447,2.037-1.057,3.049c-0.608,1.012-1.413,1.917-2.412,2.716
				c-0.999,0.8-2.155,1.45-3.468,1.951c-1.313,0.501-2.723,0.751-4.226,0.751c-2.207,0-3.94-0.193-5.2-0.579
				s-2.271-0.937-3.032-1.65c-0.762-0.715-1.284-1.569-1.567-2.563s-0.366-2.09-0.249-3.286c0.078-0.733,0.249-1.347,0.513-1.839
				s0.596-0.889,0.996-1.188c0.4-0.3,0.854-0.512,1.362-0.638c0.508-0.125,1.025-0.188,1.553-0.188c0.449,0,0.952,0.054,1.509,0.159
				s1.069,0.244,1.538,0.417s0.859,0.365,1.172,0.576s0.459,0.412,0.439,0.604c-0.02,0.153-0.2,0.278-0.542,0.374
				s-0.728,0.226-1.157,0.389s-0.82,0.374-1.172,0.633C217.367,70.256,217.172,70.615,217.133,71.076z"/>
			<path fill="#FCC016" d="M251.183,27.447c3.193,0,6.035,0.263,8.523,0.788s4.668,1.255,6.539,2.189
				c1.872,0.934,3.454,2.048,4.747,3.342s2.341,2.704,3.145,4.231s1.387,3.147,1.749,4.859c0.362,1.713,0.544,3.464,0.544,5.254
				c0,2.467-0.274,5.139-0.823,8.018c-0.548,2.878-1.342,5.501-2.38,7.87c-1.039,2.369-2.317,4.591-3.836,6.666
				s-3.257,3.886-5.216,5.433c-1.96,1.547-4.115,2.766-6.466,3.656c-2.352,0.891-4.889,1.336-7.612,1.336
				c-0.909,0-1.837-0.07-2.784-0.209c-0.948-0.141-1.866-0.33-2.756-0.568c-0.89-0.24-1.731-0.51-2.524-0.809
				s-1.489-0.608-2.088-0.927c-0.252-0.08-0.45-0.175-0.595-0.285c-0.146-0.109-0.257-0.239-0.334-0.389s-0.126-0.334-0.145-0.554
				c-0.02-0.219-0.029-0.498-0.029-0.838c0-3.238,0.081-6.557,0.245-9.952c0.163-3.396,0.496-6.884,0.999-10.465
				s1.229-6.743,2.176-9.485c0.947-2.741,2.204-5.273,3.771-7.597c0.387-0.565,1.634-0.849,3.742-0.849
				c1.662,0,2.854,0.605,3.578,1.814c-0.899,1.209-1.652,2.555-2.259,4.037s-1.114,2.94-1.525,4.374s-0.753,2.999-1.026,4.695
				c-0.528,3.276-0.782,4.934-0.763,4.973c0.059,0.04-0.167,1.912-0.675,5.617c-0.196,1.287-0.348,2.409-0.455,3.365
				c-0.107,0.955-0.186,1.794-0.234,2.516s-0.073,1.424-0.073,2.106c0,0.721,0.024,1.326,0.073,1.813s0.166,0.878,0.352,1.17
				c0.187,0.293,0.47,0.503,0.851,0.629c0.382,0.127,0.896,0.19,1.541,0.19c1.955,0,3.812-0.385,5.573-1.155
				c1.76-0.771,3.383-1.804,4.869-3.102c1.486-1.297,2.821-2.804,4.005-4.52c1.183-1.717,2.189-3.701,3.021-5.953
				c0.831-2.253,1.472-4.369,1.922-6.349c0.449-1.979,0.675-3.886,0.675-5.72c0-2.263-0.372-4.286-1.114-6.07
				c-0.744-1.784-1.785-3.296-3.125-4.535c-1.34-1.238-2.948-2.184-4.825-2.837c-1.878-0.653-3.94-0.98-6.189-0.98
				c-1.643,0-3.27,0.099-4.881,0.294c-1.611,0.196-3.105,0.501-4.482,0.913s-2.589,0.938-3.633,1.575
				c-1.046,0.638-1.831,1.398-2.358,2.281c-1.427,2.218-2.599,3.931-3.516,5.138c-0.918,1.207-1.689,1.811-2.314,1.811
				c-0.859,0-1.289-0.986-1.289-2.959c0-1.914,0.249-3.633,0.747-5.156s1.191-2.876,2.08-4.058c0.888-1.182,1.942-2.188,3.164-3.018
				c1.22-0.83,2.558-1.514,4.014-2.051c1.454-0.537,3.003-0.933,4.644-1.187C247.784,27.575,249.463,27.447,251.183,27.447z"/>
		</g>
	</g>
</g>
</svg>
