<?xml version="1.0" encoding="utf-8"?>
<!-- Generator: Adobe Illustrator 16.0.0, SVG Export Plug-In . SVG Version: 6.00 Build 0)  -->
<!DOCTYPE svg PUBLIC "-//W3C//DTD SVG 1.1//EN" "http://www.w3.org/Graphics/SVG/1.1/DTD/svg11.dtd">
<svg version="1.1" id="Layer_1" xmlns="http://www.w3.org/2000/svg" xmlns:xlink="http://www.w3.org/1999/xlink" x="0px" y="0px"
	 width="175px" height="214px" viewBox="0 0 175 214" enable-background="new 0 0 175 214" xml:space="preserve">
<g>
	<g>
		<rect y="0.594" fill="#D5D9E3" width="175" height="213.406"/>
	</g>
	<g>
		<path fill="#5D616B" d="M21.501,183.456l9.329-20.133c0.09-0.18,0.24-0.329,0.511-0.329h0.3c0.3,0,0.42,0.149,0.51,0.329
			l9.239,20.133c0.181,0.389-0.06,0.777-0.51,0.777h-2.609c-0.45,0-0.66-0.179-0.87-0.598l-1.471-3.231h-8.969l-1.471,3.231
			c-0.12,0.3-0.39,0.598-0.869,0.598h-2.61C21.561,184.233,21.32,183.845,21.501,183.456z M34.46,177.083l-3-6.581h-0.09
			l-2.939,6.581H34.46z"/>
		<path fill="#5D616B" d="M42.53,182.798l0.81-1.615c0.12-0.299,0.421-0.359,0.69-0.21c0,0,1.35,0.719,2.729,0.719
			c0.601,0,1.021-0.239,1.021-0.748c0-0.539-0.42-0.868-2.01-1.495c-2.311-0.898-3.391-2.125-3.391-3.95
			c0-1.824,1.351-3.529,4.41-3.529c1.771,0,3.06,0.509,3.69,0.927c0.27,0.18,0.42,0.509,0.27,0.809L50,175.229
			c-0.15,0.269-0.479,0.3-0.72,0.209c0,0-1.351-0.628-2.49-0.628c-0.72,0-1.02,0.3-1.02,0.688c0,0.539,0.54,0.719,1.649,1.167
			c2.311,0.897,4.05,1.885,4.05,4.219c0,1.975-1.739,3.649-4.77,3.649c-1.979,0-3.36-0.629-3.99-1.107
			C42.53,183.277,42.41,183.037,42.53,182.798z"/>
		<path fill="#5D616B" d="M54.74,175.408h-1.02c-0.301,0-0.54-0.269-0.54-0.567v-2.006c0-0.329,0.239-0.567,0.54-0.567h1.02v-3.32
			c0-0.3,0.27-0.568,0.57-0.568l2.46-0.03c0.3,0,0.54,0.27,0.54,0.568v3.351h2.64c0.33,0,0.569,0.238,0.569,0.567v2.006
			c0,0.299-0.239,0.567-0.569,0.567h-2.64v4.788c0,0.837,0.449,0.956,0.93,0.956c0.51,0,1.14-0.209,1.47-0.329
			c0.33-0.119,0.57,0.031,0.66,0.329l0.6,1.885c0.12,0.3-0.03,0.599-0.33,0.718c-0.149,0.09-2.1,0.778-3.569,0.778
			c-2.311,0-3.33-1.437-3.33-3.859V175.408z"/>
		<path fill="#5D616B" d="M64.46,172.835c0-0.329,0.27-0.567,0.57-0.567h1.14c0.27,0,0.45,0.149,0.54,0.389l0.42,1.167
			c0.42-0.599,1.53-1.854,3.39-1.854c1.41,0,2.67,0.448,2.31,1.196l-1.109,1.945c-0.15,0.269-0.45,0.388-0.69,0.269
			c-0.09-0.03-0.54-0.179-0.87-0.179c-1.199,0-1.92,0.807-2.13,1.226v7.24c0,0.418-0.27,0.567-0.689,0.567h-2.31
			c-0.301,0-0.57-0.269-0.57-0.567V172.835z"/>
		<path fill="#5D616B" d="M79.819,171.969c3.391,0,6.15,2.872,6.15,6.252c0,3.439-2.76,6.312-6.15,6.312
			c-3.39,0-6.149-2.873-6.149-6.312C73.67,174.841,76.43,171.969,79.819,171.969z M79.819,181.302c1.591,0,2.88-1.376,2.88-3.081
			c0-1.675-1.289-3.021-2.88-3.021c-1.619,0-2.88,1.346-2.88,3.021C76.939,179.926,78.2,181.302,79.819,181.302z"/>
		<path fill="#5D616B" d="M88.639,172.835c0-0.329,0.271-0.567,0.57-0.567h1.141c0.27,0,0.42,0.149,0.51,0.359l0.42,1.106
			c0.449-0.479,1.92-1.765,4.229-1.765c3.81,0,5.34,2.842,5.34,5.953v5.744c0,0.299-0.271,0.567-0.569,0.567h-2.461
			c-0.33,0-0.569-0.269-0.569-0.567v-5.924c0-1.556-0.81-2.542-2.25-2.542c-1.56,0-2.521,1.077-2.819,1.883v6.583
			c0,0.418-0.181,0.567-0.75,0.567h-2.221c-0.3,0-0.57-0.269-0.57-0.567V172.835z"/>
		<path fill="#5D616B" d="M109.429,171.969c3.39,0,6.149,2.872,6.149,6.252c0,3.439-2.76,6.312-6.149,6.312
			s-6.149-2.873-6.149-6.312C103.279,174.841,106.039,171.969,109.429,171.969z M109.429,181.302c1.591,0,2.88-1.376,2.88-3.081
			c0-1.675-1.289-3.021-2.88-3.021c-1.62,0-2.88,1.346-2.88,3.021C106.549,179.926,107.809,181.302,109.429,181.302z"/>
		<path fill="#5D616B" d="M118.248,172.835c0-0.329,0.271-0.567,0.57-0.567h1.11c0.271,0,0.45,0.149,0.51,0.329l0.42,1.137
			c0.511-0.568,1.89-1.765,4.021-1.765c1.709,0,2.909,0.658,3.899,1.854c0.51-0.538,2.069-1.854,4.229-1.854
			c3.84,0,5.25,2.842,5.25,5.983v5.714c0,0.299-0.24,0.567-0.57,0.567h-2.43c-0.33,0-0.57-0.269-0.57-0.567v-5.924
			c0-1.556-0.75-2.542-2.25-2.542c-1.739,0-2.52,1.256-2.52,1.256s0.03,0.598,0.03,1.137v6.073c0,0.299-0.271,0.567-0.569,0.567
			h-2.25c-0.33,0-0.57-0.269-0.57-0.567v-5.924c0-1.556-0.69-2.542-2.221-2.542c-1.5,0-2.219,1.077-2.52,1.883v6.583
			c0,0.299-0.27,0.567-0.57,0.567h-2.43c-0.3,0-0.57-0.269-0.57-0.567V172.835z"/>
		<path fill="#5D616B" d="M139.908,173.046c-0.18-0.39,0.061-0.778,0.511-0.778h2.7c0.27,0,0.42,0.149,0.51,0.329l3.029,6.762h0.03
			l3-6.762c0.149-0.299,0.36-0.329,0.72-0.329h2.4c0.48,0,0.72,0.389,0.51,0.778l-9.18,19.805c-0.09,0.179-0.27,0.357-0.51,0.357
			h-2.58c-0.449,0-0.72-0.388-0.51-0.808l4.26-9.005L139.908,173.046z"/>
	</g>
	
		<image overflow="visible" width="2500" height="2000" xlink:href="../Game Hack/astronomy.jpg"  transform="matrix(0.07 0 0 0.0698 0 0)">
	</image>
</g>
</svg>
