<?xml version="1.0" encoding="utf-8"?>
<!-- Generator: Adobe Illustrator 16.0.0, SVG Export Plug-In . SVG Version: 6.00 Build 0)  -->
<!DOCTYPE svg PUBLIC "-//W3C//DTD SVG 1.1//EN" "http://www.w3.org/Graphics/SVG/1.1/DTD/svg11.dtd">
<svg version="1.1" id="Layer_1" xmlns="http://www.w3.org/2000/svg" xmlns:xlink="http://www.w3.org/1999/xlink" x="0px" y="0px"
	 width="175px" height="214px" viewBox="0 0 175 214" enable-background="new 0 0 175 214" xml:space="preserve">
<g>
	<g>
		<rect y="0.262" fill="#D5D9E3" width="175" height="213.738"/>
	</g>
	
		<image overflow="visible" width="2500" height="2000" xlink:href="../Game Hack/biology.jpg"  transform="matrix(0.07 0 0 0.0699 0 0)">
	</image>
	<g>
		<path fill="#5D616B" d="M46.07,163.783c0-0.3,0.24-0.569,0.57-0.569h6.869c3.57,0,6.33,2.396,6.33,5.542
			c0,2.309-1.89,4.105-3.3,4.765c1.59,0.51,3.899,2.128,3.899,4.884c0,3.355-2.88,5.782-6.539,5.782h-7.26
			c-0.33,0-0.57-0.269-0.57-0.568V163.783z M53.15,172.021c1.529,0,2.58-1.197,2.58-2.695s-1.051-2.547-2.58-2.547h-3.21v5.242
			H53.15z M53.57,180.652c1.5,0,2.7-1.169,2.7-2.728c0-1.498-1.5-2.606-3.061-2.606h-3.27v5.334H53.57z"/>
		<path fill="#5D616B" d="M62.87,165.881c0-1.139,0.899-2.067,2.04-2.067c1.17,0,2.1,0.929,2.1,2.067c0,1.138-0.93,2.067-2.1,2.067
			C63.77,167.948,62.87,167.019,62.87,165.881z M63.14,172.771c0-0.329,0.271-0.568,0.57-0.568h2.49c0.3,0,0.569,0.239,0.569,0.568
			v10.848c0,0.3-0.27,0.568-0.569,0.568h-2.49c-0.3,0-0.57-0.269-0.57-0.568V172.771z"/>
		<path fill="#5D616B" d="M75.59,171.903c3.39,0,6.149,2.876,6.149,6.262c0,3.444-2.76,6.322-6.149,6.322s-6.149-2.878-6.149-6.322
			C69.44,174.779,72.2,171.903,75.59,171.903z M75.59,181.251c1.59,0,2.88-1.378,2.88-3.086c0-1.678-1.29-3.026-2.88-3.026
			c-1.62,0-2.88,1.349-2.88,3.026C72.71,179.873,73.97,181.251,75.59,181.251z"/>
		<path fill="#5D616B" d="M84.409,163.783c0-0.3,0.271-0.569,0.57-0.569h2.52c0.3,0,0.57,0.27,0.57,0.569v19.835
			c0,0.3-0.271,0.568-0.57,0.568h-2.52c-0.3,0-0.57-0.269-0.57-0.568V163.783z"/>
		<path fill="#5D616B" d="M96.889,171.903c3.391,0,6.15,2.876,6.15,6.262c0,3.444-2.76,6.322-6.15,6.322
			c-3.39,0-6.149-2.878-6.149-6.322C90.739,174.779,93.499,171.903,96.889,171.903z M96.889,181.251c1.59,0,2.88-1.378,2.88-3.086
			c0-1.678-1.29-3.026-2.88-3.026c-1.619,0-2.88,1.349-2.88,3.026C94.009,179.873,95.27,181.251,96.889,181.251z"/>
		<path fill="#5D616B" d="M106.699,179.932c0,0-0.9-1.018-0.9-2.815c0-2.786,2.25-5.213,5.22-5.213h5.46
			c0.33,0,0.57,0.239,0.57,0.569v0.988c0,0.209-0.121,0.449-0.33,0.51l-1.681,0.538c0,0,1.2,0.929,1.2,3.057
			c0,2.366-1.98,4.704-5.13,4.704c-1.14,0-1.92-0.24-2.399-0.24c-0.42,0-1.11,0.42-1.11,1.139c0,0.63,0.54,1.019,1.2,1.019h3.84
			c2.729,0,4.949,1.559,4.949,4.195c0,2.757-2.22,5.095-6.569,5.095c-4.44,0-6.12-2.188-6.12-4.105c0-1.798,1.5-2.667,1.801-2.848
			v-0.09c-0.511-0.148-2.25-0.957-2.25-3.146C104.449,180.951,106.699,179.932,106.699,179.932z M110.988,190.479
			c1.68,0,2.79-0.749,2.79-1.888c0-0.54-0.42-1.469-2.19-1.469c-0.66,0-1.319,0.03-1.949,0.12c-0.36,0.119-1.29,0.539-1.29,1.468
			C108.349,189.76,109.369,190.479,110.988,190.479z M111.108,179.423c1.229,0,2.069-0.899,2.069-2.157
			c0-1.259-0.84-2.157-2.069-2.157c-1.2,0-2.101,0.898-2.101,2.157C109.008,178.523,109.908,179.423,111.108,179.423z"/>
		<path fill="#5D616B" d="M118.008,172.981c-0.18-0.39,0.061-0.779,0.511-0.779h2.7c0.27,0,0.42,0.149,0.51,0.33l3.029,6.771h0.03
			l3-6.771c0.149-0.3,0.36-0.33,0.72-0.33h2.4c0.48,0,0.72,0.39,0.51,0.779l-9.18,19.835c-0.09,0.18-0.27,0.359-0.51,0.359h-2.58
			c-0.449,0-0.72-0.39-0.51-0.81l4.26-9.019L118.008,172.981z"/>
	</g>
</g>
</svg>
