<?xml version="1.0" encoding="utf-8"?>
<!-- Generator: Adobe Illustrator 16.0.0, SVG Export Plug-In . SVG Version: 6.00 Build 0)  -->
<!DOCTYPE svg PUBLIC "-//W3C//DTD SVG 1.1//EN" "http://www.w3.org/Graphics/SVG/1.1/DTD/svg11.dtd">
<svg version="1.1" id="Layer_1" xmlns="http://www.w3.org/2000/svg" xmlns:xlink="http://www.w3.org/1999/xlink" x="0px" y="0px"
	 width="714px" height="105px" viewBox="0 0 714 105" enable-background="new 0 0 714 105" xml:space="preserve">
<g>
	<g id="Recent">
		<g>
			<rect x="-0.245" fill="#EF5A4D" width="238.333" height="105"/>
		</g>
		<g>
			<path fill="#FFFFFF" d="M58.359,36.853c0-0.36,0.286-0.684,0.68-0.684h10.225c4.291,0,7.795,3.456,7.795,7.739
				c0,3.312-2.181,6.011-5.292,7.271l4.898,9.143c0.25,0.468,0,1.044-0.608,1.044h-3.754c-0.322,0-0.501-0.18-0.572-0.324
				l-4.755-9.539h-3.969v9.179c0,0.359-0.322,0.684-0.68,0.684h-3.289c-0.394,0-0.68-0.324-0.68-0.684V36.853z M68.871,47.651
				c1.895,0,3.54-1.656,3.54-3.671c0-1.908-1.645-3.492-3.54-3.492h-5.828v7.163H68.871z"/>
			<path fill="#FFFFFF" d="M86.173,46.607c3.683,0,6.686,2.808,6.686,6.696c0,0.252-0.036,0.719-0.071,0.971
				c-0.037,0.361-0.358,0.613-0.68,0.613h-9.154c0.108,1.475,1.359,3.131,3.433,3.131c1.109,0,2.146-0.432,2.789-0.9
				c0.358-0.215,0.68-0.287,0.93,0l1.466,1.692c0.25,0.252,0.322,0.647-0.036,0.937c-1.179,1.115-3.003,1.979-5.328,1.979
				c-4.291,0-7.33-3.419-7.33-7.559C78.879,50.099,81.918,46.607,86.173,46.607z M88.676,52.366
				c-0.107-1.332-1.251-2.448-2.61-2.448c-1.43,0-2.61,1.08-2.789,2.448H88.676z"/>
			<path fill="#FFFFFF" d="M102.368,46.607c2.217,0,3.933,0.9,5.292,2.556c0.25,0.324,0.179,0.756-0.179,1.008l-1.645,1.584
				c-0.322,0.288-0.644,0.108-0.894-0.108c-0.572-0.648-1.466-1.152-2.466-1.152c-1.931,0-3.505,1.656-3.505,3.671
				c0,2.052,1.539,3.672,3.469,3.672c1.538,0,2.217-0.756,2.86-1.368c0.25-0.252,0.608-0.323,0.894-0.108l1.537,1.332
				c0.358,0.288,0.501,0.648,0.25,1.008c-1.215,1.908-3.111,3.023-5.649,3.023c-4.04,0-7.58-3.239-7.58-7.559
				C94.751,49.918,98.363,46.607,102.368,46.607z"/>
			<path fill="#FFFFFF" d="M117.311,46.607c3.683,0,6.687,2.808,6.687,6.696c0,0.252-0.036,0.719-0.072,0.971
				c-0.035,0.361-0.357,0.613-0.679,0.613h-9.153c0.106,1.475,1.358,3.131,3.432,3.131c1.108,0,2.145-0.432,2.79-0.9
				c0.356-0.215,0.678-0.287,0.929,0l1.466,1.692c0.25,0.252,0.322,0.647-0.035,0.937c-1.18,1.115-3.004,1.979-5.328,1.979
				c-4.291,0-7.33-3.419-7.33-7.559C110.017,50.099,113.056,46.607,117.311,46.607z M119.814,52.366
				c-0.107-1.332-1.252-2.448-2.61-2.448c-1.431,0-2.61,1.08-2.789,2.448H119.814z"/>
			<path fill="#FFFFFF" d="M126.998,47.651c0-0.396,0.322-0.684,0.68-0.684h1.358c0.322,0,0.501,0.18,0.608,0.432l0.5,1.332
				c0.537-0.576,2.288-2.124,5.042-2.124c4.541,0,6.364,3.42,6.364,7.163v6.912c0,0.359-0.322,0.684-0.68,0.684h-2.932
				c-0.393,0-0.68-0.324-0.68-0.684v-7.127c0-1.872-0.965-3.06-2.682-3.06c-1.859,0-3.003,1.296-3.361,2.268v7.919
				c0,0.504-0.214,0.684-0.894,0.684h-2.645c-0.358,0-0.68-0.324-0.68-0.684V47.651z"/>
			<path fill="#FFFFFF" d="M146.196,50.747h-1.216c-0.357,0-0.644-0.324-0.644-0.684v-2.412c0-0.396,0.287-0.684,0.644-0.684h1.216
				v-3.995c0-0.36,0.322-0.684,0.68-0.684l2.932-0.036c0.358,0,0.644,0.324,0.644,0.684v4.031h3.147
				c0.393,0,0.679,0.288,0.679,0.684v2.412c0,0.36-0.286,0.684-0.679,0.684h-3.147v5.759c0,1.008,0.537,1.152,1.109,1.152
				c0.607,0,1.358-0.252,1.751-0.396s0.68,0.036,0.787,0.396l0.715,2.268c0.143,0.359-0.036,0.72-0.393,0.863
				c-0.179,0.108-2.503,0.936-4.255,0.936c-2.754,0-3.969-1.727-3.969-4.643V50.747z"/>
		</g>
	</g>
	<g id="Popular">
		<g>
			<rect x="238.255" fill="#FDC010" width="238" height="105"/>
		</g>
		<g>
			<path fill="#FFFFFF" d="M306.257,36.375c0-0.36,0.286-0.684,0.679-0.684h8.391c4.392,0,7.998,3.6,7.998,7.955
				c0,4.463-3.606,8.099-7.962,8.099H310.9v8.458c0,0.361-0.322,0.685-0.679,0.685h-3.285c-0.393,0-0.679-0.323-0.679-0.685V36.375z
				 M315.042,47.354c1.999,0,3.678-1.62,3.678-3.744c0-1.98-1.679-3.492-3.678-3.492H310.9v7.235H315.042z"/>
			<path fill="#FFFFFF" d="M331.284,46.129c4.035,0,7.32,3.456,7.32,7.523c0,4.14-3.285,7.596-7.32,7.596
				c-4.034,0-7.319-3.456-7.319-7.596C323.964,49.585,327.25,46.129,331.284,46.129z M331.284,57.36
				c1.893,0,3.428-1.656,3.428-3.708c0-2.016-1.535-3.635-3.428-3.635c-1.928,0-3.428,1.62-3.428,3.635
				C327.856,55.704,329.356,57.36,331.284,57.36z"/>
			<path fill="#FFFFFF" d="M346.17,71.002c0,0.433-0.214,0.685-0.856,0.685h-2.856c-0.357,0-0.679-0.324-0.679-0.685V47.173
				c0-0.396,0.321-0.684,0.679-0.684h1.393c0.25,0,0.499,0.144,0.606,0.432l0.464,1.188c0.536-0.72,2.285-1.98,4.606-1.98
				c3.928,0,6.892,3.42,6.892,7.559c0,4.247-3.214,7.56-7.07,7.56c-1.393,0-2.678-0.504-3.178-0.793V71.002z M348.777,57.36
				c2,0,3.464-1.656,3.464-3.672s-1.357-3.671-3.321-3.671c-1.82,0-2.713,1.44-2.928,2.196v4.319
				C345.992,56.532,346.992,57.36,348.777,57.36z"/>
			<path fill="#FFFFFF" d="M359.378,47.173c0-0.396,0.322-0.684,0.679-0.684h2.928c0.357,0,0.679,0.288,0.679,0.684v7.091
				c0,1.907,0.964,3.096,2.606,3.096c1.499,0,2.642-1.403,2.856-2.7v-7.487c0-0.54,0.214-0.684,0.785-0.684h2.714
				c0.356,0,0.679,0.288,0.679,0.684v13.03c0,0.361-0.322,0.685-0.679,0.685h-1.321c-0.357,0-0.571-0.252-0.678-0.54l-0.429-1.188
				c-0.644,0.576-1.964,2.088-4.784,2.088c-4.428,0-6.035-3.42-6.035-7.092V47.173z"/>
			<path fill="#FFFFFF" d="M377.585,36.375c0-0.36,0.321-0.684,0.678-0.684h3c0.357,0,0.678,0.324,0.678,0.684v23.828
				c0,0.361-0.32,0.685-0.678,0.685h-3c-0.356,0-0.678-0.323-0.678-0.685V36.375z"/>
			<path fill="#FFFFFF" d="M390.902,51.781c1.428,0,2.606,0.396,2.606,0.396c0.036-1.836-0.536-2.484-1.856-2.484
				c-1.321,0-3.178,0.288-3.999,0.54c-0.5,0.144-0.75-0.18-0.821-0.648l-0.321-1.872c-0.107-0.54,0.179-0.792,0.499-0.9
				c0.286-0.108,2.571-0.684,4.856-0.684c4.464,0,5.499,2.34,5.499,6.263v7.811c0,0.361-0.322,0.685-0.679,0.685h-1.285
				c-0.25,0-0.429-0.108-0.607-0.504l-0.429-0.972c-0.82,0.756-2.142,1.836-4.355,1.836c-2.856,0-4.82-1.872-4.82-4.932
				C385.189,53.761,387.259,51.781,390.902,51.781z M390.973,58.188c1.143,0,2.249-0.971,2.464-1.403v-1.979
				c0,0-0.965-0.432-2-0.432c-1.393,0-2.32,0.791-2.32,1.943C389.117,57.396,389.867,58.188,390.973,58.188z"/>
			<path fill="#FFFFFF" d="M401.468,47.173c0-0.396,0.321-0.684,0.678-0.684h1.357c0.321,0,0.535,0.18,0.643,0.468l0.5,1.404
				c0.5-0.72,1.82-2.232,4.035-2.232c1.678,0,3.178,0.54,2.748,1.44l-1.32,2.34c-0.179,0.324-0.535,0.468-0.821,0.324
				c-0.107-0.036-0.643-0.216-1.036-0.216c-1.428,0-2.285,0.972-2.535,1.476v8.71c0,0.504-0.32,0.685-0.82,0.685h-2.75
				c-0.356,0-0.678-0.323-0.678-0.685V47.173z"/>
		</g>
	</g>
	<g id="Friends">
		<g>
			<rect x="476.244" fill="#59C1A7" width="238" height="105"/>
		</g>
		<g>
			<path fill="#FFFFFF" d="M545.924,36.375c0-0.36,0.286-0.684,0.679-0.684h14.532c0.393,0,0.679,0.324,0.679,0.684v2.951
				c0,0.36-0.286,0.684-0.679,0.684h-10.569v6.767h8.819c0.357,0,0.679,0.324,0.679,0.684v2.952c0,0.36-0.321,0.684-0.679,0.684
				h-8.819v9.106c0,0.361-0.321,0.685-0.678,0.685h-3.285c-0.393,0-0.679-0.323-0.679-0.685V36.375z"/>
			<path fill="#FFFFFF" d="M563.917,47.173c0-0.396,0.321-0.684,0.678-0.684h1.357c0.321,0,0.535,0.18,0.643,0.468l0.5,1.404
				c0.5-0.72,1.82-2.232,4.034-2.232c1.679,0,3.178,0.54,2.75,1.44l-1.321,2.34c-0.179,0.324-0.536,0.468-0.821,0.324
				c-0.107-0.036-0.643-0.216-1.035-0.216c-1.429,0-2.285,0.972-2.535,1.476v8.71c0,0.504-0.321,0.685-0.821,0.685h-2.75
				c-0.356,0-0.678-0.323-0.678-0.685V47.173z"/>
			<path fill="#FFFFFF" d="M575.77,38.895c0-1.368,1.071-2.484,2.428-2.484c1.393,0,2.499,1.116,2.499,2.484
				s-1.106,2.483-2.499,2.483C576.841,41.378,575.77,40.262,575.77,38.895z M576.091,47.173c0-0.396,0.321-0.684,0.678-0.684h2.964
				c0.357,0,0.679,0.288,0.679,0.684v13.03c0,0.361-0.321,0.685-0.679,0.685h-2.964c-0.356,0-0.678-0.323-0.678-0.685V47.173z"/>
			<path fill="#FFFFFF" d="M590.908,46.129c3.678,0,6.677,2.808,6.677,6.695c0,0.251-0.036,0.72-0.071,0.972
				c-0.036,0.359-0.357,0.611-0.679,0.611h-9.141c0.107,1.477,1.356,3.132,3.428,3.132c1.106,0,2.143-0.432,2.785-0.899
				c0.356-0.217,0.679-0.289,0.929,0l1.464,1.691c0.249,0.252,0.321,0.648-0.036,0.936c-1.179,1.116-2.999,1.98-5.32,1.98
				c-4.284,0-7.319-3.42-7.319-7.56C583.624,49.621,586.659,46.129,590.908,46.129z M593.407,51.889
				c-0.107-1.332-1.25-2.448-2.606-2.448c-1.429,0-2.606,1.08-2.785,2.448H593.407z"/>
			<path fill="#FFFFFF" d="M600.581,47.173c0-0.396,0.321-0.684,0.678-0.684h1.357c0.321,0,0.5,0.18,0.606,0.432l0.5,1.332
				c0.536-0.576,2.285-2.124,5.035-2.124c4.534,0,6.355,3.42,6.355,7.164v6.91c0,0.361-0.321,0.685-0.679,0.685h-2.928
				c-0.393,0-0.679-0.323-0.679-0.685v-7.127c0-1.871-0.964-3.059-2.678-3.059c-1.856,0-2.999,1.296-3.356,2.268v7.918
				c0,0.504-0.214,0.685-0.893,0.685h-2.643c-0.356,0-0.678-0.323-0.678-0.685V47.173z"/>
			<path fill="#FFFFFF" d="M625.107,46.129c1.429,0,2.535,0.396,3.178,0.648V36.375c0-0.36,0.321-0.684,0.679-0.684h3.035
				c0.356,0,0.679,0.324,0.679,0.684v23.828c0,0.361-0.322,0.685-0.679,0.685h-1.393c-0.321,0-0.571-0.288-0.679-0.685l-0.356-1.115
				c0,0-1.679,2.16-4.678,2.16c-3.892,0-6.855-3.42-6.855-7.56C618.038,49.477,620.858,46.129,625.107,46.129z M625.428,57.36
				c1.893,0,2.75-1.476,3-2.34v-4.176c0,0-1-0.828-2.785-0.828c-2,0-3.464,1.656-3.464,3.671S623.537,57.36,625.428,57.36z"/>
			<path fill="#FFFFFF" d="M636.173,59.16l0.965-1.943c0.143-0.36,0.499-0.433,0.82-0.252c0,0,1.607,0.863,3.25,0.863
				c0.714,0,1.214-0.288,1.214-0.9c0-0.647-0.5-1.043-2.393-1.799c-2.749-1.08-4.034-2.556-4.034-4.752s1.606-4.248,5.248-4.248
				c2.106,0,3.643,0.612,4.392,1.116c0.321,0.216,0.5,0.612,0.321,0.972l-0.893,1.836c-0.178,0.324-0.571,0.36-0.856,0.252
				c0,0-1.606-0.756-2.964-0.756c-0.856,0-1.214,0.36-1.214,0.828c0,0.648,0.643,0.864,1.964,1.404
				c2.749,1.08,4.82,2.268,4.82,5.076c0,2.376-2.071,4.392-5.677,4.392c-2.357,0-3.999-0.756-4.749-1.332
				C636.173,59.736,636.031,59.447,636.173,59.16z"/>
		</g>
	</g>
</g>
</svg>
