<?xml version="1.0" encoding="utf-8"?>
<!-- Generator: Adobe Illustrator 16.0.0, SVG Export Plug-In . SVG Version: 6.00 Build 0)  -->
<!DOCTYPE svg PUBLIC "-//W3C//DTD SVG 1.1//EN" "http://www.w3.org/Graphics/SVG/1.1/DTD/svg11.dtd">
<svg version="1.1" id="Layer_1" xmlns="http://www.w3.org/2000/svg" xmlns:xlink="http://www.w3.org/1999/xlink" x="0px" y="0px"
	 width="237.168px" height="100px" viewBox="0 0 237.168 100" enable-background="new 0 0 237.168 100" xml:space="preserve">
<g>
	<defs>
		<rect id="SVGID_1_" y="-0.615" width="237.251" height="101.23"/>
	</defs>
	<clipPath id="SVGID_2_">
		<use xlink:href="#SVGID_1_"  overflow="visible"/>
	</clipPath>
	<g clip-path="url(#SVGID_2_)">
		<rect id="PanelBG" y="-0.063" fill="#5D616B" width="1024" height="100"/>
		<rect id="PanelBorderTop" y="-0.063" fill="#2A2F39" width="1024" height="10"/>
		<g>
			<path fill="#FFFFFF" d="M99.511,39.757c0-0.36,0.288-0.685,0.685-0.685h8.243c4.283,0,7.595,2.88,7.595,6.659
				c0,2.772-2.268,4.932-3.96,5.724c1.908,0.612,4.68,2.556,4.68,5.867c0,4.031-3.455,6.947-7.847,6.947h-8.711
				c-0.396,0-0.685-0.324-0.685-0.684V39.757z M108.006,49.655c1.836,0,3.096-1.439,3.096-3.239s-1.26-3.06-3.096-3.06h-3.852v6.299
				H108.006z M108.51,60.022c1.8,0,3.24-1.404,3.24-3.276c0-1.8-1.8-3.131-3.672-3.131h-3.924v6.407H108.51z"/>
			<path fill="#FFFFFF" d="M119.995,50.556c0-0.396,0.324-0.685,0.684-0.685h1.368c0.324,0,0.54,0.181,0.647,0.468l0.504,1.404
				c0.504-0.72,1.836-2.231,4.067-2.231c1.692,0,3.204,0.54,2.772,1.439l-1.332,2.34c-0.181,0.324-0.54,0.468-0.828,0.324
				c-0.108-0.036-0.647-0.217-1.044-0.217c-1.439,0-2.304,0.973-2.556,1.477v8.711c0,0.504-0.324,0.684-0.828,0.684h-2.771
				c-0.359,0-0.684-0.324-0.684-0.684V50.556z"/>
			<path fill="#FFFFFF" d="M138.426,49.512c4.067,0,7.38,3.455,7.38,7.522c0,4.14-3.312,7.596-7.38,7.596s-7.379-3.456-7.379-7.596
				C131.047,52.967,134.358,49.512,138.426,49.512z M138.426,60.742c1.908,0,3.456-1.656,3.456-3.708
				c0-2.016-1.548-3.636-3.456-3.636c-1.943,0-3.455,1.62-3.455,3.636C134.971,59.086,136.482,60.742,138.426,60.742z"/>
			<path fill="#FFFFFF" d="M147.499,50.699c-0.216-0.468,0.107-0.828,0.611-0.828h2.592c0.216,0,0.576,0.181,0.648,0.433
				l2.159,6.442h0.036l3.672-6.911c0.071-0.144,0.252-0.323,0.575-0.323h0.288c0.324,0,0.469,0.144,0.576,0.323l3.636,6.911h0.036
				l2.159-6.442c0.145-0.396,0.433-0.433,0.828-0.433h2.34c0.504,0,0.828,0.36,0.647,0.828l-4.499,13.534
				c-0.072,0.216-0.288,0.396-0.647,0.396h-0.145c-0.288,0-0.468-0.145-0.576-0.324l-4.535-8.387h-0.036l-4.499,8.387
				c-0.108,0.18-0.288,0.324-0.576,0.324h-0.18c-0.324,0-0.54-0.181-0.612-0.396L147.499,50.699z"/>
			<path fill="#FFFFFF" d="M170.395,62.542l0.972-1.944c0.145-0.359,0.504-0.432,0.828-0.252c0,0,1.62,0.864,3.275,0.864
				c0.72,0,1.224-0.288,1.224-0.9c0-0.647-0.504-1.043-2.411-1.8c-2.771-1.079-4.067-2.556-4.067-4.751s1.619-4.247,5.291-4.247
				c2.124,0,3.672,0.611,4.428,1.115c0.323,0.216,0.504,0.612,0.323,0.973l-0.899,1.835c-0.18,0.324-0.576,0.36-0.864,0.252
				c0,0-1.619-0.756-2.987-0.756c-0.864,0-1.224,0.36-1.224,0.828c0,0.648,0.647,0.864,1.979,1.404
				c2.771,1.079,4.859,2.268,4.859,5.075c0,2.375-2.088,4.392-5.724,4.392c-2.375,0-4.031-0.756-4.787-1.332
				C170.395,63.117,170.25,62.83,170.395,62.542z"/>
			<path fill="#FFFFFF" d="M190.554,49.512c3.707,0,6.731,2.808,6.731,6.695c0,0.252-0.036,0.72-0.072,0.972
				c-0.036,0.359-0.36,0.611-0.685,0.611h-9.215c0.108,1.477,1.368,3.132,3.456,3.132c1.116,0,2.16-0.432,2.808-0.899
				c0.36-0.217,0.684-0.288,0.936,0l1.477,1.691c0.252,0.252,0.323,0.647-0.036,0.936c-1.188,1.116-3.023,1.98-5.363,1.98
				c-4.319,0-7.379-3.42-7.379-7.56C183.211,53.003,186.271,49.512,190.554,49.512z M193.073,55.271
				c-0.108-1.332-1.26-2.447-2.628-2.447c-1.439,0-2.627,1.079-2.808,2.447H193.073z"/>
		</g>
		<text transform="matrix(1 0 0 1 309.667 63.2686)" fill="#FFFFFF" font-family="'BrandonGrotesque-Bold'" font-size="36">Request</text>
		<text transform="matrix(1 0 0 1 577.667 64.2695)" fill="#FFFFFF" font-family="'BrandonGrotesque-Bold'" font-size="36">Create</text>
		<g id="FindIcon">
			<g id="XMLID_3_">
				<g>
					<g id="XMLID_4_">
						<g>
							<path fill="#59C1A7" d="M44.849,68.3l-1.314-1.318c-0.938-0.936-1.332-2.068-0.863-2.524l8.828-8.826
								c-1.436-2.329-2.267-5.077-2.267-8.026c0-8.433,6.846-15.281,15.28-15.281c8.449,0,15.281,6.849,15.281,15.281
								c0,8.448-6.832,15.297-15.281,15.297c-3.1,0-5.971-0.922-8.373-2.493l-8.767,8.766C46.919,69.628,45.786,69.235,44.849,68.3z
								 M64.513,57.822c5.639,0,10.219-4.579,10.219-10.218s-4.58-10.203-10.219-10.203c-5.638,0-10.203,4.564-10.203,10.203
								C54.31,53.244,58.875,57.822,64.513,57.822z"/>
						</g>
					</g>
				</g>
			</g>
			<circle fill="#FFFFFF" cx="64.668" cy="47.271" r="10.552"/>
		</g>
		<g id="RequestIcon">
			<path fill="#FDC010" d="M287.093,37.683c-2.088-4.202-6.356-5.628-9.029-5.628c-2.674,0-6.952,1.426-9.04,5.628
				c-2.089,4.203-0.407,8.1,1.63,10.697c2.038,2.597,2.344,3.744,2.471,4.38c0.127,0.637-0.281,1.63,0.497,2.317
				c0.778,0.688,4.442,0.79,4.442,0.79s3.65-0.102,4.43-0.79c0.777-0.688,0.363-1.682,0.49-2.317c0.128-0.636,0.43-1.783,2.468-4.38
				C287.489,45.782,289.181,41.886,287.093,37.683z"/>
			<path fill="#59C1A7" d="M282.771,59.032c-0.1-0.419-0.523-0.696-0.883-0.611v-0.004c-1.438,0.38-3.773,0.375-3.773,0.375
				s-2.127,0.005-3.749-0.375l-0.015,0.004c-0.48-0.085-0.846,0.192-0.945,0.611c-0.104,0.438,0.15,0.875,0.588,0.979
				c0.037,0.007,0.072,0.015,0.109,0.019c1.807,0.395,3.866,0.388,3.956,0.387c0.089,0.001,2.149,0.008,3.954-0.387
				c0.037-0.004,0.103-0.011,0.14-0.019C282.591,59.907,282.875,59.47,282.771,59.032z"/>
			<path fill="#59C1A7" d="M282.733,62.81c-0.1-0.42-0.457-0.695-0.938-0.612l-0.002-0.003c-1.622,0.381-3.718,0.375-3.718,0.375
				s-2.099,0.006-3.72-0.375l-0.002,0.003c-0.479-0.083-0.837,0.192-0.938,0.612c-0.104,0.438,0.152,0.874,0.591,0.979
				c0.038,0.009,0.075,0.017,0.112,0.02c1.806,0.396,3.866,0.387,3.956,0.387c0.089,0,2.149,0.009,3.955-0.387
				c0.036-0.003,0.074-0.01,0.111-0.02C282.58,63.684,282.837,63.247,282.733,62.81z"/>
			<path fill="#59C1A7" d="M282.044,66.293c-0.129-0.354-0.516-0.607-0.875-0.534v-0.002c-1.079,0.332-3.17,0.318-3.17,0.318
				s-1.777,0.014-3.195-0.318l0.014,0.002c-0.42-0.073-0.686,0.181-0.814,0.534c-0.312,0.863,1.548,2.018,4.02,2.018
				C280.511,68.312,282.355,67.156,282.044,66.293z"/>
		</g>
		<g id="CreateIcon">
			<path fill="#F9BAA8" d="M553.936,41.168l-2.215,1.402l-4.351-6.767l2.212-1.405c0.771-0.487,1.704-0.402,2.087,0.195l2.964,4.61
				C555.019,39.8,554.703,40.679,553.936,41.168z"/>
			<path fill="#F8DD8E" d="M524.521,54.598c-0.14,0.304-0.176,0.468-0.118,0.551c0.338,0.491,8.385-1.003,9.821-1.574
				c-2.593,0.174-5.562-4.469-4.275-6.61C528.841,47.948,525.221,53.097,524.521,54.598z"/>
			<path fill="#EF5A4D" d="M524.351,54.964c-0.096,0.237-0.122,0.363-0.091,0.433c0.19,0.396,5.143-0.572,6.037-0.986
				c-1.586,0.071-3.238-3.666-2.383-5.319C527.206,49.836,524.827,53.802,524.351,54.964z"/>
			<path fill="#FDC010" d="M538.133,53.969l-0.027,3.581h-4.474c-1.094,0-1.983,0.883-1.983,1.971v4.311h-12.742
				c-1.689,0-3.065-1.719-3.065-3.83V40.308c0-2.109,1.376-3.829,3.065-3.829h16.115c2.173,0.006,1.84,2.318,2.401,3.214
				l3.529-2.268c-0.805-3.242-3.074-5.07-5.931-5.07h-16.114c-3.51-0.001-6.365,3.569-6.365,7.953v19.693
				c0,4.388,2.855,7.955,6.365,7.955h14.956l7.523-9.022l-0.131-6.931L538.133,53.969z"/>
			<path fill="#EF5A4D" d="M532.083,45.507c-1.624,2.1,1.641,7.219,4.352,6.769l13.322-8.457l-4.352-6.768L532.083,45.507z"/>
		</g>
		<g id="PanelSpacer">
			<line fill="none" stroke="#2A2F39" stroke-width="3" stroke-miterlimit="10" x1="237.002" y1="99.937" x2="237.002" y2="9.937"/>
			<line fill="none" stroke="#2A2F39" stroke-width="3" stroke-miterlimit="10" x1="477.002" y1="100" x2="477.002" y2="10"/>
			<line fill="none" stroke="#2A2F39" stroke-width="3" stroke-miterlimit="10" x1="716.835" y1="99.937" x2="716.835" y2="9.937"/>
		</g>
		<rect fill="none" width="237.166" height="100"/>
	</g>
</g>
</svg>
