<?xml version="1.0" encoding="utf-8"?>
<!-- Generator: Adobe Illustrator 16.0.0, SVG Export Plug-In . SVG Version: 6.00 Build 0)  -->
<!DOCTYPE svg PUBLIC "-//W3C//DTD SVG 1.1//EN" "http://www.w3.org/Graphics/SVG/1.1/DTD/svg11.dtd">
<svg version="1.1" id="Layer_1" xmlns="http://www.w3.org/2000/svg" xmlns:xlink="http://www.w3.org/1999/xlink" x="0px" y="0px"
	 width="714px" height="105px" viewBox="0 0 714 105" enable-background="new 0 0 714 105" xml:space="preserve">
<g id="Category_Header">
	<g>
		<rect fill="#2753A1" width="714" height="105"/>
	</g>
	<g id="Category_Header_Shadow">
		<g>
			<rect y="95" fill="#1B2854" width="714" height="10"/>
		</g>
	</g>
	<g id="Category_5_">
		<path fill="#FFFFFF" d="M305.861,35.331c3.636,0,6.263,1.152,8.711,3.348c0.324,0.288,0.324,0.72,0.036,1.008l-2.196,2.268
			c-0.252,0.288-0.612,0.288-0.9,0c-1.512-1.332-3.527-2.124-5.543-2.124c-4.607,0-8.027,3.851-8.027,8.387
			c0,4.5,3.456,8.315,8.063,8.315c2.16,0,3.996-0.827,5.507-2.052c0.288-0.252,0.684-0.216,0.9,0l2.232,2.304
			c0.288,0.252,0.216,0.72-0.036,0.972c-2.448,2.376-5.543,3.492-8.747,3.492c-7.199,0-12.994-5.724-12.994-12.923
			S298.662,35.331,305.861,35.331z"/>
		<path fill="#FFFFFF" d="M322.603,51.781c1.44,0,2.628,0.396,2.628,0.396c0.036-1.836-0.54-2.484-1.872-2.484
			c-1.332,0-3.204,0.288-4.031,0.54c-0.504,0.144-0.756-0.18-0.828-0.648l-0.324-1.872c-0.108-0.54,0.18-0.792,0.504-0.9
			c0.288-0.108,2.592-0.684,4.896-0.684c4.5,0,5.543,2.34,5.543,6.263v7.811c0,0.361-0.324,0.685-0.684,0.685h-1.296
			c-0.252,0-0.432-0.108-0.612-0.504l-0.432-0.972c-0.828,0.756-2.16,1.836-4.392,1.836c-2.879,0-4.859-1.872-4.859-4.932
			C316.843,53.761,318.931,51.781,322.603,51.781z M322.675,58.188c1.152,0,2.268-0.971,2.483-1.403v-1.979
			c0,0-0.972-0.432-2.016-0.432c-1.404,0-2.34,0.791-2.34,1.943C320.803,57.396,321.559,58.188,322.675,58.188z"/>
		<path fill="#FFFFFF" d="M334.015,50.269h-1.224c-0.36,0-0.648-0.324-0.648-0.684v-2.412c0-0.396,0.288-0.684,0.648-0.684h1.224
			v-3.996c0-0.36,0.324-0.684,0.684-0.684l2.952-0.036c0.36,0,0.648,0.324,0.648,0.684v4.032h3.167c0.396,0,0.684,0.288,0.684,0.684
			v2.412c0,0.36-0.288,0.684-0.684,0.684h-3.167v5.759c0,1.008,0.54,1.151,1.116,1.151c0.612,0,1.368-0.252,1.764-0.396
			s0.684,0.036,0.792,0.396l0.72,2.268c0.144,0.36-0.036,0.721-0.396,0.865c-0.18,0.107-2.52,0.936-4.284,0.936
			c-2.771,0-3.996-1.729-3.996-4.645V50.269z"/>
		<path fill="#FFFFFF" d="M351.941,46.129c3.708,0,6.731,2.808,6.731,6.695c0,0.251-0.036,0.72-0.072,0.972
			c-0.036,0.359-0.36,0.611-0.685,0.611h-9.214c0.108,1.477,1.368,3.132,3.456,3.132c1.116,0,2.16-0.432,2.808-0.899
			c0.36-0.217,0.684-0.289,0.936,0l1.476,1.691c0.252,0.252,0.324,0.648-0.036,0.936c-1.188,1.116-3.023,1.98-5.363,1.98
			c-4.319,0-7.379-3.42-7.379-7.56C344.599,49.621,347.658,46.129,351.941,46.129z M354.461,51.889
			c-0.108-1.332-1.26-2.448-2.628-2.448c-1.44,0-2.627,1.08-2.808,2.448H354.461z"/>
		<path fill="#FFFFFF" d="M362.886,55.776c0,0-1.08-1.224-1.08-3.384c0-3.347,2.7-6.263,6.263-6.263h6.552
			c0.396,0,0.685,0.288,0.685,0.684v1.188c0,0.252-0.145,0.54-0.396,0.612l-2.016,0.648c0,0,1.439,1.116,1.439,3.671
			c0,2.844-2.375,5.651-6.154,5.651c-1.369,0-2.305-0.288-2.881-0.288c-0.504,0-1.332,0.504-1.332,1.368
			c0,0.756,0.648,1.224,1.44,1.224h4.607c3.276,0,5.939,1.872,5.939,5.04c0,3.311-2.663,6.119-7.884,6.119
			c-5.326,0-7.342-2.629-7.342-4.932c0-2.16,1.799-3.204,2.159-3.42v-0.107c-0.612-0.181-2.7-1.152-2.7-3.78
			C360.186,57,362.886,55.776,362.886,55.776z M368.033,68.447c2.016,0,3.348-0.9,3.348-2.268c0-0.648-0.504-1.765-2.628-1.765
			c-0.792,0-1.584,0.036-2.34,0.144c-0.432,0.145-1.548,0.648-1.548,1.765C364.865,67.583,366.09,68.447,368.033,68.447z
			 M368.178,55.164c1.475,0,2.482-1.08,2.482-2.591c0-1.512-1.008-2.592-2.482-2.592c-1.44,0-2.521,1.08-2.521,2.592
			C365.657,54.084,366.737,55.164,368.178,55.164z"/>
		<path fill="#FFFFFF" d="M384.593,46.129c4.067,0,7.38,3.456,7.38,7.523c0,4.14-3.312,7.596-7.38,7.596s-7.379-3.456-7.379-7.596
			C377.214,49.585,380.525,46.129,384.593,46.129z M384.593,57.36c1.907,0,3.456-1.655,3.456-3.708c0-2.016-1.549-3.635-3.456-3.635
			c-1.944,0-3.456,1.62-3.456,3.635C381.137,55.705,382.648,57.36,384.593,57.36z"/>
		<path fill="#FFFFFF" d="M395.177,47.173c0-0.396,0.324-0.684,0.685-0.684h1.367c0.324,0,0.54,0.18,0.648,0.468l0.504,1.404
			c0.504-0.72,1.836-2.232,4.066-2.232c1.692,0,3.204,0.54,2.772,1.44l-1.332,2.34c-0.181,0.324-0.54,0.468-0.827,0.324
			c-0.109-0.036-0.648-0.216-1.045-0.216c-1.439,0-2.303,0.972-2.555,1.476v8.71c0,0.504-0.324,0.685-0.828,0.685h-2.771
			c-0.36,0-0.685-0.323-0.685-0.685V47.173z"/>
		<path fill="#FFFFFF" d="M406.193,47.425c-0.217-0.468,0.071-0.936,0.611-0.936h3.24c0.323,0,0.504,0.18,0.611,0.396l3.635,8.135
			h0.037l3.6-8.135c0.18-0.36,0.432-0.396,0.863-0.396h2.88c0.575,0,0.864,0.468,0.612,0.936l-11.016,23.829
			c-0.107,0.217-0.323,0.433-0.611,0.433h-3.096c-0.54,0-0.863-0.468-0.611-0.972l5.111-10.835L406.193,47.425z"/>
	</g>
</g>
</svg>
