<?xml version="1.0" encoding="utf-8"?>
<!-- Generator: Adobe Illustrator 16.0.0, SVG Export Plug-In . SVG Version: 6.00 Build 0)  -->
<!DOCTYPE svg PUBLIC "-//W3C//DTD SVG 1.1//EN" "http://www.w3.org/Graphics/SVG/1.1/DTD/svg11.dtd">
<svg version="1.1" id="Layer_1" xmlns="http://www.w3.org/2000/svg" xmlns:xlink="http://www.w3.org/1999/xlink" x="0px" y="0px"
	 width="215px" height="100px" viewBox="0 0 215 100" enable-background="new 0 0 215 100" xml:space="preserve">
<g id="Category_1_">
	<path id="CategoryBtnShadow_1_" fill="#1B2854" d="M6.25,43.993c0-16.973,16.118-30.729,36-30.729h130
		c19.882,0,36,13.757,36,30.729v18.778c0,16.972-16.118,30.729-36,30.729h-130c-19.882,0-36-13.758-36-30.729V43.993z"/>
	<path id="CategoryBtn_1_" fill="#525879" d="M6.25,38.871c0-16.972,16.118-30.729,36-30.729h130c19.882,0,36,13.758,36,30.729
		V57.65c0,16.972-16.118,30.729-36,30.729h-130c-19.882,0-36-13.758-36-30.729V38.871z"/>
	<g>
		<path fill="#C5C7C9" d="M56.111,31.092c3.635,0,6.264,1.152,8.711,3.348c0.324,0.287,0.324,0.72,0.035,1.008l-2.195,2.268
			c-0.252,0.288-0.611,0.288-0.898,0c-1.514-1.332-3.529-2.123-5.545-2.123c-4.607,0-8.025,3.851-8.025,8.387
			c0,4.499,3.455,8.314,8.062,8.314c2.16,0,3.994-0.828,5.508-2.052c0.287-0.252,0.684-0.216,0.898,0l2.232,2.304
			c0.287,0.252,0.215,0.72-0.037,0.972c-2.447,2.376-5.543,3.491-8.746,3.491c-7.199,0-12.994-5.723-12.994-12.922
			S48.912,31.092,56.111,31.092z"/>
		<path fill="#C5C7C9" d="M72.852,47.541c1.441,0,2.629,0.396,2.629,0.396c0.035-1.836-0.541-2.484-1.873-2.484
			s-3.203,0.289-4.031,0.541c-0.504,0.144-0.756-0.18-0.828-0.648l-0.324-1.871c-0.107-0.541,0.182-0.793,0.504-0.9
			c0.289-0.107,2.592-0.684,4.896-0.684c4.5,0,5.543,2.34,5.543,6.263v7.812c0,0.359-0.324,0.684-0.684,0.684h-1.297
			c-0.252,0-0.432-0.107-0.611-0.504l-0.432-0.972c-0.828,0.756-2.16,1.835-4.391,1.835c-2.881,0-4.859-1.871-4.859-4.931
			C67.094,49.521,69.18,47.541,72.852,47.541z M72.924,53.949c1.152,0,2.268-0.973,2.484-1.404v-1.979c0,0-0.973-0.433-2.016-0.433
			c-1.404,0-2.34,0.793-2.34,1.944C71.053,53.156,71.809,53.949,72.924,53.949z"/>
		<path fill="#C5C7C9" d="M84.266,46.029h-1.225c-0.359,0-0.648-0.323-0.648-0.684v-2.412c0-0.396,0.289-0.684,0.648-0.684h1.225
			v-3.995c0-0.36,0.322-0.685,0.684-0.685l2.951-0.035c0.359,0,0.648,0.324,0.648,0.684v4.031h3.168
			c0.395,0,0.684,0.288,0.684,0.684v2.412c0,0.36-0.289,0.684-0.684,0.684h-3.168v5.76c0,1.008,0.539,1.152,1.115,1.152
			c0.611,0,1.367-0.252,1.764-0.396s0.684,0.036,0.793,0.396l0.719,2.268c0.145,0.359-0.035,0.72-0.396,0.863
			c-0.18,0.108-2.52,0.936-4.283,0.936c-2.771,0-3.994-1.727-3.994-4.643V46.029z"/>
		<path fill="#C5C7C9" d="M102.191,41.891c3.707,0,6.73,2.807,6.73,6.695c0,0.252-0.035,0.719-0.072,0.971
			c-0.035,0.361-0.359,0.613-0.684,0.613h-9.215c0.107,1.475,1.367,3.131,3.455,3.131c1.117,0,2.16-0.432,2.809-0.9
			c0.359-0.215,0.684-0.287,0.936,0l1.477,1.692c0.252,0.252,0.324,0.647-0.037,0.937c-1.188,1.115-3.023,1.979-5.363,1.979
			c-4.318,0-7.379-3.419-7.379-7.559C94.848,45.382,97.908,41.891,102.191,41.891z M104.711,47.649
			c-0.107-1.331-1.26-2.448-2.627-2.448c-1.441,0-2.629,1.08-2.809,2.448H104.711z"/>
		<path fill="#C5C7C9" d="M113.137,51.537c0,0-1.08-1.224-1.08-3.384c0-3.347,2.699-6.263,6.264-6.263h6.551
			c0.396,0,0.684,0.287,0.684,0.684v1.188c0,0.252-0.145,0.54-0.396,0.612l-2.016,0.647c0,0,1.439,1.116,1.439,3.672
			c0,2.844-2.375,5.651-6.154,5.651c-1.367,0-2.305-0.288-2.879-0.288c-0.506,0-1.332,0.504-1.332,1.368
			c0,0.756,0.646,1.224,1.439,1.224h4.607c3.275,0,5.939,1.871,5.939,5.039c0,3.312-2.664,6.119-7.883,6.119
			c-5.328,0-7.344-2.627-7.344-4.932c0-2.159,1.799-3.203,2.16-3.419v-0.108c-0.613-0.18-2.701-1.151-2.701-3.779
			C110.436,52.761,113.137,51.537,113.137,51.537z M118.283,64.207c2.016,0,3.348-0.899,3.348-2.268
			c0-0.647-0.504-1.764-2.627-1.764c-0.793,0-1.584,0.036-2.34,0.145c-0.432,0.144-1.549,0.647-1.549,1.764
			C115.115,63.344,116.34,64.207,118.283,64.207z M118.428,50.926c1.475,0,2.484-1.08,2.484-2.592s-1.01-2.592-2.484-2.592
			c-1.439,0-2.52,1.08-2.52,2.592S116.988,50.926,118.428,50.926z"/>
		<path fill="#C5C7C9" d="M134.842,41.891c4.068,0,7.379,3.455,7.379,7.523c0,4.139-3.311,7.594-7.379,7.594
			c-4.066,0-7.379-3.455-7.379-7.594C127.463,45.346,130.775,41.891,134.842,41.891z M134.842,53.121
			c1.908,0,3.457-1.656,3.457-3.707c0-2.017-1.549-3.637-3.457-3.637c-1.943,0-3.455,1.62-3.455,3.637
			C131.387,51.465,132.898,53.121,134.842,53.121z"/>
		<path fill="#C5C7C9" d="M145.428,42.934c0-0.396,0.322-0.684,0.684-0.684h1.367c0.324,0,0.539,0.18,0.648,0.469l0.504,1.403
			c0.504-0.72,1.836-2.231,4.066-2.231c1.693,0,3.205,0.539,2.771,1.439l-1.33,2.34c-0.182,0.324-0.541,0.468-0.828,0.324
			c-0.109-0.036-0.648-0.217-1.045-0.217c-1.439,0-2.303,0.973-2.555,1.477v8.711c0,0.504-0.324,0.684-0.828,0.684h-2.771
			c-0.361,0-0.684-0.324-0.684-0.684V42.934z"/>
		<path fill="#C5C7C9" d="M156.443,43.186c-0.217-0.467,0.072-0.936,0.611-0.936h3.24c0.324,0,0.504,0.18,0.611,0.396l3.635,8.135
			h0.037l3.6-8.135c0.18-0.36,0.432-0.396,0.863-0.396h2.879c0.576,0,0.865,0.469,0.613,0.936l-11.016,23.83
			c-0.107,0.215-0.324,0.432-0.611,0.432h-3.096c-0.539,0-0.863-0.469-0.611-0.973l5.111-10.834L156.443,43.186z"/>
	</g>
</g>
</svg>
