<?xml version="1.0" encoding="utf-8"?>
<!-- Generator: Adobe Illustrator 16.0.0, SVG Export Plug-In . SVG Version: 6.00 Build 0)  -->
<!DOCTYPE svg PUBLIC "-//W3C//DTD SVG 1.1//EN" "http://www.w3.org/Graphics/SVG/1.1/DTD/svg11.dtd">
<svg version="1.1" id="Layer_1" xmlns="http://www.w3.org/2000/svg" xmlns:xlink="http://www.w3.org/1999/xlink" x="0px" y="0px"
	 width="175px" height="214px" viewBox="0 0 175 214" enable-background="new 0 0 175 214" xml:space="preserve">
<g>
	<g>
		<rect y="0.262" fill="#D5D9E3" width="175" height="213.738"/>
	</g>
	
		<image overflow="visible" width="2500" height="2000" xlink:href="../Game Hack/chemistry.jpg"  transform="matrix(0.07 0 0 0.0699 0 0)">
	</image>
	<g>
		<path fill="#5D616B" d="M39.734,162.914c3.03,0,5.221,0.959,7.26,2.786c0.271,0.24,0.271,0.601,0.03,0.839l-1.83,1.888
			c-0.21,0.24-0.51,0.24-0.75,0c-1.26-1.108-2.939-1.768-4.619-1.768c-3.84,0-6.69,3.206-6.69,6.981c0,3.746,2.88,6.922,6.72,6.922
			c1.8,0,3.33-0.689,4.59-1.709c0.24-0.209,0.57-0.18,0.75,0l1.86,1.917c0.24,0.211,0.18,0.601-0.03,0.81
			c-2.04,1.979-4.62,2.907-7.29,2.907c-5.999,0-10.829-4.764-10.829-10.757C28.905,167.738,33.735,162.914,39.734,162.914z"/>
		<path fill="#5D616B" d="M49.695,163.783c0-0.3,0.27-0.569,0.57-0.569h2.55c0.3,0,0.569,0.27,0.569,0.569v9.108
			c0.601-0.45,1.771-0.988,3.18-0.988c3.811,0,5.37,2.936,5.37,5.962v5.753c0,0.3-0.27,0.568-0.57,0.568h-2.43
			c-0.33,0-0.569-0.269-0.569-0.568v-5.783c0-1.648-0.931-2.696-2.37-2.696c-1.38,0-2.311,0.898-2.61,2.127v6.353
			c0,0.328-0.18,0.568-0.63,0.568h-2.489c-0.301,0-0.57-0.269-0.57-0.568V163.783z"/>
		<path fill="#5D616B" d="M70.514,171.903c3.09,0,5.61,2.337,5.61,5.573c0,0.208-0.03,0.599-0.061,0.809
			c-0.029,0.299-0.3,0.509-0.569,0.509h-7.68c0.09,1.228,1.14,2.607,2.88,2.607c0.93,0,1.8-0.36,2.34-0.749
			c0.3-0.18,0.569-0.24,0.779,0l1.23,1.408c0.21,0.209,0.27,0.538-0.03,0.778c-0.989,0.929-2.52,1.648-4.47,1.648
			c-3.6,0-6.149-2.847-6.149-6.293C64.395,174.81,66.945,171.903,70.514,171.903z M72.615,176.697
			c-0.09-1.109-1.05-2.038-2.19-2.038c-1.199,0-2.189,0.899-2.34,2.038H72.615z"/>
		<path fill="#5D616B" d="M78.644,172.771c0-0.329,0.271-0.568,0.57-0.568h1.11c0.27,0,0.449,0.149,0.51,0.33l0.42,1.138
			c0.51-0.569,1.89-1.767,4.02-1.767c1.71,0,2.91,0.659,3.9,1.856c0.51-0.538,2.069-1.856,4.229-1.856c3.84,0,5.25,2.846,5.25,5.992
			v5.723c0,0.3-0.24,0.568-0.57,0.568h-2.43c-0.33,0-0.57-0.269-0.57-0.568v-5.934c0-1.558-0.75-2.546-2.25-2.546
			c-1.739,0-2.52,1.259-2.52,1.259s0.03,0.599,0.03,1.138v6.083c0,0.3-0.271,0.568-0.57,0.568h-2.25c-0.33,0-0.57-0.269-0.57-0.568
			v-5.934c0-1.558-0.689-2.546-2.22-2.546c-1.5,0-2.22,1.079-2.52,1.887v6.593c0,0.3-0.271,0.568-0.57,0.568h-2.43
			c-0.3,0-0.57-0.269-0.57-0.568V172.771z"/>
		<path fill="#5D616B" d="M101.743,165.881c0-1.139,0.9-2.067,2.04-2.067c1.17,0,2.101,0.929,2.101,2.067
			c0,1.138-0.931,2.067-2.101,2.067C102.644,167.948,101.743,167.019,101.743,165.881z M102.014,172.771
			c0-0.329,0.27-0.568,0.57-0.568h2.489c0.3,0,0.57,0.239,0.57,0.568v10.848c0,0.3-0.271,0.568-0.57,0.568h-2.489
			c-0.301,0-0.57-0.269-0.57-0.568V172.771z"/>
		<path fill="#5D616B" d="M108.584,182.749l0.81-1.618c0.12-0.3,0.42-0.36,0.689-0.21c0,0,1.351,0.72,2.73,0.72
			c0.6,0,1.02-0.239,1.02-0.749c0-0.54-0.42-0.87-2.01-1.498c-2.31-0.899-3.39-2.128-3.39-3.956c0-1.827,1.35-3.534,4.41-3.534
			c1.77,0,3.06,0.509,3.689,0.928c0.27,0.18,0.42,0.51,0.27,0.81l-0.749,1.527c-0.15,0.27-0.48,0.301-0.721,0.21
			c0,0-1.35-0.629-2.489-0.629c-0.721,0-1.021,0.301-1.021,0.688c0,0.54,0.54,0.72,1.65,1.169c2.31,0.899,4.05,1.888,4.05,4.225
			c0,1.979-1.74,3.656-4.771,3.656c-1.979,0-3.359-0.63-3.989-1.109C108.584,183.229,108.464,182.989,108.584,182.749z"/>
		<path fill="#5D616B" d="M120.793,175.348h-1.02c-0.3,0-0.54-0.269-0.54-0.568v-2.009c0-0.329,0.24-0.568,0.54-0.568h1.02v-3.326
			c0-0.299,0.271-0.568,0.57-0.568l2.46-0.03c0.3,0,0.54,0.271,0.54,0.568v3.356h2.64c0.33,0,0.57,0.239,0.57,0.568v2.009
			c0,0.3-0.24,0.568-0.57,0.568h-2.64v4.795c0,0.839,0.45,0.958,0.93,0.958c0.51,0,1.141-0.209,1.47-0.33
			c0.33-0.118,0.57,0.031,0.66,0.33l0.601,1.889c0.121,0.299-0.03,0.599-0.33,0.719c-0.15,0.09-2.101,0.779-3.57,0.779
			c-2.31,0-3.33-1.438-3.33-3.865V175.348z"/>
		<path fill="#5D616B" d="M130.514,172.771c0-0.329,0.27-0.568,0.57-0.568h1.139c0.271,0,0.451,0.149,0.541,0.39l0.42,1.168
			c0.42-0.599,1.529-1.856,3.391-1.856c1.408,0,2.67,0.448,2.309,1.197l-1.109,1.949c-0.15,0.269-0.449,0.388-0.689,0.269
			c-0.09-0.03-0.541-0.18-0.871-0.18c-1.199,0-1.92,0.809-2.129,1.229v7.251c0,0.419-0.271,0.568-0.691,0.568h-2.309
			c-0.301,0-0.57-0.269-0.57-0.568V172.771z"/>
		<path fill="#5D616B" d="M139.693,172.981c-0.18-0.39,0.061-0.779,0.51-0.779h2.699c0.271,0,0.42,0.149,0.512,0.33l3.029,6.771
			h0.029l3-6.771c0.15-0.3,0.359-0.33,0.721-0.33h2.4c0.479,0,0.719,0.39,0.51,0.779l-9.18,19.835
			c-0.09,0.18-0.271,0.359-0.51,0.359h-2.58c-0.451,0-0.721-0.39-0.51-0.81l4.26-9.019L139.693,172.981z"/>
	</g>
</g>
</svg>
