<?xml version="1.0" encoding="utf-8"?>
<!-- Generator: Adobe Illustrator 16.0.0, SVG Export Plug-In . SVG Version: 6.00 Build 0)  -->
<!DOCTYPE svg PUBLIC "-//W3C//DTD SVG 1.1//EN" "http://www.w3.org/Graphics/SVG/1.1/DTD/svg11.dtd">
<svg version="1.1" id="Layer_1" xmlns="http://www.w3.org/2000/svg" xmlns:xlink="http://www.w3.org/1999/xlink" x="0px" y="0px"
	 width="240px" height="100px" viewBox="0 0 240 100" enable-background="new 0 0 240 100" xml:space="preserve">
<g>
	<defs>
		<rect id="SVGID_1_" width="240" height="100"/>
	</defs>
	<clipPath id="SVGID_2_">
		<use xlink:href="#SVGID_1_"  overflow="visible"/>
	</clipPath>
	<g clip-path="url(#SVGID_2_)">
		<g id="PanelBG">
			<rect x="-476.917" y="-0.063" fill="#5D616B" width="1024" height="100"/>
		</g>
		<g id="PanelBorderTop">
			<rect x="-476.917" y="-0.063" fill="#2A2F39" width="1024" height="10"/>
		</g>
		<g>
			<path fill="#FFFFFF" d="M-377.406,39.757c0-0.36,0.288-0.685,0.684-0.685h8.243c4.283,0,7.595,2.88,7.595,6.659
				c0,2.772-2.268,4.932-3.959,5.724c1.908,0.612,4.68,2.556,4.68,5.867c0,4.031-3.456,6.947-7.847,6.947h-8.711
				c-0.396,0-0.684-0.324-0.684-0.684V39.757z M-368.911,49.655c1.836,0,3.096-1.439,3.096-3.239s-1.26-3.06-3.096-3.06h-3.852
				v6.299H-368.911z M-368.407,60.022c1.8,0,3.24-1.404,3.24-3.276c0-1.8-1.8-3.131-3.672-3.131h-3.923v6.407H-368.407z"/>
			<path fill="#FFFFFF" d="M-356.922,50.556c0-0.396,0.324-0.685,0.684-0.685h1.368c0.324,0,0.54,0.181,0.648,0.468l0.504,1.404
				c0.504-0.72,1.836-2.231,4.067-2.231c1.692,0,3.204,0.54,2.772,1.439l-1.332,2.34c-0.18,0.324-0.54,0.468-0.828,0.324
				c-0.108-0.036-0.648-0.217-1.044-0.217c-1.44,0-2.304,0.973-2.556,1.477v8.711c0,0.504-0.324,0.684-0.828,0.684h-2.771
				c-0.36,0-0.684-0.324-0.684-0.684V50.556z"/>
			<path fill="#FFFFFF" d="M-338.491,49.512c4.067,0,7.379,3.455,7.379,7.522c0,4.14-3.312,7.596-7.379,7.596
				s-7.379-3.456-7.379-7.596C-345.87,52.967-342.558,49.512-338.491,49.512z M-338.491,60.742c1.908,0,3.456-1.656,3.456-3.708
				c0-2.016-1.548-3.636-3.456-3.636c-1.944,0-3.456,1.62-3.456,3.636C-341.946,59.086-340.435,60.742-338.491,60.742z"/>
			<path fill="#FFFFFF" d="M-329.418,50.699c-0.216-0.468,0.108-0.828,0.612-0.828h2.592c0.216,0,0.576,0.181,0.648,0.433
				l2.16,6.442h0.036l3.671-6.911c0.072-0.144,0.252-0.323,0.576-0.323h0.288c0.324,0,0.468,0.144,0.576,0.323l3.635,6.911h0.036
				l2.16-6.442c0.144-0.396,0.432-0.433,0.828-0.433h2.339c0.504,0,0.828,0.36,0.648,0.828l-4.499,13.534
				c-0.072,0.216-0.288,0.396-0.648,0.396h-0.144c-0.288,0-0.468-0.145-0.576-0.324l-4.535-8.387h-0.036l-4.5,8.387
				c-0.108,0.18-0.288,0.324-0.576,0.324h-0.18c-0.324,0-0.54-0.181-0.612-0.396L-329.418,50.699z"/>
			<path fill="#FFFFFF" d="M-306.522,62.542l0.972-1.944c0.144-0.359,0.504-0.432,0.828-0.252c0,0,1.62,0.864,3.276,0.864
				c0.72,0,1.224-0.288,1.224-0.9c0-0.647-0.504-1.043-2.412-1.8c-2.771-1.079-4.067-2.556-4.067-4.751s1.62-4.247,5.291-4.247
				c2.124,0,3.672,0.611,4.428,1.115c0.324,0.216,0.504,0.612,0.324,0.973l-0.9,1.835c-0.18,0.324-0.576,0.36-0.864,0.252
				c0,0-1.62-0.756-2.988-0.756c-0.864,0-1.224,0.36-1.224,0.828c0,0.648,0.648,0.864,1.979,1.404
				c2.772,1.079,4.86,2.268,4.86,5.075c0,2.375-2.088,4.392-5.724,4.392c-2.375,0-4.031-0.756-4.787-1.332
				C-306.522,63.117-306.667,62.83-306.522,62.542z"/>
			<path fill="#FFFFFF" d="M-286.363,49.512c3.708,0,6.731,2.808,6.731,6.695c0,0.252-0.036,0.72-0.072,0.972
				c-0.036,0.359-0.36,0.611-0.684,0.611h-9.215c0.108,1.477,1.368,3.132,3.456,3.132c1.116,0,2.16-0.432,2.808-0.899
				c0.36-0.217,0.684-0.288,0.936,0l1.476,1.691c0.252,0.252,0.324,0.647-0.036,0.936c-1.188,1.116-3.023,1.98-5.363,1.98
				c-4.319,0-7.379-3.42-7.379-7.56C-293.706,53.003-290.646,49.512-286.363,49.512z M-283.843,55.271
				c-0.108-1.332-1.26-2.447-2.628-2.447c-1.44,0-2.627,1.079-2.808,2.447H-283.843z"/>
		</g>
		<g>
			<path fill="#FFFFFF" d="M-163.975,38.756c0-0.36,0.288-0.685,0.684-0.685h10.295c4.319,0,7.847,3.456,7.847,7.739
				c0,3.312-2.196,6.012-5.327,7.271l4.931,9.143c0.252,0.468,0,1.044-0.612,1.044h-3.779c-0.324,0-0.504-0.18-0.576-0.324
				l-4.787-9.538h-3.996v9.179c0,0.359-0.324,0.684-0.684,0.684h-3.312c-0.396,0-0.684-0.324-0.684-0.684V38.756z M-153.392,49.555
				c1.908,0,3.563-1.656,3.563-3.672c0-1.908-1.656-3.491-3.563-3.491h-5.867v7.163H-153.392z"/>
			<path fill="#FFFFFF" d="M-135.967,48.511c3.708,0,6.731,2.808,6.731,6.695c0,0.252-0.036,0.72-0.072,0.972
				c-0.036,0.359-0.36,0.611-0.684,0.611h-9.215c0.108,1.477,1.368,3.132,3.456,3.132c1.116,0,2.16-0.432,2.808-0.899
				c0.36-0.217,0.684-0.288,0.936,0l1.476,1.691c0.252,0.252,0.324,0.647-0.036,0.936c-1.188,1.116-3.023,1.98-5.363,1.98
				c-4.319,0-7.379-3.42-7.379-7.56C-143.31,52.002-140.25,48.511-135.967,48.511z M-133.447,54.27
				c-0.108-1.332-1.26-2.447-2.628-2.447c-1.44,0-2.627,1.079-2.808,2.447H-133.447z"/>
			<path fill="#FFFFFF" d="M-120.344,48.511c2.34,0,4.104,1.26,4.644,1.979l0.468-1.188c0.108-0.288,0.36-0.433,0.612-0.433h1.404
				c0.36,0,0.684,0.288,0.684,0.685v23.828c0,0.36-0.324,0.685-0.684,0.685h-2.88c-0.648,0-0.864-0.252-0.864-0.685V62.837
				c-0.504,0.288-1.8,0.792-3.204,0.792c-3.888,0-7.127-3.312-7.127-7.56C-127.291,51.93-124.303,48.511-120.344,48.511z
				 M-119.588,59.741c1.8,0,2.808-0.828,2.808-0.828v-4.319c-0.216-0.756-1.116-2.196-2.951-2.196c-1.98,0-3.348,1.729-3.348,3.744
				S-121.604,59.741-119.588,59.741z"/>
			<path fill="#FFFFFF" d="M-108.463,49.555c0-0.396,0.324-0.685,0.684-0.685h2.952c0.36,0,0.684,0.288,0.684,0.685v7.091
				c0,1.907,0.972,3.096,2.628,3.096c1.512,0,2.664-1.404,2.879-2.7v-7.486c0-0.54,0.216-0.685,0.792-0.685h2.736
				c0.36,0,0.684,0.288,0.684,0.685v13.03c0,0.359-0.324,0.684-0.684,0.684h-1.332c-0.36,0-0.576-0.252-0.684-0.54l-0.432-1.188
				c-0.648,0.575-1.98,2.088-4.823,2.088c-4.464,0-6.083-3.42-6.083-7.092V49.555z"/>
			<path fill="#FFFFFF" d="M-83.84,48.511c3.708,0,6.731,2.808,6.731,6.695c0,0.252-0.036,0.72-0.072,0.972
				c-0.036,0.359-0.36,0.611-0.684,0.611h-9.215c0.108,1.477,1.368,3.132,3.455,3.132c1.116,0,2.16-0.432,2.808-0.899
				c0.36-0.217,0.684-0.288,0.936,0l1.476,1.691c0.252,0.252,0.324,0.647-0.036,0.936c-1.188,1.116-3.023,1.98-5.363,1.98
				c-4.319,0-7.379-3.42-7.379-7.56C-91.183,52.002-88.123,48.511-83.84,48.511z M-81.32,54.27c-0.108-1.332-1.26-2.447-2.627-2.447
				c-1.44,0-2.627,1.079-2.808,2.447H-81.32z"/>
			<path fill="#FFFFFF" d="M-74.875,61.541l0.972-1.944c0.144-0.359,0.504-0.432,0.828-0.252c0,0,1.62,0.864,3.276,0.864
				c0.72,0,1.224-0.288,1.224-0.9c0-0.647-0.504-1.043-2.412-1.8c-2.771-1.079-4.067-2.556-4.067-4.751s1.62-4.247,5.291-4.247
				c2.124,0,3.672,0.611,4.428,1.115c0.324,0.216,0.504,0.612,0.324,0.973l-0.9,1.835c-0.18,0.324-0.576,0.36-0.864,0.252
				c0,0-1.62-0.756-2.988-0.756c-0.864,0-1.224,0.36-1.224,0.828c0,0.648,0.648,0.864,1.979,1.404
				c2.772,1.079,4.86,2.268,4.86,5.075c0,2.375-2.088,4.392-5.724,4.392c-2.375,0-4.031-0.756-4.787-1.332
				C-74.875,62.116-75.02,61.829-74.875,61.541z"/>
			<path fill="#FFFFFF" d="M-60.224,52.649h-1.224c-0.36,0-0.648-0.323-0.648-0.684v-2.411c0-0.396,0.288-0.685,0.648-0.685h1.224
				v-3.995c0-0.36,0.324-0.684,0.684-0.684l2.952-0.036c0.36,0,0.648,0.323,0.648,0.684v4.031h3.167
				c0.396,0,0.684,0.288,0.684,0.685v2.411c0,0.36-0.288,0.684-0.684,0.684h-3.167v5.76c0,1.008,0.54,1.151,1.116,1.151
				c0.612,0,1.368-0.252,1.764-0.396s0.684,0.036,0.792,0.396l0.72,2.269c0.144,0.359-0.036,0.72-0.396,0.863
				c-0.18,0.108-2.52,0.937-4.284,0.937c-2.771,0-3.996-1.729-3.996-4.644V52.649z"/>
		</g>
		<g>
			<path fill="#FFFFFF" d="M115.184,38.713c3.636,0,6.264,1.151,8.711,3.348c0.324,0.288,0.324,0.72,0.036,1.008l-2.195,2.268
				c-0.252,0.288-0.612,0.288-0.9,0c-1.512-1.332-3.527-2.124-5.543-2.124c-4.607,0-8.027,3.852-8.027,8.388
				c0,4.499,3.456,8.314,8.063,8.314c2.159,0,3.995-0.828,5.507-2.052c0.288-0.252,0.685-0.216,0.9,0l2.231,2.304
				c0.288,0.252,0.216,0.72-0.036,0.972c-2.447,2.376-5.543,3.492-8.747,3.492c-7.199,0-12.994-5.724-12.994-12.923
				S107.984,38.713,115.184,38.713z"/>
			<path fill="#FFFFFF" d="M126.921,50.556c0-0.396,0.324-0.685,0.685-0.685h1.367c0.324,0,0.54,0.181,0.648,0.468l0.504,1.404
				c0.504-0.72,1.836-2.231,4.067-2.231c1.691,0,3.203,0.54,2.771,1.439l-1.332,2.34c-0.18,0.324-0.54,0.468-0.827,0.324
				c-0.108-0.036-0.648-0.217-1.044-0.217c-1.44,0-2.304,0.973-2.556,1.477v8.711c0,0.504-0.324,0.684-0.828,0.684h-2.771
				c-0.36,0-0.685-0.324-0.685-0.684V50.556z"/>
			<path fill="#FFFFFF" d="M145.353,49.512c3.707,0,6.731,2.808,6.731,6.695c0,0.252-0.036,0.72-0.072,0.972
				c-0.036,0.359-0.36,0.611-0.684,0.611h-9.215c0.107,1.477,1.367,3.132,3.455,3.132c1.116,0,2.16-0.432,2.808-0.899
				c0.36-0.217,0.684-0.288,0.936,0l1.477,1.691c0.252,0.252,0.323,0.647-0.036,0.936c-1.188,1.116-3.023,1.98-5.363,1.98
				c-4.319,0-7.379-3.42-7.379-7.56C138.01,53.003,141.069,49.512,145.353,49.512z M147.872,55.271
				c-0.108-1.332-1.26-2.447-2.628-2.447c-1.439,0-2.627,1.079-2.808,2.447H147.872z"/>
			<path fill="#FFFFFF" d="M159.824,55.163c1.439,0,2.628,0.396,2.628,0.396c0.035-1.836-0.54-2.483-1.872-2.483
				s-3.204,0.288-4.031,0.54c-0.504,0.144-0.756-0.181-0.828-0.648l-0.324-1.872c-0.107-0.539,0.18-0.791,0.504-0.899
				c0.288-0.108,2.592-0.684,4.896-0.684c4.5,0,5.543,2.34,5.543,6.263v7.812c0,0.359-0.323,0.684-0.684,0.684h-1.296
				c-0.252,0-0.432-0.108-0.611-0.504l-0.433-0.972c-0.828,0.756-2.159,1.836-4.392,1.836c-2.879,0-4.859-1.872-4.859-4.932
				C154.064,57.143,156.152,55.163,159.824,55.163z M159.896,61.57c1.151,0,2.268-0.973,2.483-1.404v-1.979
				c0,0-0.972-0.433-2.016-0.433c-1.404,0-2.34,0.792-2.34,1.944C158.024,60.778,158.78,61.57,159.896,61.57z"/>
			<path fill="#FFFFFF" d="M171.236,53.65h-1.224c-0.36,0-0.648-0.323-0.648-0.684v-2.411c0-0.396,0.288-0.685,0.648-0.685h1.224
				v-3.995c0-0.36,0.324-0.684,0.684-0.684l2.952-0.036c0.359,0,0.647,0.323,0.647,0.684v4.031h3.168
				c0.396,0,0.684,0.288,0.684,0.685v2.411c0,0.36-0.288,0.684-0.684,0.684h-3.168v5.76c0,1.008,0.54,1.151,1.116,1.151
				c0.611,0,1.367-0.252,1.764-0.396c0.396-0.144,0.684,0.036,0.792,0.396l0.72,2.269c0.144,0.359-0.036,0.72-0.396,0.863
				c-0.181,0.108-2.521,0.937-4.284,0.937c-2.771,0-3.995-1.729-3.995-4.644V53.65z"/>
			<path fill="#FFFFFF" d="M189.163,49.512c3.707,0,6.731,2.808,6.731,6.695c0,0.252-0.036,0.72-0.072,0.972
				c-0.036,0.359-0.36,0.611-0.684,0.611h-9.215c0.107,1.477,1.367,3.132,3.455,3.132c1.116,0,2.16-0.432,2.808-0.899
				c0.36-0.217,0.684-0.288,0.936,0l1.477,1.691c0.252,0.252,0.323,0.647-0.036,0.936c-1.188,1.116-3.023,1.98-5.363,1.98
				c-4.319,0-7.379-3.42-7.379-7.56C181.82,53.003,184.88,49.512,189.163,49.512z M191.683,55.271
				c-0.108-1.332-1.26-2.447-2.628-2.447c-1.439,0-2.627,1.079-2.808,2.447H191.683z"/>
		</g>
		<g id="FindIcon">
			<g id="XMLID_3_">
				<g>
					<g id="XMLID_4_">
						<g>
							<g>
								<path fill="#59C1A7" d="M-432.068,68.3l-1.314-1.318c-0.938-0.936-1.332-2.068-0.863-2.524l8.828-8.826
									c-1.436-2.329-2.267-5.077-2.267-8.026c0-8.433,6.846-15.281,15.28-15.281c8.449,0,15.281,6.849,15.281,15.281
									c0,8.448-6.832,15.297-15.281,15.297c-3.1,0-5.971-0.922-8.373-2.493l-8.767,8.766
									C-429.998,69.628-431.131,69.235-432.068,68.3z M-412.404,57.822c5.639,0,10.219-4.579,10.219-10.218
									s-4.58-10.203-10.219-10.203c-5.638,0-10.203,4.564-10.203,10.203C-422.607,53.244-418.042,57.822-412.404,57.822z"/>
							</g>
						</g>
					</g>
				</g>
			</g>
			<g>
				<circle fill="#FFFFFF" cx="-412.249" cy="47.271" r="10.552"/>
			</g>
		</g>
		<g id="RequestIcon">
			<g>
				<path fill="#FDC010" d="M-189.824,37.683c-2.088-4.202-6.356-5.628-9.029-5.628c-2.674,0-6.952,1.426-9.04,5.628
					c-2.089,4.203-0.407,8.1,1.63,10.697c2.038,2.597,2.344,3.744,2.471,4.38c0.127,0.637-0.281,1.63,0.497,2.317
					c0.778,0.688,4.442,0.79,4.442,0.79s3.65-0.102,4.43-0.79c0.777-0.688,0.363-1.682,0.49-2.317
					c0.128-0.636,0.43-1.783,2.468-4.38C-189.428,45.782-187.736,41.886-189.824,37.683z"/>
			</g>
			<g>
				<path fill="#59C1A7" d="M-194.146,59.032c-0.1-0.419-0.523-0.696-0.883-0.611v-0.004c-1.438,0.38-3.773,0.375-3.773,0.375
					s-2.127,0.005-3.749-0.375l-0.015,0.004c-0.48-0.085-0.846,0.192-0.945,0.611c-0.104,0.438,0.15,0.875,0.588,0.979
					c0.037,0.007,0.072,0.015,0.109,0.019c1.807,0.395,3.866,0.388,3.956,0.387c0.089,0.001,2.149,0.008,3.954-0.387
					c0.037-0.004,0.103-0.011,0.14-0.019C-194.326,59.907-194.042,59.47-194.146,59.032z"/>
			</g>
			<g>
				<path fill="#59C1A7" d="M-194.184,62.81c-0.1-0.42-0.457-0.695-0.938-0.612l-0.002-0.003c-1.622,0.381-3.718,0.375-3.718,0.375
					s-2.099,0.006-3.72-0.375l-0.002,0.003c-0.479-0.083-0.837,0.192-0.938,0.612c-0.104,0.438,0.152,0.874,0.591,0.979
					c0.038,0.009,0.075,0.017,0.112,0.02c1.806,0.396,3.866,0.387,3.956,0.387c0.089,0,2.149,0.009,3.955-0.387
					c0.036-0.003,0.074-0.01,0.111-0.02C-194.337,63.684-194.08,63.247-194.184,62.81z"/>
			</g>
			<g>
				<path fill="#59C1A7" d="M-194.873,66.293c-0.129-0.354-0.516-0.607-0.875-0.534v-0.002c-1.079,0.332-3.17,0.318-3.17,0.318
					s-1.777,0.014-3.195-0.318l0.014,0.002c-0.42-0.073-0.686,0.181-0.814,0.534c-0.312,0.863,1.548,2.018,4.02,2.018
					C-196.406,68.312-194.562,67.156-194.873,66.293z"/>
			</g>
		</g>
		<g id="CreateIcon">
			<g>
				<path fill="#F9BAA8" d="M77.019,41.168l-2.215,1.402l-4.351-6.767l2.212-1.405c0.771-0.487,1.704-0.402,2.087,0.195l2.964,4.61
					C78.102,39.8,77.786,40.679,77.019,41.168z"/>
			</g>
			<g>
				<path fill="#F8DD8E" d="M47.604,54.598c-0.14,0.304-0.176,0.468-0.118,0.551c0.338,0.491,8.385-1.003,9.821-1.574
					c-2.593,0.174-5.562-4.469-4.275-6.61C51.924,47.948,48.304,53.097,47.604,54.598z"/>
			</g>
			<g>
				<path fill="#EF5A4D" d="M47.434,54.964c-0.096,0.237-0.122,0.363-0.091,0.433c0.19,0.396,5.143-0.572,6.037-0.986
					c-1.586,0.071-3.238-3.666-2.383-5.319C50.289,49.836,47.91,53.802,47.434,54.964z"/>
			</g>
			<g>
				<path fill="#FDC010" d="M61.216,53.969l-0.027,3.581h-4.474c-1.094,0-1.983,0.883-1.983,1.971v4.311H41.989
					c-1.689,0-3.065-1.719-3.065-3.83V40.308c0-2.109,1.376-3.829,3.065-3.829h16.115c2.173,0.006,1.84,2.318,2.401,3.214
					l3.529-2.268c-0.805-3.242-3.074-5.07-5.931-5.07H41.99c-3.51-0.001-6.365,3.569-6.365,7.953v19.693
					c0,4.388,2.855,7.955,6.365,7.955h14.956l7.523-9.022l-0.131-6.931L61.216,53.969z"/>
			</g>
			<g>
				<path fill="#EF5A4D" d="M55.166,45.507c-1.624,2.1,1.641,7.219,4.352,6.769l13.322-8.457l-4.352-6.768L55.166,45.507z"/>
			</g>
		</g>
		<g id="PanelSpacer">
			<g>
				<rect x="-241.415" y="9.937" fill="#2A2F39" width="3" height="90"/>
			</g>
			<g>
				<rect x="-1.415" y="10" fill="#2A2F39" width="3" height="90"/>
			</g>
			<g>
				<rect x="238.418" y="9.937" fill="#2A2F39" width="3" height="90"/>
			</g>
		</g>
		<g>
			<rect x="-476.917" fill="none" width="237.166" height="100"/>
		</g>
	</g>
	<g clip-path="url(#SVGID_2_)">
		<rect x="-475.584" y="-0.615" fill="none" width="237.251" height="101.23"/>
	</g>
</g>
</svg>
