<?xml version="1.0" encoding="utf-8"?>
<!-- Generator: Adobe Illustrator 16.0.0, SVG Export Plug-In . SVG Version: 6.00 Build 0)  -->
<!DOCTYPE svg PUBLIC "-//W3C//DTD SVG 1.1//EN" "http://www.w3.org/Graphics/SVG/1.1/DTD/svg11.dtd">
<svg version="1.1" id="Layer_1" xmlns="http://www.w3.org/2000/svg" xmlns:xlink="http://www.w3.org/1999/xlink" x="0px" y="0px"
	 width="215px" height="100px" viewBox="0 0 215 100" enable-background="new 0 0 215 100" xml:space="preserve">
<g>
	<path fill="#7B7F88" d="M70.204,37.905c0-0.36,0.287-0.684,0.684-0.684h14.65c0.396,0,0.684,0.323,0.684,0.684v2.951
		c0,0.36-0.287,0.685-0.684,0.685H74.884v6.767h8.891c0.359,0,0.684,0.324,0.684,0.685v2.951c0,0.36-0.324,0.684-0.684,0.684h-8.891
		v9.106c0,0.361-0.324,0.685-0.684,0.685h-3.312c-0.396,0-0.684-0.323-0.684-0.685V37.905z"/>
	<path fill="#7B7F88" d="M88.528,40.425c0-1.367,1.08-2.483,2.447-2.483c1.404,0,2.52,1.116,2.52,2.483
		c0,1.368-1.115,2.483-2.52,2.483C89.608,42.908,88.528,41.793,88.528,40.425z M88.853,48.704c0-0.396,0.322-0.685,0.684-0.685
		h2.986c0.361,0,0.686,0.288,0.686,0.685v13.029c0,0.361-0.324,0.685-0.686,0.685h-2.986c-0.361,0-0.684-0.323-0.684-0.685V48.704z"
		/>
	<path fill="#7B7F88" d="M97.528,37.905c0-0.36,0.322-0.684,0.684-0.684h3.023c0.359,0,0.684,0.323,0.684,0.684v23.828
		c0,0.361-0.324,0.685-0.684,0.685h-3.023c-0.361,0-0.684-0.323-0.684-0.685V37.905z"/>
	<path fill="#7B7F88" d="M106.995,51.8h-1.225c-0.359,0-0.646-0.324-0.646-0.685v-2.411c0-0.396,0.287-0.685,0.646-0.685h1.225
		v-3.995c0-0.359,0.324-0.684,0.684-0.684l2.951-0.036c0.361,0,0.648,0.324,0.648,0.684v4.031h3.168
		c0.396,0,0.684,0.288,0.684,0.685v2.411c0,0.36-0.287,0.685-0.684,0.685h-3.168v5.759c0,1.008,0.541,1.151,1.117,1.151
		c0.611,0,1.367-0.252,1.764-0.396c0.395-0.144,0.684,0.036,0.791,0.396l0.721,2.268c0.143,0.36-0.037,0.721-0.396,0.864
		c-0.18,0.108-2.52,0.937-4.283,0.937c-2.771,0-3.996-1.729-3.996-4.645V51.8z"/>
	<path fill="#7B7F88" d="M124.923,47.66c3.707,0,6.73,2.808,6.73,6.694c0,0.252-0.035,0.721-0.072,0.973
		c-0.035,0.359-0.359,0.611-0.684,0.611h-9.215c0.107,1.477,1.367,3.132,3.455,3.132c1.117,0,2.16-0.432,2.809-0.899
		c0.359-0.217,0.684-0.289,0.936,0l1.477,1.691c0.252,0.252,0.324,0.648-0.037,0.936c-1.188,1.116-3.023,1.98-5.363,1.98
		c-4.318,0-7.379-3.42-7.379-7.56C117.579,51.151,120.64,47.66,124.923,47.66z M127.442,53.419c-0.107-1.332-1.26-2.447-2.627-2.447
		c-1.441,0-2.629,1.08-2.809,2.447H127.442z"/>
	<path fill="#7B7F88" d="M134.679,48.704c0-0.396,0.324-0.685,0.684-0.685h1.369c0.322,0,0.539,0.181,0.646,0.469l0.504,1.403
		c0.504-0.72,1.836-2.231,4.068-2.231c1.691,0,3.203,0.54,2.771,1.439l-1.332,2.34c-0.18,0.323-0.539,0.468-0.828,0.323
		c-0.107-0.035-0.648-0.215-1.043-0.215c-1.441,0-2.305,0.971-2.557,1.475v8.711c0,0.504-0.324,0.685-0.828,0.685h-2.771
		c-0.359,0-0.684-0.323-0.684-0.685V48.704z"/>
</g>
</svg>
