<?xml version="1.0" encoding="utf-8"?>
<!-- Generator: Adobe Illustrator 16.0.0, SVG Export Plug-In . SVG Version: 6.00 Build 0)  -->
<!DOCTYPE svg PUBLIC "-//W3C//DTD SVG 1.1//EN" "http://www.w3.org/Graphics/SVG/1.1/DTD/svg11.dtd">
<svg version="1.1" id="Layer_1" xmlns="http://www.w3.org/2000/svg" xmlns:xlink="http://www.w3.org/1999/xlink" x="0px" y="0px"
	 width="215px" height="100px" viewBox="0 0 215 100" enable-background="new 0 0 215 100" xml:space="preserve">
<g id="FriendsFilter_1_">
	<path fill="#486D61" d="M6.25,43.993c0-16.973,16.118-30.729,36-30.729h130c19.882,0,36,13.757,36,30.729v18.778
		c0,16.972-16.118,30.729-36,30.729h-130c-19.882,0-36-13.758-36-30.729V43.993z"/>
	<path fill="#688A82" d="M6.25,38.871c0-16.972,16.118-30.729,36-30.729h130c19.882,0,36,13.758,36,30.729V57.65
		c0,16.972-16.118,30.729-36,30.729h-130c-19.882,0-36-13.758-36-30.729V38.871z"/>
	<g>
		<path fill="#C5C7C9" d="M57.516,32.136c0-0.36,0.287-0.684,0.684-0.684h14.65c0.396,0,0.684,0.324,0.684,0.684v2.951
			c0,0.36-0.287,0.684-0.684,0.684H62.195v6.767h8.891c0.359,0,0.684,0.324,0.684,0.684v2.952c0,0.36-0.324,0.684-0.684,0.684
			h-8.891v9.107c0,0.359-0.324,0.684-0.684,0.684h-3.312c-0.396,0-0.684-0.324-0.684-0.684V32.136z"/>
		<path fill="#C5C7C9" d="M75.66,42.934c0-0.396,0.322-0.684,0.684-0.684h1.367c0.324,0,0.539,0.18,0.648,0.468l0.504,1.404
			c0.504-0.72,1.836-2.232,4.066-2.232c1.693,0,3.205,0.54,2.771,1.44l-1.33,2.34c-0.182,0.324-0.541,0.468-0.828,0.324
			c-0.109-0.036-0.648-0.216-1.045-0.216c-1.439,0-2.303,0.972-2.555,1.476v8.711c0,0.504-0.324,0.684-0.828,0.684h-2.771
			c-0.361,0-0.684-0.324-0.684-0.684V42.934z"/>
		<path fill="#C5C7C9" d="M87.611,34.655c0-1.368,1.08-2.484,2.447-2.484c1.404,0,2.52,1.116,2.52,2.484s-1.115,2.483-2.52,2.483
			C88.691,37.139,87.611,36.023,87.611,34.655z M87.936,42.934c0-0.396,0.324-0.684,0.684-0.684h2.988
			c0.359,0,0.684,0.288,0.684,0.684v13.031c0,0.359-0.324,0.684-0.684,0.684h-2.988c-0.359,0-0.684-0.324-0.684-0.684V42.934z"/>
		<path fill="#C5C7C9" d="M102.875,41.89c3.707,0,6.73,2.808,6.73,6.695c0,0.252-0.035,0.72-0.072,0.972
			c-0.035,0.36-0.359,0.612-0.684,0.612h-9.215c0.107,1.475,1.367,3.131,3.455,3.131c1.117,0,2.16-0.432,2.809-0.9
			c0.359-0.215,0.684-0.287,0.936,0l1.477,1.692c0.252,0.252,0.324,0.647-0.037,0.937c-1.188,1.115-3.023,1.979-5.363,1.979
			c-4.318,0-7.379-3.419-7.379-7.559C95.531,45.382,98.592,41.89,102.875,41.89z M105.395,47.649
			c-0.107-1.332-1.26-2.448-2.627-2.448c-1.441,0-2.629,1.08-2.809,2.448H105.395z"/>
		<path fill="#C5C7C9" d="M112.631,42.934c0-0.396,0.324-0.684,0.684-0.684h1.369c0.322,0,0.504,0.18,0.611,0.432l0.504,1.332
			c0.539-0.576,2.303-2.124,5.074-2.124c4.572,0,6.408,3.42,6.408,7.163v6.912c0,0.359-0.324,0.684-0.684,0.684h-2.951
			c-0.396,0-0.686-0.324-0.686-0.684v-7.127c0-1.872-0.971-3.06-2.699-3.06c-1.871,0-3.023,1.296-3.383,2.268v7.919
			c0,0.504-0.217,0.684-0.9,0.684h-2.664c-0.359,0-0.684-0.324-0.684-0.684V42.934z"/>
		<path fill="#C5C7C9" d="M137.361,41.89c1.439,0,2.557,0.396,3.203,0.648V32.136c0-0.36,0.324-0.684,0.686-0.684h3.059
			c0.359,0,0.684,0.324,0.684,0.684v23.829c0,0.359-0.324,0.684-0.684,0.684h-1.404c-0.322,0-0.574-0.288-0.684-0.684l-0.359-1.116
			c0,0-1.691,2.159-4.715,2.159c-3.924,0-6.912-3.419-6.912-7.559C130.234,45.238,133.078,41.89,137.361,41.89z M137.686,53.121
			c1.908,0,2.771-1.477,3.023-2.34v-4.176c0,0-1.008-0.828-2.807-0.828c-2.016,0-3.492,1.656-3.492,3.671
			S135.777,53.121,137.686,53.121z"/>
		<path fill="#C5C7C9" d="M148.523,54.921l0.971-1.944c0.145-0.359,0.504-0.432,0.828-0.252c0,0,1.619,0.864,3.275,0.864
			c0.721,0,1.225-0.288,1.225-0.899c0-0.648-0.504-1.045-2.412-1.801c-2.771-1.08-4.068-2.555-4.068-4.751s1.621-4.248,5.293-4.248
			c2.123,0,3.67,0.612,4.426,1.116c0.324,0.216,0.504,0.612,0.324,0.972l-0.898,1.836c-0.182,0.324-0.576,0.36-0.865,0.252
			c0,0-1.619-0.756-2.986-0.756c-0.865,0-1.225,0.36-1.225,0.828c0,0.648,0.648,0.864,1.98,1.404
			c2.771,1.08,4.859,2.268,4.859,5.076c0,2.375-2.088,4.391-5.725,4.391c-2.375,0-4.031-0.756-4.787-1.331
			C148.523,55.496,148.379,55.209,148.523,54.921z"/>
	</g>
</g>
</svg>
