<?xml version="1.0" encoding="utf-8"?>
<!-- Generator: Adobe Illustrator 16.0.0, SVG Export Plug-In . SVG Version: 6.00 Build 0)  -->
<!DOCTYPE svg PUBLIC "-//W3C//DTD SVG 1.1//EN" "http://www.w3.org/Graphics/SVG/1.1/DTD/svg11.dtd">
<svg version="1.1" id="Layer_1" xmlns="http://www.w3.org/2000/svg" xmlns:xlink="http://www.w3.org/1999/xlink" x="0px" y="0px"
	 width="175px" height="214px" viewBox="0 0 175 214" enable-background="new 0 0 175 214" xml:space="preserve">
<g>
	<g>
		<rect y="0.309" fill="#D5D9E3" width="174.988" height="213.691"/>
	</g>
	
		<image overflow="visible" width="2500" height="2000" xlink:href="../Game Hack/physics.jpg"  transform="matrix(0.07 0 0 0.0699 0.0117 0)">
	</image>
	<g>
		<path fill="#5D616B" d="M45.932,164.791c0-0.3,0.24-0.569,0.57-0.569h7.049c3.689,0,6.719,2.996,6.719,6.619
			c0,3.716-3.03,6.74-6.689,6.74h-3.75v7.041c0,0.299-0.27,0.568-0.57,0.568h-2.759c-0.33,0-0.57-0.27-0.57-0.568V164.791z
			 M53.311,173.928c1.68,0,3.089-1.349,3.089-3.116c0-1.647-1.41-2.905-3.089-2.905h-3.479v6.021H53.311z"/>
		<path fill="#5D616B" d="M62.4,164.791c0-0.3,0.27-0.569,0.57-0.569h2.55c0.3,0,0.57,0.27,0.57,0.569v9.106
			c0.6-0.449,1.77-0.989,3.179-0.989c3.81,0,5.37,2.937,5.37,5.963v5.751c0,0.299-0.27,0.568-0.57,0.568h-2.43
			c-0.33,0-0.57-0.27-0.57-0.568v-5.782c0-1.647-0.93-2.695-2.37-2.695c-1.38,0-2.31,0.898-2.61,2.126v6.352
			c0,0.329-0.18,0.568-0.63,0.568h-2.49c-0.3,0-0.57-0.27-0.57-0.568V164.791z"/>
		<path fill="#5D616B" d="M76.29,173.987c-0.18-0.39,0.06-0.778,0.51-0.778h2.7c0.27,0,0.42,0.149,0.51,0.329l3.03,6.77h0.03l3-6.77
			c0.15-0.3,0.36-0.329,0.72-0.329h2.4c0.479,0,0.719,0.389,0.51,0.778l-9.18,19.83c-0.09,0.18-0.27,0.359-0.51,0.359h-2.58
			c-0.45,0-0.72-0.389-0.51-0.809l4.26-9.017L76.29,173.987z"/>
		<path fill="#5D616B" d="M91.079,183.752l0.81-1.616c0.12-0.301,0.42-0.36,0.69-0.211c0,0,1.35,0.72,2.729,0.72
			c0.6,0,1.02-0.24,1.02-0.749c0-0.539-0.42-0.869-2.009-1.498c-2.31-0.898-3.39-2.127-3.39-3.954c0-1.826,1.351-3.535,4.409-3.535
			c1.771,0,3.06,0.51,3.69,0.929c0.27,0.181,0.42,0.51,0.27,0.81l-0.75,1.527c-0.15,0.27-0.48,0.3-0.721,0.21
			c0,0-1.35-0.63-2.489-0.63c-0.719,0-1.02,0.301-1.02,0.689c0,0.539,0.54,0.719,1.649,1.168c2.311,0.898,4.05,1.888,4.05,4.224
			c0,1.978-1.739,3.655-4.771,3.655c-1.978,0-3.358-0.629-3.988-1.108C91.079,184.232,90.959,183.992,91.079,183.752z"/>
		<path fill="#5D616B" d="M102.388,166.888c0-1.139,0.9-2.067,2.041-2.067c1.17,0,2.1,0.929,2.1,2.067s-0.93,2.067-2.1,2.067
			C103.288,168.955,102.388,168.026,102.388,166.888z M102.658,173.777c0-0.329,0.271-0.568,0.57-0.568h2.489
			c0.301,0,0.57,0.239,0.57,0.568v10.845c0,0.299-0.27,0.568-0.57,0.568h-2.489c-0.3,0-0.57-0.27-0.57-0.568V173.777z"/>
		<path fill="#5D616B" d="M115.347,172.908c1.86,0,3.3,0.749,4.44,2.128c0.209,0.27,0.149,0.628-0.15,0.839l-1.381,1.317
			c-0.27,0.24-0.539,0.09-0.75-0.09c-0.479-0.539-1.229-0.958-2.069-0.958c-1.62,0-2.94,1.378-2.94,3.055
			c0,1.708,1.291,3.056,2.91,3.056c1.291,0,1.86-0.629,2.4-1.139c0.21-0.209,0.51-0.269,0.75-0.09l1.29,1.109
			c0.3,0.239,0.42,0.538,0.21,0.838c-1.02,1.588-2.61,2.517-4.74,2.517c-3.39,0-6.358-2.695-6.358-6.291
			C108.958,175.664,111.986,172.908,115.347,172.908z"/>
		<path fill="#5D616B" d="M122.008,183.752l0.809-1.616c0.121-0.301,0.421-0.36,0.69-0.211c0,0,1.35,0.72,2.729,0.72
			c0.601,0,1.021-0.24,1.021-0.749c0-0.539-0.42-0.869-2.01-1.498c-2.309-0.898-3.389-2.127-3.389-3.954
			c0-1.826,1.35-3.535,4.409-3.535c1.77,0,3.059,0.51,3.689,0.929c0.27,0.181,0.42,0.51,0.27,0.81l-0.75,1.527
			c-0.15,0.27-0.479,0.3-0.72,0.21c0,0-1.351-0.63-2.489-0.63c-0.721,0-1.021,0.301-1.021,0.689c0,0.539,0.54,0.719,1.649,1.168
			c2.311,0.898,4.051,1.888,4.051,4.224c0,1.978-1.74,3.655-4.771,3.655c-1.979,0-3.359-0.629-3.988-1.108
			C122.008,184.232,121.887,183.992,122.008,183.752z"/>
	</g>
</g>
</svg>
