<?xml version="1.0" encoding="utf-8"?>
<!-- Generator: Adobe Illustrator 16.0.0, SVG Export Plug-In . SVG Version: 6.00 Build 0)  -->
<!DOCTYPE svg PUBLIC "-//W3C//DTD SVG 1.1//EN" "http://www.w3.org/Graphics/SVG/1.1/DTD/svg11.dtd">
<svg version="1.1" id="Layer_1" xmlns="http://www.w3.org/2000/svg" xmlns:xlink="http://www.w3.org/1999/xlink" x="0px" y="0px"
	 width="714px" height="105px" viewBox="0 0 714 105" enable-background="new 0 0 714 105" xml:space="preserve">
<g id="PopularHeader">
	<rect x="1" fill="#FDBF0F" width="714" height="105"/>
	<g id="PopularHeaderShadow">
		<g>
			<rect x="1" y="95" fill="#958045" width="714" height="10"/>
		</g>
	</g>
	<g>
		<path fill="#FFFFFF" d="M310.66,36.375c0-0.36,0.288-0.684,0.684-0.684h8.459c4.427,0,8.063,3.6,8.063,7.955
			c0,4.463-3.636,8.099-8.027,8.099h-4.5v8.458c0,0.361-0.324,0.685-0.684,0.685h-3.312c-0.396,0-0.684-0.323-0.684-0.685V36.375z
			 M319.515,47.354c2.016,0,3.708-1.62,3.708-3.744c0-1.98-1.692-3.492-3.708-3.492h-4.175v7.235H319.515z"/>
		<path fill="#FFFFFF" d="M335.895,46.129c4.067,0,7.379,3.456,7.379,7.523c0,4.14-3.312,7.596-7.379,7.596
			s-7.379-3.456-7.379-7.596C328.516,49.585,331.828,46.129,335.895,46.129z M335.895,57.36c1.908,0,3.456-1.655,3.456-3.708
			c0-2.016-1.548-3.635-3.456-3.635c-1.944,0-3.456,1.62-3.456,3.635C332.439,55.705,333.951,57.36,335.895,57.36z"/>
		<path fill="#FFFFFF" d="M350.907,71.002c0,0.433-0.216,0.685-0.864,0.685h-2.879c-0.36,0-0.684-0.324-0.684-0.685V47.173
			c0-0.396,0.324-0.684,0.684-0.684h1.404c0.252,0,0.504,0.144,0.612,0.432l0.468,1.188c0.54-0.72,2.304-1.98,4.644-1.98
			c3.959,0,6.948,3.42,6.948,7.559c0,4.247-3.24,7.56-7.127,7.56c-1.404,0-2.7-0.504-3.204-0.793V71.002z M353.535,57.36
			c2.016,0,3.492-1.655,3.492-3.672c0-2.016-1.368-3.671-3.348-3.671c-1.836,0-2.736,1.44-2.952,2.196v4.319
			C350.727,56.532,351.735,57.36,353.535,57.36z"/>
		<path fill="#FFFFFF" d="M364.228,47.173c0-0.396,0.324-0.684,0.685-0.684h2.951c0.359,0,0.684,0.288,0.684,0.684v7.091
			c0,1.907,0.973,3.096,2.628,3.096c1.512,0,2.663-1.403,2.88-2.7v-7.487c0-0.54,0.216-0.684,0.791-0.684h2.736
			c0.359,0,0.684,0.288,0.684,0.684v13.03c0,0.361-0.324,0.685-0.684,0.685h-1.332c-0.359,0-0.576-0.252-0.684-0.54l-0.432-1.188
			c-0.648,0.576-1.98,2.088-4.824,2.088c-4.463,0-6.083-3.42-6.083-7.092V47.173z"/>
		<path fill="#FFFFFF" d="M382.587,36.375c0-0.36,0.324-0.684,0.685-0.684h3.023c0.359,0,0.684,0.324,0.684,0.684v23.828
			c0,0.361-0.324,0.685-0.684,0.685h-3.023c-0.36,0-0.685-0.323-0.685-0.685V36.375z"/>
		<path fill="#FFFFFF" d="M396.014,51.781c1.44,0,2.629,0.396,2.629,0.396c0.035-1.836-0.541-2.484-1.873-2.484
			c-1.331,0-3.203,0.288-4.031,0.54c-0.504,0.144-0.756-0.18-0.828-0.648l-0.323-1.872c-0.108-0.54,0.18-0.792,0.504-0.9
			c0.288-0.108,2.592-0.684,4.896-0.684c4.5,0,5.543,2.34,5.543,6.263v7.811c0,0.361-0.324,0.685-0.684,0.685h-1.296
			c-0.252,0-0.433-0.108-0.612-0.504l-0.432-0.972c-0.828,0.756-2.16,1.836-4.392,1.836c-2.88,0-4.859-1.872-4.859-4.932
			C390.255,53.761,392.343,51.781,396.014,51.781z M396.086,58.188c1.152,0,2.268-0.971,2.484-1.403v-1.979
			c0,0-0.973-0.432-2.016-0.432c-1.404,0-2.34,0.791-2.34,1.943C394.215,57.396,394.971,58.188,396.086,58.188z"/>
		<path fill="#FFFFFF" d="M406.67,47.173c0-0.396,0.324-0.684,0.685-0.684h1.368c0.324,0,0.539,0.18,0.647,0.468l0.504,1.404
			c0.504-0.72,1.836-2.232,4.067-2.232c1.691,0,3.203,0.54,2.771,1.44l-1.332,2.34c-0.18,0.324-0.539,0.468-0.827,0.324
			c-0.108-0.036-0.647-0.216-1.044-0.216c-1.439,0-2.304,0.972-2.556,1.476v8.71c0,0.504-0.324,0.685-0.828,0.685h-2.771
			c-0.36,0-0.685-0.323-0.685-0.685V47.173z"/>
	</g>
</g>
</svg>
