<?xml version="1.0" encoding="utf-8"?>
<!-- Generator: Adobe Illustrator 16.0.0, SVG Export Plug-In . SVG Version: 6.00 Build 0)  -->
<!DOCTYPE svg PUBLIC "-//W3C//DTD SVG 1.1//EN" "http://www.w3.org/Graphics/SVG/1.1/DTD/svg11.dtd">
<svg version="1.1" id="Layer_1" xmlns="http://www.w3.org/2000/svg" xmlns:xlink="http://www.w3.org/1999/xlink" x="0px" y="0px"
	 width="714px" height="105px" viewBox="0 0 714 105" enable-background="new 0 0 714 105" xml:space="preserve">
<g id="Recent_1_">
	<rect fill="#EF5A4D" width="714" height="105"/>
</g>
<g id="Recent_2_">
	<rect y="95" fill="#8A4633" width="714" height="10"/>
</g>
<g>
	<path fill="#FFFFFF" d="M311.326,36.375c0-0.36,0.288-0.684,0.684-0.684h10.295c4.319,0,7.847,3.456,7.847,7.739
		c0,3.312-2.196,6.011-5.327,7.271l4.931,9.143c0.252,0.469,0,1.044-0.612,1.044h-3.779c-0.324,0-0.504-0.181-0.576-0.323
		l-4.787-9.54h-3.996v9.178c0,0.361-0.324,0.685-0.684,0.685h-3.312c-0.396,0-0.684-0.323-0.684-0.685V36.375z M321.909,47.173
		c1.908,0,3.563-1.656,3.563-3.671c0-1.908-1.656-3.492-3.563-3.492h-5.867v7.163H321.909z"/>
	<path fill="#FFFFFF" d="M339.333,46.129c3.708,0,6.731,2.808,6.731,6.695c0,0.251-0.036,0.72-0.072,0.972
		c-0.036,0.359-0.36,0.611-0.684,0.611h-9.215c0.108,1.477,1.368,3.132,3.456,3.132c1.116,0,2.16-0.432,2.808-0.899
		c0.36-0.217,0.684-0.289,0.936,0l1.476,1.691c0.252,0.252,0.324,0.648-0.036,0.936c-1.188,1.116-3.023,1.98-5.363,1.98
		c-4.319,0-7.379-3.42-7.379-7.56C331.991,49.621,335.05,46.129,339.333,46.129z M341.854,51.889
		c-0.108-1.332-1.26-2.448-2.628-2.448c-1.44,0-2.627,1.08-2.808,2.448H341.854z"/>
	<path fill="#FFFFFF" d="M355.641,46.129c2.232,0,3.959,0.9,5.328,2.556c0.252,0.324,0.18,0.756-0.18,1.008l-1.656,1.584
		c-0.324,0.288-0.648,0.108-0.9-0.108c-0.576-0.648-1.476-1.152-2.483-1.152c-1.944,0-3.527,1.656-3.527,3.671
		c0,2.052,1.548,3.672,3.491,3.672c1.548,0,2.232-0.757,2.88-1.368c0.252-0.252,0.612-0.324,0.899-0.107l1.549,1.332
		c0.359,0.287,0.504,0.647,0.252,1.008c-1.225,1.907-3.133,3.023-5.688,3.023c-4.067,0-7.631-3.24-7.631-7.56
		C347.974,49.441,351.609,46.129,355.641,46.129z"/>
	<path fill="#FFFFFF" d="M370.689,46.129c3.707,0,6.73,2.808,6.73,6.695c0,0.251-0.035,0.72-0.072,0.972
		c-0.035,0.359-0.359,0.611-0.684,0.611h-9.215c0.108,1.477,1.368,3.132,3.456,3.132c1.116,0,2.159-0.432,2.808-0.899
		c0.359-0.217,0.684-0.289,0.936,0l1.477,1.691c0.252,0.252,0.323,0.648-0.037,0.936c-1.188,1.116-3.023,1.98-5.363,1.98
		c-4.318,0-7.379-3.42-7.379-7.56C363.346,49.621,366.406,46.129,370.689,46.129z M373.209,51.889
		c-0.108-1.332-1.26-2.448-2.628-2.448c-1.44,0-2.628,1.08-2.808,2.448H373.209z"/>
	<path fill="#FFFFFF" d="M380.445,47.173c0-0.396,0.324-0.684,0.684-0.684h1.368c0.324,0,0.504,0.18,0.612,0.432l0.504,1.332
		c0.539-0.576,2.303-2.124,5.075-2.124c4.571,0,6.407,3.42,6.407,7.164v6.91c0,0.361-0.324,0.685-0.684,0.685h-2.952
		c-0.396,0-0.685-0.323-0.685-0.685v-7.127c0-1.871-0.971-3.059-2.699-3.059c-1.871,0-3.023,1.296-3.383,2.268v7.918
		c0,0.504-0.217,0.685-0.9,0.685h-2.664c-0.359,0-0.684-0.323-0.684-0.685V47.173z"/>
	<path fill="#FFFFFF" d="M399.777,50.269h-1.223c-0.36,0-0.648-0.324-0.648-0.684v-2.412c0-0.396,0.288-0.684,0.648-0.684h1.223
		v-3.996c0-0.36,0.324-0.684,0.685-0.684l2.952-0.036c0.359,0,0.647,0.324,0.647,0.684v4.032h3.167c0.396,0,0.685,0.288,0.685,0.684
		v2.412c0,0.36-0.288,0.684-0.685,0.684h-3.167v5.759c0,1.008,0.54,1.151,1.116,1.151c0.611,0,1.367-0.252,1.764-0.396
		c0.396-0.144,0.684,0.036,0.791,0.396l0.721,2.268c0.144,0.36-0.036,0.721-0.396,0.865c-0.18,0.107-2.52,0.936-4.283,0.936
		c-2.771,0-3.996-1.729-3.996-4.645V50.269z"/>
</g>
</svg>
