<?xml version="1.0" encoding="utf-8"?>
<!-- Generator: Adobe Illustrator 16.0.0, SVG Export Plug-In . SVG Version: 6.00 Build 0)  -->
<!DOCTYPE svg PUBLIC "-//W3C//DTD SVG 1.1//EN" "http://www.w3.org/Graphics/SVG/1.1/DTD/svg11.dtd">
<svg version="1.1" id="Layer_1" xmlns="http://www.w3.org/2000/svg" xmlns:xlink="http://www.w3.org/1999/xlink" x="0px" y="0px"
	 width="30px" height="30px" viewBox="0 0 30 30" enable-background="new 0 0 30 30" xml:space="preserve">
<g id="SearchIcon">
	<g id="XMLID_1_">
		<g>
			<g id="XMLID_2_">
				<g>
					<g>
						<path fill="#AFB2B9" d="M3.952,26.843L3.06,25.949c-0.637-0.634-0.904-1.403-0.586-1.712l5.989-5.988
							c-0.974-1.581-1.537-3.445-1.537-5.446c0-5.721,4.645-10.367,10.367-10.367c5.732,0,10.367,4.646,10.367,10.367
							c0,5.732-4.635,10.379-10.367,10.379c-2.104,0-4.052-0.626-5.682-1.691l-5.947,5.947C5.356,27.745,4.587,27.478,3.952,26.843z
							 M17.293,19.735c3.825,0,6.933-3.106,6.933-6.933c0-3.825-3.107-6.922-6.933-6.922s-6.923,3.097-6.923,6.922
							C10.371,16.628,13.468,19.735,17.293,19.735z"/>
					</g>
				</g>
			</g>
		</g>
	</g>
</g>
</svg>
