<?xml version="1.0" encoding="utf-8"?>
<!-- Generator: Adobe Illustrator 16.0.0, SVG Export Plug-In . SVG Version: 6.00 Build 0)  -->
<!DOCTYPE svg PUBLIC "-//W3C//DTD SVG 1.1//EN" "http://www.w3.org/Graphics/SVG/1.1/DTD/svg11.dtd">
<svg version="1.1" id="Layer_1" xmlns="http://www.w3.org/2000/svg" xmlns:xlink="http://www.w3.org/1999/xlink" x="0px" y="0px"
	 width="714px" height="105px" viewBox="0 0 714 105" enable-background="new 0 0 714 105" xml:space="preserve">
<g id="Friends_Header">
	<g>
		<rect fill="#59C0A6" width="714" height="105"/>
	</g>
	<g id="Friends_Header_Shadow">
		<g>
			<rect y="95" fill="#486D61" width="714" height="10"/>
		</g>
	</g>
	<g>
		<path fill="#FFFFFF" d="M309.66,36.375c0-0.36,0.288-0.684,0.684-0.684h14.65c0.396,0,0.684,0.324,0.684,0.684v2.951
			c0,0.36-0.288,0.684-0.684,0.684h-10.655v6.767h8.891c0.36,0,0.684,0.324,0.684,0.684v2.952c0,0.36-0.324,0.684-0.684,0.684
			h-8.891v9.106c0,0.361-0.324,0.685-0.684,0.685h-3.312c-0.396,0-0.684-0.323-0.684-0.685V36.375z"/>
		<path fill="#FFFFFF" d="M327.804,47.173c0-0.396,0.324-0.684,0.684-0.684h1.368c0.324,0,0.54,0.18,0.648,0.468l0.504,1.404
			c0.504-0.72,1.836-2.232,4.067-2.232c1.692,0,3.204,0.54,2.772,1.44l-1.332,2.34c-0.18,0.324-0.54,0.468-0.828,0.324
			c-0.108-0.036-0.648-0.216-1.044-0.216c-1.44,0-2.304,0.972-2.556,1.476v8.71c0,0.504-0.324,0.685-0.828,0.685h-2.771
			c-0.36,0-0.684-0.323-0.684-0.685V47.173z"/>
		<path fill="#FFFFFF" d="M339.756,38.895c0-1.368,1.08-2.484,2.448-2.484c1.404,0,2.52,1.116,2.52,2.484s-1.116,2.483-2.52,2.483
			C340.835,41.378,339.756,40.262,339.756,38.895z M340.08,47.173c0-0.396,0.324-0.684,0.684-0.684h2.987
			c0.36,0,0.684,0.288,0.684,0.684v13.03c0,0.361-0.324,0.685-0.684,0.685h-2.987c-0.36,0-0.684-0.323-0.684-0.685V47.173z"/>
		<path fill="#FFFFFF" d="M355.019,46.129c3.708,0,6.731,2.808,6.731,6.695c0,0.251-0.036,0.72-0.072,0.972
			c-0.036,0.359-0.359,0.611-0.684,0.611h-9.215c0.108,1.477,1.368,3.132,3.456,3.132c1.116,0,2.16-0.432,2.808-0.899
			c0.359-0.217,0.684-0.289,0.936,0l1.476,1.691c0.252,0.252,0.323,0.648-0.036,0.936c-1.188,1.116-3.023,1.98-5.363,1.98
			c-4.319,0-7.379-3.42-7.379-7.56C347.676,49.621,350.735,46.129,355.019,46.129z M357.539,51.889
			c-0.109-1.332-1.261-2.448-2.628-2.448c-1.44,0-2.627,1.08-2.808,2.448H357.539z"/>
		<path fill="#FFFFFF" d="M364.775,47.173c0-0.396,0.324-0.684,0.684-0.684h1.368c0.324,0,0.504,0.18,0.612,0.432l0.504,1.332
			c0.539-0.576,2.303-2.124,5.075-2.124c4.571,0,6.407,3.42,6.407,7.164v6.91c0,0.361-0.324,0.685-0.684,0.685h-2.952
			c-0.396,0-0.685-0.323-0.685-0.685v-7.127c0-1.871-0.971-3.059-2.699-3.059c-1.871,0-3.023,1.296-3.383,2.268v7.918
			c0,0.504-0.217,0.685-0.9,0.685h-2.664c-0.359,0-0.684-0.323-0.684-0.685V47.173z"/>
		<path fill="#FFFFFF" d="M389.506,46.129c1.44,0,2.557,0.396,3.204,0.648V36.375c0-0.36,0.323-0.684,0.685-0.684h3.059
			c0.36,0,0.684,0.324,0.684,0.684v23.828c0,0.361-0.323,0.685-0.684,0.685h-1.403c-0.324,0-0.576-0.288-0.685-0.685l-0.359-1.115
			c0,0-1.691,2.16-4.715,2.16c-3.924,0-6.912-3.42-6.912-7.56C382.379,49.477,385.223,46.129,389.506,46.129z M389.83,57.36
			c1.908,0,2.771-1.476,3.023-2.34v-4.176c0,0-1.008-0.828-2.807-0.828c-2.017,0-3.492,1.656-3.492,3.671
			C386.555,55.705,387.922,57.36,389.83,57.36z"/>
		<path fill="#FFFFFF" d="M400.667,59.16l0.972-1.943c0.145-0.361,0.504-0.433,0.828-0.252c0,0,1.62,0.863,3.275,0.863
			c0.721,0,1.225-0.288,1.225-0.9c0-0.647-0.504-1.043-2.412-1.799c-2.771-1.08-4.067-2.556-4.067-4.752s1.62-4.248,5.291-4.248
			c2.124,0,3.672,0.612,4.428,1.116c0.323,0.216,0.504,0.612,0.323,0.972l-0.899,1.836c-0.18,0.324-0.575,0.36-0.864,0.252
			c0,0-1.619-0.756-2.987-0.756c-0.864,0-1.224,0.36-1.224,0.828c0,0.648,0.648,0.864,1.979,1.404c2.772,1.08,4.86,2.268,4.86,5.075
			c0,2.377-2.088,4.393-5.725,4.393c-2.375,0-4.031-0.756-4.787-1.332C400.667,59.736,400.523,59.447,400.667,59.16z"/>
	</g>
</g>
</svg>
