<?xml version="1.0" encoding="utf-8"?>
<!-- Generator: Adobe Illustrator 16.0.0, SVG Export Plug-In . SVG Version: 6.00 Build 0)  -->
<!DOCTYPE svg PUBLIC "-//W3C//DTD SVG 1.1//EN" "http://www.w3.org/Graphics/SVG/1.1/DTD/svg11.dtd">
<svg version="1.1" id="Layer_1" xmlns="http://www.w3.org/2000/svg" xmlns:xlink="http://www.w3.org/1999/xlink" x="0px" y="0px"
	 width="175px" height="214px" viewBox="0 0 175 214" enable-background="new 0 0 175 214" xml:space="preserve">
<g>
	<g>
		<rect y="0.261" fill="#D5D9E3" width="175" height="213.739"/>
	</g>
	
		<image overflow="visible" width="2500" height="2000" xlink:href="../Game Hack/mechanics.jpg"  transform="matrix(0.07 0 0 0.0699 0 0)">
	</image>
	<g>
		<path fill="#5D616B" d="M29.001,164.361c0.029-0.24,0.21-0.448,0.54-0.448h0.479c0.24,0,0.42,0.119,0.51,0.299l6.6,14.143
			c0.061,0,0.061,0,0.091,0l6.6-14.143c0.09-0.18,0.239-0.299,0.51-0.299h0.479c0.33,0,0.511,0.208,0.54,0.448l3.54,20.136
			c0.09,0.419-0.149,0.688-0.54,0.688H45.62c-0.271,0-0.51-0.24-0.57-0.449l-1.77-11.355c-0.03,0-0.09,0-0.09,0l-5.25,11.775
			c-0.061,0.18-0.24,0.329-0.51,0.329h-0.54c-0.271,0-0.42-0.149-0.511-0.329l-5.31-11.775c0,0-0.06,0-0.09,0l-1.74,11.355
			c-0.029,0.209-0.27,0.449-0.54,0.449h-2.699c-0.391,0-0.63-0.27-0.57-0.688L29.001,164.361z"/>
		<path fill="#5D616B" d="M56.9,172.901c3.09,0,5.609,2.338,5.609,5.573c0,0.209-0.029,0.6-0.06,0.808
			c-0.03,0.301-0.3,0.51-0.57,0.51H54.2c0.09,1.229,1.141,2.607,2.88,2.607c0.931,0,1.8-0.36,2.34-0.749
			c0.301-0.18,0.57-0.239,0.78,0l1.229,1.408c0.211,0.209,0.271,0.539-0.029,0.779c-0.99,0.929-2.521,1.647-4.47,1.647
			c-3.601,0-6.15-2.847-6.15-6.292C50.78,175.808,53.33,172.901,56.9,172.901z M59,177.694c-0.09-1.107-1.05-2.036-2.189-2.036
			c-1.2,0-2.19,0.898-2.34,2.036H59z"/>
		<path fill="#5D616B" d="M70.49,172.901c1.86,0,3.3,0.75,4.44,2.127c0.21,0.27,0.149,0.63-0.15,0.839l-1.38,1.318
			c-0.271,0.24-0.54,0.09-0.75-0.09c-0.48-0.539-1.23-0.959-2.07-0.959c-1.619,0-2.939,1.379-2.939,3.057
			c0,1.707,1.29,3.057,2.91,3.057c1.29,0,1.859-0.63,2.399-1.14c0.21-0.21,0.51-0.269,0.75-0.09l1.29,1.108
			c0.3,0.24,0.42,0.54,0.21,0.84c-1.02,1.588-2.609,2.517-4.74,2.517c-3.39,0-6.359-2.697-6.359-6.292
			C64.101,175.658,67.131,172.901,70.49,172.901z"/>
		<path fill="#5D616B" d="M77.811,164.781c0-0.299,0.27-0.569,0.57-0.569h2.55c0.3,0,0.569,0.271,0.569,0.569v9.108
			c0.601-0.449,1.771-0.988,3.18-0.988c3.811,0,5.37,2.937,5.37,5.962v5.753c0,0.3-0.271,0.569-0.57,0.569h-2.43
			c-0.33,0-0.569-0.27-0.569-0.569v-5.782c0-1.648-0.931-2.697-2.37-2.697c-1.38,0-2.311,0.898-2.61,2.128v6.352
			c0,0.329-0.18,0.569-0.63,0.569h-2.489c-0.301,0-0.57-0.27-0.57-0.569V164.781z"/>
		<path fill="#5D616B" d="M97.34,177.605c1.199,0,2.189,0.329,2.189,0.329c0.03-1.527-0.449-2.067-1.56-2.067
			s-2.67,0.239-3.36,0.449c-0.42,0.12-0.629-0.149-0.689-0.539l-0.27-1.558c-0.091-0.45,0.149-0.659,0.42-0.749
			c0.239-0.09,2.159-0.569,4.079-0.569c3.75,0,4.62,1.947,4.62,5.213v6.502c0,0.3-0.27,0.569-0.57,0.569h-1.08
			c-0.209,0-0.359-0.09-0.51-0.419l-0.359-0.81c-0.69,0.63-1.801,1.528-3.66,1.528c-2.4,0-4.05-1.558-4.05-4.105
			C92.54,179.254,94.279,177.605,97.34,177.605z M97.399,182.938c0.96,0,1.89-0.81,2.07-1.169v-1.648c0,0-0.81-0.358-1.681-0.358
			c-1.17,0-1.949,0.659-1.949,1.617C95.84,182.279,96.47,182.938,97.399,182.938z"/>
		<path fill="#5D616B" d="M106.219,173.77c0-0.329,0.271-0.569,0.57-0.569h1.141c0.27,0,0.42,0.15,0.51,0.36l0.42,1.108
			c0.449-0.479,1.92-1.768,4.229-1.768c3.81,0,5.34,2.847,5.34,5.962v5.753c0,0.3-0.271,0.569-0.569,0.569h-2.461
			c-0.33,0-0.569-0.27-0.569-0.569v-5.933c0-1.559-0.81-2.547-2.25-2.547c-1.56,0-2.521,1.079-2.819,1.888v6.592
			c0,0.419-0.181,0.569-0.75,0.569h-2.221c-0.3,0-0.57-0.27-0.57-0.569V173.77z"/>
		<path fill="#5D616B" d="M121.52,166.879c0-1.139,0.899-2.067,2.039-2.067c1.17,0,2.101,0.929,2.101,2.067
			s-0.931,2.066-2.101,2.066C122.419,168.945,121.52,168.018,121.52,166.879z M121.789,173.77c0-0.329,0.27-0.569,0.57-0.569h2.49
			c0.299,0,0.569,0.24,0.569,0.569v10.847c0,0.3-0.271,0.569-0.569,0.569h-2.49c-0.301,0-0.57-0.27-0.57-0.569V173.77z"/>
		<path fill="#5D616B" d="M134.479,172.901c1.86,0,3.301,0.75,4.44,2.127c0.21,0.27,0.149,0.63-0.15,0.839l-1.38,1.318
			c-0.27,0.24-0.54,0.09-0.75-0.09c-0.48-0.539-1.23-0.959-2.07-0.959c-1.619,0-2.939,1.379-2.939,3.057
			c0,1.707,1.29,3.057,2.91,3.057c1.29,0,1.859-0.63,2.4-1.14c0.209-0.21,0.51-0.269,0.75-0.09l1.289,1.108
			c0.301,0.24,0.42,0.54,0.211,0.84c-1.021,1.588-2.611,2.517-4.74,2.517c-3.391,0-6.359-2.697-6.359-6.292
			C128.09,175.658,131.119,172.901,134.479,172.901z"/>
		<path fill="#5D616B" d="M141.139,183.748l0.811-1.619c0.119-0.299,0.42-0.359,0.689-0.209c0,0,1.35,0.719,2.73,0.719
			c0.6,0,1.02-0.239,1.02-0.749c0-0.539-0.42-0.869-2.01-1.498c-2.311-0.898-3.391-2.127-3.391-3.955s1.351-3.535,4.41-3.535
			c1.771,0,3.061,0.51,3.69,0.929c0.271,0.18,0.42,0.51,0.271,0.809l-0.75,1.528c-0.15,0.27-0.48,0.3-0.721,0.209
			c0,0-1.35-0.628-2.49-0.628c-0.72,0-1.02,0.3-1.02,0.688c0,0.539,0.54,0.72,1.65,1.169c2.31,0.898,4.049,1.888,4.049,4.225
			c0,1.978-1.739,3.655-4.77,3.655c-1.979,0-3.359-0.63-3.99-1.109C141.139,184.227,141.02,183.987,141.139,183.748z"/>
	</g>
</g>
</svg>
