<?xml version="1.0" encoding="utf-8"?>
<!-- Generator: Adobe Illustrator 16.0.0, SVG Export Plug-In . SVG Version: 6.00 Build 0)  -->
<!DOCTYPE svg PUBLIC "-//W3C//DTD SVG 1.1//EN" "http://www.w3.org/Graphics/SVG/1.1/DTD/svg11.dtd">
<svg version="1.1" id="Layer_1" xmlns="http://www.w3.org/2000/svg" xmlns:xlink="http://www.w3.org/1999/xlink" x="0px" y="0px"
	 width="215px" height="100px" viewBox="0 0 215 100" enable-background="new 0 0 215 100" xml:space="preserve">
<g id="PopularFilter_1_">
	<path fill="#958045" d="M6.25,44.026c0-16.971,16.118-30.729,36-30.729h130c19.882,0,36,13.758,36,30.729v18.779
		c0,16.972-16.118,30.729-36,30.729h-130c-19.882,0-36-13.758-36-30.729V44.026z"/>
	<path fill="#9F8854" d="M6.25,38.904c0-16.971,16.118-30.729,36-30.729h130c19.882,0,36,13.758,36,30.729v18.779
		c0,16.972-16.118,30.729-36,30.729h-130c-19.882,0-36-13.757-36-30.729V38.904z"/>
	<g>
		<path fill="#C5C7C9" d="M55.824,32.169c0-0.36,0.287-0.684,0.684-0.684h8.459c4.428,0,8.062,3.6,8.062,7.955
			c0,4.463-3.635,8.099-8.027,8.099h-4.498v8.459c0,0.359-0.324,0.684-0.684,0.684h-3.312c-0.396,0-0.684-0.324-0.684-0.684V32.169z
			 M64.68,43.147c2.016,0,3.707-1.62,3.707-3.744c0-1.98-1.691-3.492-3.707-3.492h-4.176v7.235H64.68z"/>
		<path fill="#C5C7C9" d="M81.059,41.923c4.068,0,7.379,3.456,7.379,7.523c0,4.139-3.311,7.594-7.379,7.594
			c-4.066,0-7.379-3.455-7.379-7.594C73.68,45.379,76.992,41.923,81.059,41.923z M81.059,53.154c1.908,0,3.457-1.656,3.457-3.708
			c0-2.016-1.549-3.636-3.457-3.636c-1.943,0-3.455,1.62-3.455,3.636C77.604,51.498,79.115,53.154,81.059,53.154z"/>
		<path fill="#C5C7C9" d="M96.07,66.797c0,0.432-0.215,0.684-0.863,0.684h-2.879c-0.361,0-0.684-0.324-0.684-0.684v-23.83
			c0-0.396,0.322-0.684,0.684-0.684h1.402c0.252,0,0.504,0.144,0.613,0.432l0.467,1.188c0.541-0.72,2.305-1.98,4.645-1.98
			c3.959,0,6.947,3.42,6.947,7.559c0,4.248-3.24,7.559-7.127,7.559c-1.404,0-2.701-0.504-3.205-0.791V66.797z M98.699,53.154
			c2.016,0,3.49-1.656,3.49-3.672s-1.367-3.671-3.348-3.671c-1.834,0-2.734,1.44-2.951,2.196v4.319
			C95.891,52.326,96.898,53.154,98.699,53.154z"/>
		<path fill="#C5C7C9" d="M109.393,42.967c0-0.396,0.322-0.684,0.684-0.684h2.951c0.359,0,0.684,0.288,0.684,0.684v7.091
			c0,1.908,0.973,3.096,2.627,3.096c1.514,0,2.664-1.404,2.881-2.7v-7.487c0-0.54,0.215-0.684,0.791-0.684h2.736
			c0.359,0,0.684,0.288,0.684,0.684v13.031c0,0.359-0.324,0.684-0.684,0.684h-1.332c-0.359,0-0.576-0.252-0.684-0.54l-0.432-1.188
			c-0.648,0.575-1.98,2.087-4.824,2.087c-4.463,0-6.082-3.419-6.082-7.09V42.967z"/>
		<path fill="#C5C7C9" d="M127.752,32.169c0-0.36,0.322-0.684,0.684-0.684h3.023c0.359,0,0.684,0.324,0.684,0.684v23.829
			c0,0.359-0.324,0.684-0.684,0.684h-3.023c-0.361,0-0.684-0.324-0.684-0.684V32.169z"/>
		<path fill="#C5C7C9" d="M141.178,47.575c1.441,0,2.629,0.396,2.629,0.396c0.035-1.836-0.541-2.484-1.873-2.484
			s-3.203,0.288-4.031,0.54c-0.504,0.144-0.756-0.18-0.828-0.648l-0.324-1.872c-0.107-0.54,0.182-0.792,0.504-0.9
			c0.289-0.108,2.592-0.684,4.896-0.684c4.5,0,5.543,2.34,5.543,6.263v7.812c0,0.359-0.324,0.684-0.684,0.684h-1.297
			c-0.252,0-0.432-0.107-0.611-0.504l-0.432-0.972c-0.828,0.756-2.16,1.835-4.391,1.835c-2.881,0-4.859-1.871-4.859-4.931
			C135.42,49.555,137.506,47.575,141.178,47.575z M141.25,53.982c1.152,0,2.268-0.973,2.484-1.404v-1.979
			c0,0-0.973-0.432-2.016-0.432c-1.404,0-2.34,0.792-2.34,1.944C139.379,53.189,140.135,53.982,141.25,53.982z"/>
		<path fill="#C5C7C9" d="M151.834,42.967c0-0.396,0.324-0.684,0.684-0.684h1.369c0.322,0,0.539,0.18,0.646,0.468l0.504,1.404
			c0.504-0.72,1.836-2.232,4.068-2.232c1.691,0,3.203,0.54,2.771,1.44l-1.332,2.34c-0.18,0.324-0.539,0.468-0.828,0.324
			c-0.107-0.036-0.648-0.216-1.043-0.216c-1.441,0-2.305,0.972-2.557,1.476v8.711c0,0.504-0.324,0.684-0.828,0.684h-2.771
			c-0.359,0-0.684-0.324-0.684-0.684V42.967z"/>
	</g>
</g>
</svg>
