<?xml version="1.0" encoding="utf-8"?>
<!-- Generator: Adobe Illustrator 16.0.0, SVG Export Plug-In . SVG Version: 6.00 Build 0)  -->
<!DOCTYPE svg PUBLIC "-//W3C//DTD SVG 1.1//EN" "http://www.w3.org/Graphics/SVG/1.1/DTD/svg11.dtd">
<svg version="1.1" id="Layer_1" xmlns="http://www.w3.org/2000/svg" xmlns:xlink="http://www.w3.org/1999/xlink" x="0px" y="0px"
	 width="215px" height="100px" viewBox="0 0 215 100" enable-background="new 0 0 215 100" xml:space="preserve">
<g id="RecentFilter">
	<g>
		<path fill="#8A4633" d="M6.5,43.171c0-16.972,16.118-30.729,36-30.729h130c19.882,0,36,13.758,36,30.729V61.95
			c0,16.971-16.118,30.729-36,30.729h-130c-19.882,0-36-13.759-36-30.729V43.171z"/>
	</g>
	<g>
		<path fill="#EF5A4D" d="M6.5,38.05c0-16.972,16.118-30.729,36-30.729h130c19.882,0,36,13.758,36,30.729v18.779
			c0,16.971-16.118,30.729-36,30.729h-130c-19.882,0-36-13.758-36-30.729V38.05z"/>
	</g>
	<g>
		<path fill="#FFFFFF" d="M60.16,31.314c0-0.36,0.287-0.684,0.684-0.684h10.295c4.318,0,7.848,3.456,7.848,7.739
			c0,3.312-2.197,6.011-5.328,7.271l4.932,9.143c0.252,0.468,0,1.044-0.611,1.044h-3.781c-0.322,0-0.504-0.18-0.574-0.324
			l-4.789-9.539H64.84v9.179c0,0.359-0.324,0.684-0.684,0.684h-3.312c-0.396,0-0.684-0.324-0.684-0.684V31.314z M70.742,42.113
			c1.908,0,3.564-1.656,3.564-3.671c0-1.908-1.656-3.492-3.564-3.492h-5.867v7.163H70.742z"/>
		<path fill="#FFFFFF" d="M88.166,41.069c3.709,0,6.732,2.808,6.732,6.695c0,0.252-0.037,0.72-0.072,0.972
			c-0.037,0.36-0.361,0.612-0.684,0.612h-9.215c0.107,1.475,1.367,3.131,3.455,3.131c1.115,0,2.16-0.432,2.807-0.9
			c0.361-0.215,0.686-0.287,0.938,0l1.475,1.692c0.252,0.252,0.324,0.647-0.035,0.937c-1.188,1.115-3.023,1.979-5.363,1.979
			c-4.32,0-7.379-3.419-7.379-7.559C80.824,44.561,83.883,41.069,88.166,41.069z M90.686,46.828
			c-0.107-1.332-1.26-2.448-2.627-2.448c-1.439,0-2.627,1.08-2.809,2.448H90.686z"/>
		<path fill="#FFFFFF" d="M104.475,41.069c2.232,0,3.961,0.9,5.328,2.556c0.252,0.324,0.18,0.756-0.18,1.008l-1.656,1.584
			c-0.324,0.288-0.648,0.108-0.9-0.108c-0.576-0.648-1.475-1.152-2.482-1.152c-1.945,0-3.529,1.656-3.529,3.671
			c0,2.052,1.549,3.672,3.492,3.672c1.549,0,2.232-0.756,2.879-1.368c0.252-0.252,0.613-0.324,0.9-0.108l1.549,1.332
			c0.359,0.288,0.504,0.648,0.252,1.008c-1.225,1.908-3.133,3.023-5.688,3.023c-4.068,0-7.631-3.239-7.631-7.559
			C96.809,44.38,100.443,41.069,104.475,41.069z"/>
		<path fill="#FFFFFF" d="M119.521,41.069c3.709,0,6.732,2.808,6.732,6.695c0,0.252-0.037,0.72-0.072,0.972
			c-0.037,0.36-0.361,0.612-0.684,0.612h-9.215c0.107,1.475,1.367,3.131,3.455,3.131c1.115,0,2.16-0.432,2.807-0.9
			c0.361-0.215,0.686-0.287,0.938,0l1.475,1.692c0.252,0.252,0.324,0.647-0.035,0.937c-1.188,1.115-3.023,1.979-5.363,1.979
			c-4.32,0-7.379-3.419-7.379-7.559C112.18,44.561,115.238,41.069,119.521,41.069z M122.041,46.828
			c-0.107-1.332-1.26-2.448-2.627-2.448c-1.439,0-2.627,1.08-2.809,2.448H122.041z"/>
		<path fill="#FFFFFF" d="M129.279,42.113c0-0.396,0.324-0.684,0.684-0.684h1.369c0.322,0,0.504,0.18,0.611,0.432l0.504,1.332
			c0.539-0.576,2.303-2.124,5.074-2.124c4.572,0,6.408,3.42,6.408,7.163v6.912c0,0.359-0.324,0.684-0.684,0.684h-2.951
			c-0.396,0-0.686-0.324-0.686-0.684v-7.127c0-1.872-0.971-3.06-2.699-3.06c-1.871,0-3.023,1.296-3.383,2.268v7.919
			c0,0.504-0.217,0.684-0.9,0.684h-2.664c-0.359,0-0.684-0.324-0.684-0.684V42.113z"/>
		<path fill="#FFFFFF" d="M148.611,45.208h-1.225c-0.359,0-0.646-0.324-0.646-0.684v-2.412c0-0.396,0.287-0.684,0.646-0.684h1.225
			v-3.995c0-0.36,0.324-0.684,0.684-0.684l2.951-0.036c0.361,0,0.648,0.324,0.648,0.684v4.031h3.168
			c0.396,0,0.684,0.288,0.684,0.684v2.412c0,0.36-0.287,0.684-0.684,0.684h-3.168v5.759c0,1.008,0.541,1.152,1.117,1.152
			c0.611,0,1.367-0.252,1.764-0.396c0.395-0.145,0.684,0.036,0.791,0.396l0.721,2.268c0.143,0.359-0.037,0.72-0.396,0.863
			c-0.18,0.108-2.52,0.936-4.283,0.936c-2.771,0-3.996-1.727-3.996-4.643V45.208z"/>
	</g>
</g>
</svg>
