<?xml version="1.0" encoding="utf-8"?>
<!-- Generator: Adobe Illustrator 16.0.0, SVG Export Plug-In . SVG Version: 6.00 Build 0)  -->
<!DOCTYPE svg PUBLIC "-//W3C//DTD SVG 1.1//EN" "http://www.w3.org/Graphics/SVG/1.1/DTD/svg11.dtd">
<svg version="1.1" id="Layer_1" xmlns="http://www.w3.org/2000/svg" xmlns:xlink="http://www.w3.org/1999/xlink" x="0px" y="0px"
	 width="175px" height="214px" viewBox="0 0 175 214" enable-background="new 0 0 175 214" xml:space="preserve">
<g>
	<g>
		<rect x="0" y="0.261" fill="#D5D9E3" width="175" height="213.739"/>
	</g>
	
		<image overflow="visible" width="2500" height="2000" xlink:href="../Game Hack/robotics.jpg"  transform="matrix(0.07 0 0 0.0699 0 0)">
	</image>
	<g>
		<path fill="#5D616B" d="M38.526,164.781c0-0.301,0.239-0.57,0.569-0.57h8.58c3.6,0,6.54,2.877,6.54,6.441
			c0,2.757-1.83,5.004-4.44,6.054l4.11,7.609c0.21,0.391,0,0.869-0.511,0.869h-3.149c-0.271,0-0.42-0.149-0.479-0.271l-3.99-7.939
			h-3.33v7.642c0,0.298-0.27,0.568-0.57,0.568h-2.76c-0.33,0-0.569-0.271-0.569-0.568V164.781z M47.345,173.769
			c1.59,0,2.971-1.378,2.971-3.056c0-1.588-1.381-2.906-2.971-2.906h-4.89v5.962H47.345z"/>
		<path fill="#5D616B" d="M61.865,172.899c3.391,0,6.15,2.878,6.15,6.263c0,3.445-2.76,6.322-6.15,6.322
			c-3.389,0-6.148-2.877-6.148-6.322C55.716,175.777,58.476,172.899,61.865,172.899z M61.865,182.248
			c1.591,0,2.881-1.378,2.881-3.086c0-1.678-1.29-3.026-2.881-3.026c-1.619,0-2.879,1.349-2.879,3.026
			C58.986,180.87,60.246,182.248,61.865,182.248z"/>
		<path fill="#5D616B" d="M70.685,164.781c0-0.301,0.27-0.57,0.57-0.57h2.55c0.3,0,0.569,0.27,0.569,0.57v8.658
			c0.541-0.21,1.471-0.54,2.67-0.54c3.57,0,5.94,2.787,5.94,6.293c0,3.445-2.49,6.292-5.76,6.292c-2.521,0-3.931-1.798-3.931-1.798
			l-0.299,0.93c-0.09,0.328-0.301,0.568-0.57,0.568h-1.17c-0.301,0-0.57-0.271-0.57-0.568V164.781z M76.775,182.248
			c1.59,0,2.73-1.378,2.73-3.056s-1.23-3.057-2.91-3.057c-1.5,0-2.34,0.689-2.34,0.689v3.476
			C74.464,181.02,75.185,182.248,76.775,182.248z"/>
		<path fill="#5D616B" d="M90.905,172.899c3.39,0,6.149,2.878,6.149,6.263c0,3.445-2.76,6.322-6.149,6.322
			c-3.39,0-6.15-2.877-6.15-6.322C84.755,175.777,87.515,172.899,90.905,172.899z M90.905,182.248c1.591,0,2.88-1.378,2.88-3.086
			c0-1.678-1.289-3.026-2.88-3.026c-1.62,0-2.88,1.349-2.88,3.026C88.025,180.87,89.285,182.248,90.905,182.248z"/>
		<path fill="#5D616B" d="M100.355,176.346h-1.02c-0.301,0-0.541-0.27-0.541-0.568v-2.009c0-0.329,0.24-0.568,0.541-0.568h1.02
			v-3.326c0-0.3,0.27-0.569,0.57-0.569l2.459-0.029c0.301,0,0.541,0.27,0.541,0.568v3.356h2.639c0.33,0,0.57,0.239,0.57,0.568v2.009
			c0,0.299-0.24,0.568-0.57,0.568h-2.639v4.794c0,0.839,0.449,0.959,0.93,0.959c0.51,0,1.14-0.21,1.469-0.33
			c0.33-0.119,0.57,0.03,0.66,0.33l0.601,1.888c0.12,0.3-0.03,0.599-0.33,0.72c-0.149,0.09-2.101,0.778-3.569,0.778
			c-2.311,0-3.33-1.438-3.33-3.864V176.346z"/>
		<path fill="#5D616B" d="M109.805,166.878c0-1.14,0.9-2.067,2.04-2.067c1.17,0,2.101,0.928,2.101,2.067
			c0,1.139-0.931,2.067-2.101,2.067C110.705,168.945,109.805,168.017,109.805,166.878z M110.074,173.769
			c0-0.329,0.271-0.568,0.57-0.568h2.49c0.3,0,0.57,0.239,0.57,0.568v10.848c0,0.298-0.271,0.568-0.57,0.568h-2.49
			c-0.3,0-0.57-0.271-0.57-0.568V173.769z"/>
		<path fill="#5D616B" d="M122.765,172.899c1.86,0,3.3,0.75,4.44,2.129c0.209,0.269,0.149,0.628-0.15,0.839l-1.381,1.317
			c-0.27,0.24-0.539,0.09-0.75-0.09c-0.479-0.539-1.229-0.959-2.069-0.959c-1.62,0-2.94,1.379-2.94,3.057
			c0,1.707,1.291,3.056,2.91,3.056c1.291,0,1.86-0.628,2.4-1.139c0.21-0.21,0.51-0.269,0.75-0.09l1.289,1.109
			c0.301,0.24,0.421,0.538,0.211,0.839c-1.02,1.588-2.609,2.517-4.74,2.517c-3.39,0-6.359-2.696-6.359-6.292
			C116.375,175.656,119.404,172.899,122.765,172.899z"/>
		<path fill="#5D616B" d="M129.425,183.746l0.81-1.617c0.12-0.301,0.42-0.36,0.689-0.211c0,0,1.351,0.72,2.73,0.72
			c0.6,0,1.02-0.239,1.02-0.749c0-0.539-0.42-0.869-2.01-1.498c-2.31-0.899-3.39-2.127-3.39-3.955c0-1.827,1.351-3.536,4.41-3.536
			c1.771,0,3.06,0.51,3.69,0.929c0.27,0.181,0.42,0.511,0.27,0.81l-0.75,1.527c-0.15,0.271-0.48,0.301-0.721,0.211
			c0,0-1.35-0.63-2.489-0.63c-0.72,0-1.021,0.301-1.021,0.689c0,0.539,0.541,0.719,1.65,1.169c2.311,0.897,4.05,1.887,4.05,4.224
			c0,1.979-1.739,3.656-4.771,3.656c-1.979,0-3.359-0.629-3.989-1.108C129.425,184.226,129.305,183.986,129.425,183.746z"/>
	</g>
</g>
</svg>
